<svg xmlns="http://www.w3.org/2000/svg" version="1.1" width="600px" height="600px" viewBox="0 0 200 200" style="overflow:hidden!important;"><g id="svga-group-wrapper"><g id="svga-group-backs-single"><path  id="SvgjsPath18180" d="M0 0h200v200H0V0z" fill="#ecf0f1" stroke-width="none" opacity="1"></path></g><g id="svga-group-humanwrap-move" transform="matrix(1,0,0,1,6,-4)"><g id="svga-group-humanwrap"><g id="svga-group-hair-back-move" transform="matrix(0.9986295104026794,-0.0523359589278698,0.0523359589278698,0.9986295104026794,-7.451664924621582,5.432316780090332)"><g id="svga-group-hair-back"><path id="SvgjsPath18230" d="M81.9 28.3s36.8-8.4 46.4-4.5 16.8 9 21 21.9 2.1 38.6 1.8 52.4 4.5 26.9 4.5 26.9c-4.2-4.8-7.5-13.8-7.5-13.8 0 9.6 9.3 28.7 9.3 28.7-5.7-3.3-15.3-18-15.3-18 0 5.7 4.8 18.3 4.8 18.3-4.5-3.3-9.9-11.7-9.9-11.7.6 6 3.6 18.6 3.6 18.6-4.5-3.6-10.5-16.2-10.5-16.2 0 4.5.9 12.6.9 12.6-4.2-4.5-5.1-8.1-5.1-8.1.3 8.7 3.9 19.5 3.9 19.5-3-2.7-6.9-6-6.9-6s.9 7.8.9 9c0 7.2-10.8-14.1-10.8-14.1 0 3.3 1.8 15.6 1.8 15.6-3-3.6-10.2-11.7-10.2-11.7l-.6 12-8.4-10.8-2.7 7.2-2.1-6.9-5.7 9.9-.9-12.9-10.5 9.3.9-9-5.1 7.8c1.2-4.2 2.4-13.8 2.4-13.8l-7.8 8.1c2.1-4.5 3.3-16.8 3.3-16.8-3 6-12.3 13.8-12.3 13.8.9-3.9 1.2-8.7 1.2-8.7l-7.8 7.5c5.4-8.7 6.3-18.6 6.3-18.6L44 134.2c4.8-9.3 6.3-21.6 6.3-21.6-3.3 4.8-10.2 9-10.2 9 8.7-9.6 8.4-33.8 9.9-59.9 1.5-26 13.8-29.3 13.8-29.3l18.1-4.1z" fill="#ffffff" stroke-width="none" opacity="1"></path><path id="SvgjsPath18231" d="M104 160.7c-.3 0-.6-.1-.8-.4l-7.3-9.4-2.1 5.5c-.2.4-.5.7-1 .6-.4 0-.8-.3-.9-.7l-1.4-4.7-4.5 7.9c-.2.4-.7.6-1.1.5s-.7-.5-.8-.9l-.8-10.8-9 7.9c-.3.3-.8.3-1.1.1-.4-.2-.6-.6-.5-1l.5-4.9-2.8 4.4c-.3.4-.8.6-1.3.4-.4-.2-.7-.7-.5-1.2.7-2.6 1.5-7.4 2-10.6l-5.7 5.9c-.3.4-.9.4-1.3.1-.4-.3-.5-.8-.3-1.2 1.2-2.6 2.2-8.2 2.7-12.2-3.9 5.1-9.8 10.1-10.1 10.4-.3.3-.8.3-1.2.1s-.5-.7-.5-1.1c.5-2 .8-4.2.9-5.9l-5.9 5.6c-.4.4-.9.4-1.3.1s-.5-.9-.2-1.3c3.6-5.8 5.2-12.3 5.8-15.7l-8.8 6.9c-.4.3-.9.3-1.3 0s-.5-.8-.2-1.2c3.1-6 4.8-13.4 5.6-17.7-3.5 3.6-7.9 6.3-8.1 6.4-.4.3-1 .2-1.3-.2s-.3-.9 0-1.3c7.1-7.9 8-26.3 9-47.7.2-3.8.4-7.7.6-11.6 1.5-26.5 14-30.1 14.5-30.2l18-4.2c1.5-.3 37.2-8.4 47-4.4s17.3 9.3 21.5 22.5c3.5 10.6 2.7 29.9 2.1 44-.1 3.2-.2 6.2-.3 8.8-.3 13.4 4.4 26.4 4.4 26.6.2.5 0 1-.4 1.2s-.9.2-1.3-.2c-1.7-2-3.3-4.6-4.6-7.1 2.5 9.4 7.9 20.8 8 20.9.2.4.1.9-.2 1.2s-.8.4-1.2.1c-4.1-2.4-10-10.3-13.3-14.9 1.2 5.9 4.2 13.8 4.2 13.9.2.4 0 .9-.3 1.2-.4.3-.8.3-1.2 0-2.7-2-5.7-5.7-7.7-8.4 1.1 6.2 3 14.2 3 14.3.1.4-.1.8-.4 1.1-.4.2-.8.2-1.2-.1-3-2.4-6.5-8.3-8.7-12.4.3 3.9.7 7.9.7 7.9 0 .4-.2.8-.6 1-.4.2-.9.1-1.1-.2-1.2-1.3-2.1-2.5-2.8-3.5 1.1 7 3.3 13.8 3.3 13.9.1.4 0 .9-.4 1.2-.4.2-.9.2-1.2-.1-1.6-1.5-3.5-3.1-4.9-4.3.3 2.4.6 5.8.6 6.6 0 .5 0 2.1-1.3 2.4-.6.2-2.5.6-9.1-11.7.5 4.6 1.4 10.5 1.4 10.6.1.4-.2.9-.6 1.1-.4.2-.9.1-1.2-.3-2.1-2.5-6.2-7.2-8.5-9.8l-.5 9.5c0 .4-.3.8-.7.9.2-.2.1-.2 0-.2zm9-17.9c.4 0 .7.2.9.5 3.1 6.1 7.1 13 8.9 14.7v-.1c0-.8-.5-5.8-.9-8.9 0-.4.2-.8.5-1 .4-.2.8-.1 1.1.1 0 0 2 1.7 4.3 3.7-1.1-3.9-2.7-10.5-2.9-16.3 0-.5.4-1 .9-1 .5-.1 1 .3 1.1.7 0 0 .6 2.2 2.8 5.2-.3-2.8-.6-6.7-.6-9.4 0-.5.3-.9.8-1s.9.1 1.1.5c0 .1 4 8.4 7.8 13.2-.9-4.2-2.4-11-2.8-15.1 0-.5.2-.9.7-1 .4-.1.9 0 1.2.4 0 .1 3.3 5.1 6.7 8.8-1.4-4.2-3.5-11-3.5-14.8 0-.4.3-.8.7-1 .4-.1.9 0 1.1.4.1.1 6.5 9.9 11.7 15.1-2.7-6.2-7.6-18.1-7.6-25.3 0-.5.3-.9.8-1s.9.2 1.1.6c0 .1 1.5 4.1 3.7 8.1-1.3-5.2-2.8-12.9-2.6-20.9.1-2.6.2-5.6.3-8.8.6-13.9 1.3-33-2-43.3-4-12.4-10.8-17.3-20.4-21.2-9.2-3.7-45.4 4.4-45.8 4.5l-18 4.2c-.1 0-11.6 3.5-13 28.4-.2 3.9-.4 7.8-.6 11.6-.9 18.4-1.6 34.6-6.5 44.3 1.9-1.5 4.1-3.5 5.5-5.6.3-.4.7-.5 1.2-.4s.7.6.6 1.1c-.1.4-1.2 9.6-4.7 18.1l7.6-5.9c.3-.2.7-.3 1.1-.1.3.2.6.6.5 1 0 .3-.6 6.6-3.6 13.6l3.4-3.3c.3-.3.7-.4 1.1-.2.4.2.6.6.6 1 0 .2-.2 2.9-.7 5.9 2.9-2.7 7.9-7.5 9.8-11.5.2-.4.7-.6 1.2-.5s.8.6.7 1.1c0 .4-.7 7.5-2 12.9l4.8-5c.3-.3.8-.4 1.2-.2.4.2.6.6.6 1 0 .3-.6 4.5-1.3 8.6l2.2-3.3c.3-.4.7-.5 1.2-.4.4.2.7.6.7 1l-.6 6.4 8.6-7.6c.3-.3.7-.3 1-.2.4.1.6.5.6.9l.7 9.6 4.1-7c.2-.3.6-.5 1-.5s.7.3.8.7L93 153l1.7-4.4c.1-.3.4-.6.8-.6.4-.1.7.1.9.4l6.7 8.6.5-9.3c0-.4.3-.8.7-.9.4-.1.8 0 1.1.3.1.1 4.6 5.2 8 9.1-.5-3.9-1.3-10.1-1.3-12.3 0-.5.3-.9.8-1-.1-.1 0-.1.1-.1z" fill="#000000" stroke-width="none" opacity="1"></path></g></g><g id="svga-group-humanbody-back"><path id="SvgjsPath18121" d="M77.6 118.3c0 19.3 3.4 44.1-10 51.9-13.4 7.9-31.9 11.3-37.8 22s-4.4 25.3-4.4 25.3h149.3s.7-18.9-5.1-26.4c-8.1-10.4-27.8-15.5-37.7-20.9s-13.4-25.1-13.4-52.4l-40.9.5z" fill="#ffffff" stroke-width="none" opacity="1"></path></g><g id="svga-group-chinshadow-single"></g><g id="svga-group-humanbody-front"><path id="SvgjsPath18122" d="M175.8 218.7H24.4l-.1-1c-.1-.6-1.5-15.1 4.5-26 4.1-7.4 13.5-11.3 23.5-15.5 5-2.1 10.2-4.3 14.8-6.9 10.6-6.2 10.1-23.9 9.6-41-.1-3.5-.2-6.8-.2-10v-1.1l43.2-.4v1.1c0 29.9 4.2 46.7 12.8 51.4 2.9 1.6 6.7 3.2 10.8 4.9 10 4.1 21.3 8.8 27.2 16.3 6.1 7.7 5.4 26.4 5.4 27.1l-.1 1.1zm-149.3-2.2h147.1c0-4.1-.2-18.5-4.9-24.6-5.5-7-16.6-11.6-26.3-15.6-4.1-1.7-8-3.3-11-5-5.1-2.8-8.7-8.9-10.9-18.7-2-8.4-2.9-19.4-3-33.5l-38.6.4c0 2.8.1 5.7.2 8.8.5 17.8 1 36.1-10.7 43-4.7 2.7-9.9 4.9-15 7.1-9.6 4-18.7 7.8-22.4 14.5-5 8.6-4.7 20.1-4.5 23.6z" fill="#000000" stroke-width="none" opacity="1"></path><path id="SvgjsPath18123" d="M93.9 153.8c-.5 1.8-.4 3.4.5 5.2.8 1.6 2.1 2.7 3.9 2.9.4 0 .7-.5.5-.8-1.6-2.2-3.5-4.2-3.7-7.1 0-.7-1-.9-1.2-.2z" fill="#000000" stroke-width="none" opacity="1"></path><path id="SvgjsPath18124" d="M112.5 187.5c8.8.5 18.1-.7 26.6-2.9.7-.2.6-1.4-.2-1.3-8.8 1.1-17.7 2-26.5 3.3-.5.1-.3.9.1.9z" fill="#000000" stroke-width="none" opacity="1"></path><path id="SvgjsPath18125" d="M63.1 182.5c3.8.9 7.6 1.9 11.5 2.8 3.6.8 7.4 2 11.1 2.1.7 0 .8-.9.2-1.2-3.5-1.4-7.5-1.7-11.2-2.5-3.8-.7-7.5-1.3-11.3-2-.5 0-.7.7-.3.8z" fill="#000000" stroke-width="none" opacity="1"></path></g><g id="svga-group-clothes-single"><path id="SvgjsPath18274" d="M71.6 164.7s3-7.6 3.5-10.7h1.2s10.7 16.1 21.4 23.9c0 0 16-9.8 25.6-21.8 0 0 6 11.3 9.5 18.3l-13.6 44.3H82.8l-17.4-39.1 6.2-14.9z" fill="#ffffff" stroke-width="none" opacity="1"></path><path id="SvgjsPath18275" d="M71.6 164.7s-3.1 2.7-6.4 3.9-7 2.9-7 2.9l1.5 1.4s-8.3 3.3-11.4 3.9-16.9 6.6-16.9 6.6-2.7-1.2-4.3 0-4.1 15.4-4.1 17.5v17.9h63.6c.1-.1-10.5-30.6-15-54.1z" fill="#ffffff" stroke-width="none" opacity="1"></path><path id="SvgjsPath18276" d="M128.1 164.7s3.1 2.7 6.4 3.9 7 2.9 7 2.9l-1.4 1.4s8.3 3.3 11.4 3.9 16.9 6.6 16.9 6.6 2.7-1.2 4.3 0 3.9 15.3 3.9 17.4v17.9H113s10.6-30.5 15.1-54z" fill="#ffffff" stroke-width="none" opacity="1"></path><path id="SvgjsPath18277" d="M173.3 182.7c-1.7-1.2-4-.6-4.9-.3-2.3-1-13.9-5.9-16.8-6.5-2.2-.4-7.3-2.4-9.8-3.3l.4-.4c.2-.2.3-.6.3-.9-.1-.3-.3-.6-.6-.7 0 0-3.8-1.7-7.1-2.9-3.1-1.2-6.1-3.7-6.1-3.7-.1-.1-.1-.1-.2-.1-2.3-4.4-4.3-8.1-4.3-8.2-.2-.3-.4-.5-.8-.5-.3 0-.7.1-.9.4-8.4 10.4-21.9 19.3-24.8 21.2-10.3-7.7-20.5-23.1-20.6-23.2-.2-.3-.5-.4-.8-.4h-1.2c-.5 0-.9.4-1 .8-.4 2.7-2.9 9-3.4 10.3-.7.6-3.3 2.6-5.9 3.6-3.3 1.2-7 2.9-7.1 2.9-.3.1-.5.4-.6.7-.1.3 0 .7.3.9l.4.4c-2.5 1-7.6 2.9-9.8 3.3-2.9.6-14.5 5.5-16.8 6.5-1-.3-3.2-1-4.9.3-2.2 1.7-4.3 16.6-4.3 18.1v17.9c0 .6.5 1 1 1h51.4c.1.1.2.1.3 0h95.5c.1.1.3.1.4 0h6.1c.6 0 1-.4 1-1V201c0-1.7-2.1-16.6-4.4-18.3zm-50.1-24.8c.8 1.5 2.2 4.3 3.8 7.3-1.9 9.6-4.8 20.4-7.5 29.7-2.6-2.9-8.7-9.8-11.2-12.2-2.2-2.2-6.1-4.1-8.3-5 4.2-2.8 15.4-10.7 23.2-19.8zm-20.1 59.8h-3.8c1.1-.9 2.1-1.9 3.1-2.9 1.2-1.1 2.3-2.2 3.4-3.4.1 1.2.2 2.3.3 3.3l-1.7 1.7-1.3 1.3zm-.9-3.5c-1.2 1.2-2.6 2.3-3.8 3.5h-2.8c3.4-3.1 6.7-6.3 9.8-9.7l.3 2.7c-1.2 1.1-2.3 2.3-3.5 3.5zm-10.8-32.9 1.5-.6c-.1.3-.3.6-.4.9-.2.4-.4.7-.5 1.1l-.6-1.4zm1.6.4c.2-.4.4-.8.6-1.3l1.5-.6c-.9 1.3-1.9 2.9-2.5 4.4l-.4-.9c.4-.5.6-1.1.8-1.6zm3.4 11.9c-.6.7-1.2 1.4-1.7 2.1.2-.9.4-1.7.6-2.3.3.1.7.2 1.1.2zm9.2-10.7c0 .1-.1.3-.2.5-1.9 2.7-3.8 5.5-5.6 8.4h-1.4c1.9-3.3 3.8-6.6 5.8-9.8.5.3 1 .6 1.4.9zm-4.1 10.8c.4 0 .8-.1 1.2-.1 0 .1.1.2.1.4-.1-.1-.1-.1-.2 0-.3.3-.6.6-.9.8-.1-.4-.2-.8-.2-1.1zm-2.8 4.8 1.2-1.2c.1 1.2.2 2.3.2 3-.4.4-.9.8-1.3 1.2-.1-.9-.1-1.9-.1-3zm3-3.2c.4-.4.7-.8 1.1-1.2v-.1c.2.8.5 1.9.8 3.1-.5.5-1.1.9-1.6 1.4-.1-.9-.2-2.1-.3-3.2zm-3 2.1c0-.9.1-1.8.1-2.8.2-.2.4-.4.7-.6.1.7.2 1.5.3 2.4-.4.3-.7.7-1.1 1zm.2-3.6h.1c-.1 0-.1.1-.1.1v-.1zm-4.5 3.3c.3-.4.6-.9.9-1.2.5-.7 1.1-1.4 1.6-2.1-.1.7-.1 1.4-.2 2.1-1 .9-1.9 1.9-2.8 2.9.2-.6.3-1.2.5-1.7zm-.8 3.2c1.1-1.2 2.1-2.3 3.2-3.5v2.5c-1.3 1.3-2.5 2.6-3.8 3.9.1-.8.3-1.8.6-2.9zm-.9 4.5c0-.1 0-.3.1-.4 1.3-1.3 2.7-2.6 4-3.9.1 1.1.1 2 .2 2.7-1.5 1.4-3 2.8-4.4 4.2-.1-1.1 0-2 .1-2.6zm-.3 7.8c4-3.8 8.1-7.6 12-11.5.2.9.3 1.8.5 2.6v.1c-4.3 3.8-8.5 7.8-12.5 12v-3.2zm0-1v-3.3c1.5-1.4 3.1-2.8 4.6-4.2.1.5.5.9 1 .9h.1c.6-.1.9-.6.9-1.1 0 0-.1-.6-.1-1.5.4-.4.9-.8 1.3-1.2 0 .5.5.9 1 .9.6 0 1-.4 1-1 0-.1 0-.8-.1-1.7.6-.5 1.1-1.1 1.6-1.6.2.9.4 1.9.7 3-4.3 3.1-8.4 6.8-12 10.8zm11.4-23.4c-.1.4-.3.7-.4 1.1-.5.8-1 1.5-1.5 2.3-.5.1-.9.1-1.3.1.8-1 1.4-2.2 2-3.2.8-1.2 1.5-2.4 2.2-3.5-.3 1-.7 2.2-1 3.2zm.2-6.3c-2.3 3.1-4.4 6.4-6.2 9.9-.8-.1-1.4-.2-1.7-.3 2.6-2.8 4.5-6.6 6.1-10 .1-.2-.2-.4-.3-.2-1.9 3.4-4.3 6.6-6.1 9.9v.1c-.1 0-.2-.1-.2-.1l-.6-1.5c2.2-2.9 4.1-6.2 5.9-9.3.1-.2-.2-.4-.3-.2-2 2.9-4.1 5.8-5.9 8.9l-.4-.9c1.6-2.8 3.2-5.5 4.9-8.3.1-.1-.1-.3-.2-.1-1.8 2.4-3.5 5.1-4.9 7.8l-.4-1.1c1.4-2.4 2.7-4.9 4.3-7.3.1-.1-.1-.3-.2-.1-1.5 2.1-3.1 4.4-4.3 6.8l-.4-1c.4-.8.8-1.7 1.2-2.5.5-1 1.1-1.9 1.7-2.8.8-.3 1.4-.5 1.9-.7.8.3 3.6 1.5 6.1 3zm-28.1-26.8c1.9 2.9 10.6 15.2 19.8 22.4-2.4.9-6.7 2.5-8.4 3.7-1.8 1.2-6.1 6.7-8.3 9.6-2.4-8.4-4.8-17.6-6.4-25.9.5-1.4 2.6-6.6 3.3-9.8zm-50.8 38.3c2.1-2.3 4.3-4.6 6.3-7 .2.5.4 1.1.6 1.8-2.5 2.6-5 5.2-7.4 7.9.2-.8.3-1.7.5-2.7zm-1.1 7.5c0-.1 0-.1 0 0 3-3.1 6-6.2 8.9-9.4.3 1.1.6 2.3.9 3.6-3.6 2.8-6.8 6.4-9.8 9.9v-4.1zm.1-.9c.1-.8.2-1.8.4-3.1 2.6-2.6 5.1-5.4 7.7-8.1.2.6.3 1.2.5 1.9-2.9 3.1-5.8 6.2-8.6 9.3zm3.5-15.7c.8-.6 2.2-.3 3 0 .1.3.3.8.6 1.6-2 2.1-4 4.4-5.9 6.7.7-3.9 1.6-7.7 2.3-8.3zm-.1 33.4c.8-.6 1.5-1.2 2.1-2 .1-.1-.1-.3-.2-.2-1 .6-1.8 1.5-2.5 2.3H24h.1c1.6-1.8 3.4-3.5 4.8-5.4.1-.2-.1-.4-.3-.2-1.7 1.5-3.1 3.3-4.6 5v-3.1c2-2.2 4-4.3 5.7-6.6.1-.1-.1-.3-.3-.2-2 1.9-3.7 4-5.5 6v-3c2.6-2.7 5.3-5.4 7.6-8.4.1-.2-.1-.3-.3-.2-2.6 2.4-5 5.2-7.3 7.9v-3.7c3.2-3.4 6.8-6.5 10-9.9 0 .1.1.2.1.3 2 8.3 2.6 18.7 2.8 21.6l-9.3-.2zm8.5-22.1c-1.6-6.8-2.8-10.1-3.4-11.6 5-2.1 13.6-5.7 15.8-6.1 2.2-.4 7-2.2 9.6-3.2 0 .2-.1.3-.1.5 0 .1.2.2.2.1.1-.2.2-.5.3-.7.3-.1.6-.2.8-.3l.2.2c-.9 1.3-1.8 2.7-2.4 4.1-.1.2.2.3.3.2.9-1.2 1.7-2.6 2.4-4l.5.4c-.6 1-1.2 2.1-1.7 3.2l-2 1.2c-.4.3-.6.9-.3 1.3l.7 1.3c-.3.7-.7 1.4-.8 2.1 0 .1.2.2.2.1.3-.5.6-1.1.9-1.7l.7 1.3c-.4.9-.9 1.8-1.1 2.7 0 .2.2.3.3.1.4-.8.7-1.7 1-2.5l.6 1.2c-.5 1.1-1 2.2-1.4 3.4 0 .2.2.3.3.1.5-1 .9-2 1.3-3.1l.6 1.2c-.7 1.3-1.5 2.6-2 4-.1.2.2.3.3.1.8-1.2 1.3-2.5 1.9-3.8l.5 1c-.3.7-.6 1.4-1 2.1-.3.7-.7 1.4-.9 2.1 0 .2.2.2.3.1.4-.6.7-1.4 1-2.1.3-.6.5-1.3.8-1.9l.9 1.7c-.3.6-.6 1.2-.8 1.8-.3.6-.7 1.3-.8 2 0 .1.2.3.3.2.5-.6.7-1.4 1-2.1.2-.5.4-.9.6-1.4l.8 1.6c-.6 1.4-1.2 2.8-1.4 4.2 0 .2.3.2.3.1.7-1.1 1-2.4 1.4-3.7l1 1.8c-.5 1.4-1.1 2.8-1.5 4.2-.1.2.2.3.4.2.7-1.1 1.2-2.4 1.4-3.8l1.1 2c-.5 1.4-1 3-1.1 4.4 0 .2.2.2.3.1.6-1.2.8-2.6 1.1-3.9l.9 1.7c-.6 1.5-1.4 3.1-1.8 4.7 0 .2.2.3.3.1.7-1.3 1.2-2.9 1.7-4.3l.8 1.6c-.7 1.7-1.3 3.4-1.9 5.1-.1.3.3.4.5.2.1-.1.2-.2.2-.3.1-.1 0-.2-.1-.2.5-1.4 1-2.9 1.5-4.3l1 1.8c-.8 1.4-1.4 3-1.8 4.5-.1.3.4.4.5.1.5-1.4.9-2.9 1.5-4.3l2.2 4.3c-.6 1.6-1.3 3.2-1.7 4.9-.1.2.3.4.4.2.7-1.4 1.1-3 1.5-4.5l1.4 2.6c-.8 1.9-1.5 3.8-2.1 5.7v.1h-32c.3-2.9-.3-13.6-2.4-22.2zm25.9-19.5-2.3 1.5 1.2-2.4 1.1.9zm12 41.6c.2-.5.3-1 .4-1.5.1-.4.2-.7.3-1.1l.7 1.3c-.2.4-.3.8-.4 1.2l-1 .1zm-.1-1.6c-.2.5-.4 1.1-.5 1.6h-1.9c.7-1.7 1.3-3.4 1.8-5.2l1.1 2.1c-.1.5-.3 1-.5 1.5zm1.7 1.6c.1-.2.1-.4.2-.6l.3.6h-.5zm2.7 0-19.6-37.2L69 174c.5-.3.6-.9.3-1.4-.3-.5-.9-.6-1.4-.3l-4.2 2.7-3.4-2.8-.4-.4c1.4-.6 3.6-1.5 5.6-2.3 2.1-.8 4.1-2.1 5.4-3.1 1.7 8.6 4.2 17.9 6.6 26.3-.1.3 0 .6.3.9 3.2 11.2 6.3 20.6 7.5 24l-7.1.1zm9.2 0c-.9-2.6-4.2-12.5-7.7-24.6 2.2-2.9 7.1-9.2 8.7-10.3.3-.2.7-.4 1.2-.7l4 9.8c-.5 1.7-2.5 9.2-3 12.6-.2 1.1-.2 2.9-.3 4.7-.1.1-.1.3 0 .4v4.1l-.3.3c-.2.2.1.5.3.4 0 1.4.1 2.5.1 3.2l-3 .1zm5.1-1c4.2-4.1 8.2-8.3 12.5-12.2.1.9.3 2 .4 3.1-3.5 3.5-7.1 6.9-10.7 10.2h-2.1c-.1-.4-.1-.7-.1-1.1zm11.5 1c.3-.3.6-.7.8-1 .4-.5.9-1 1.3-1.5.1 1 .2 1.9.2 2.5H104zm8.3 0h-3.9c-.2-2.6-.9-10.1-1.5-14.3-.7-4.5-2.1-9.8-2.4-11 .2-.6.7-2.1 1.2-3.5.8-2.2 1.3-3.6 1.6-4.5 3 3 9.9 10.9 11.6 12.8-3.1 10.1-5.8 18.2-6.6 20.5zm2.1 0c2-6 10.2-30.9 14.3-51.2 1.3.9 3.3 2.3 5.4 3.1 2 .8 4.3 1.7 5.6 2.3l-.4.4-3.3 2.7-4.2-2.7c-.5-.3-1.1-.2-1.4.3s-.2 1.1.3 1.4l10.3 6.6-19.6 37.2-7-.1zm9.3 0 19.5-37c.2-.5.1-1-.4-1.3l-5.1-3.2 2.5-2c1.9.8 8.3 3.2 11 3.8 2.2.4 10.8 4 15.8 6.1-.6 1.5-1.8 4.8-3.4 11.6-2.1 8.6-2.7 19.2-2.8 22.1l-37.1-.1zm39.4-3.3c2.4-2.2 4.6-4.6 6.9-6.9.2-.2-.1-.4-.3-.3-2.2 2.1-4.4 4.1-6.6 6.3.1-.9.1-1.8.2-2.9.7-.8 1.4-1.6 2.1-2.3 1.2-1.3 2.4-2.6 3.7-3.8.2-.2-.1-.4-.3-.3-1.4 1.3-2.7 2.6-4 3.9-.5.5-.9 1-1.4 1.4.1-.8.2-1.6.3-2.5 1.3-1.5 2.5-3.1 3.8-4.6.2-.2-.1-.5-.3-.3-1.1 1.3-2.2 2.6-3.3 3.8.1-.8.2-1.7.3-2.5.1-.1.2-.3.4-.4.7-.8 1.4-1.6 2.1-2.3.1-.2-.1-.4-.2-.2-.7.7-1.4 1.5-2.1 2.2.2-1 .3-2.1.5-3.1.2-.2.3-.4.5-.6.3-.4.6-.7.9-1.1.1-.2-.1-.3-.3-.2-.4.3-.7.6-1 1l.6-2.7c1.9-7.8 3.1-10.9 3.5-11.8.8-.3 2.2-.6 3 0 1.2 1.2 3.6 14.1 3.6 16.6V217c-.3.2-.6.5-.9.7h-2.3c.9-1 1.7-2 2.6-2.9.2-.2-.1-.5-.3-.3-1.1 1.1-2.2 2.1-3.2 3.2h-3.4c1.9-1.7 3.8-3.5 5.7-5.2.2-.2-.1-.5-.3-.3-2.1 1.9-4.2 3.7-6.2 5.6h-3.7c2.7-2.2 5.2-4.8 7.7-7.2.2-.2-.1-.5-.3-.3-2.7 2.5-5.6 4.8-8.1 7.5h-.1c0-.8 0-2 .2-3.4zm12.5 3.3.1-.1v.1h-.1zM69.4 206.2c-.5 1.7-1.3 3.5-1.5 5.3 0 .2.2.2.3.1.8-1.6 1.1-3.6 1.5-5.3.1-.2-.3-.3-.3-.1z" fill="#000000" stroke-width="none" opacity="1"></path></g><g id="svga-group-head" transform="matrix(0.9986295104026794,-0.0523359589278698,0.0523359589278698,0.9986295104026794,-7.451664924621582,5.432316780090332)"><g id="svga-group-ears-left-move" transform="matrix(1,0,0,1,0,0)"><g id="svga-group-ears-left"><path id="SvgjsPath18025" d="M60.7 84.7s-1.8-5-3.3-7.9-3.6-6.3-6.6-7.2-4 3.9-2.9 8.3 4.2 13.9 5 17.6 1.8 8.1 3.6 7.5 7.1-7.7 4.2-18.3z" fill="#ffffff" stroke-width="none" opacity="1"></path><path id="SvgjsPath18026" d="M55.1 103.6c-1.5-.8-2.3-3.8-3.2-8-.4-2.2-1.7-6.4-2.9-10.5-.8-2.7-1.6-5.3-2.1-7.1-.9-3.5-.5-7.1 1-8.6.8-.8 1.8-1 2.9-.7 3.3.9 5.5 4.4 7.2 7.6 1.6 2.9 3.3 7.8 3.4 8v.1c3.1 11.1-2.6 18.5-4.8 19.3-.2.1-.4.1-.6.1-.3.1-.6 0-.9-.2zm1.5-26.4c-1.6-2.9-3.4-6-6.1-6.7-.5-.1-.9 0-1.3.3-1.1 1.1-1.3 4-.6 6.9.5 1.8 1.2 4.3 2 7 1.2 4.1 2.5 8.4 3 10.6.8 4.1 1.6 6.4 2.3 6.8h.1c1.1-.4 6.6-6.8 3.8-17.2-.1-.4-1.8-5.1-3.2-7.7z" fill="#000000" stroke-width="none" opacity="1"></path><path id="SvgjsPath18027" d="M48.8 72.7c1.9-.8 3.6 1.4 4.8 3.3 1.6 2.5 2.6 5.5 2.9 8.6v.2c0 .2 0 .5.1.7 0 .2-.2.2-.2 0-.1-.4-.2-.9-.3-1.4 0 0-.1-.1-.1-.2-1.2-.6-1.8-.3-1.8.8 0 .7.2 1.5.3 2.2.3 1.2.9 2.3 1.3 3.5.1.2-.2.4-.3.2-.9-1.6-2.6-5.3-1.5-7.2.5-.9 1.3-.8 1.9-.2-.5-2-1.2-4.3-2.2-6.2-2.1 4.5-1 9.2.1 14.2 0 .2-.2.3-.3.1-1.4-4.6-2.7-10.7 0-14.5-1.2-2.2-2.8-3.9-4.7-3.8-.1.1-.2-.3 0-.3z" fill="#000000" stroke-width="none" opacity="1"></path></g></g><g id="svga-group-ears-right-move" transform="matrix(1,0,0,1,0,0)"><g id="svga-group-ears-right"><path id="SvgjsPath18028" d="M139.3 84.7s1.8-5 3.3-7.9 3.6-6.3 6.6-7.2 4 3.9 2.9 8.3-4.2 13.9-5 17.6c-.7 3.7-1.8 8.1-3.6 7.5s-7.1-7.7-4.2-18.3z" fill="#ffffff" stroke-width="none" opacity="1"></path><path id="SvgjsPath18029" d="M144 103.9c-.2 0-.4 0-.6-.1-2.2-.8-7.9-8.2-4.8-19.3v-.1c.1-.2 1.8-5.1 3.4-8 1.7-3.2 3.9-6.7 7.2-7.6 1.1-.3 2.2 0 2.9.7 1.5 1.5 1.9 5 1 8.6-.5 1.8-1.2 4.4-2.1 7.1-1.2 4.1-2.5 8.3-2.9 10.5-.8 4.2-1.7 7.2-3.2 8-.3.1-.6.2-.9.2zm-3.9-19c-2.9 10.4 2.6 16.8 3.8 17.2h.1c.7-.4 1.5-2.7 2.3-6.8.5-2.3 1.7-6.5 3-10.6.8-2.7 1.6-5.3 2-7 .8-2.9.5-5.9-.6-6.9-.3-.3-.8-.4-1.3-.3-2.7.7-4.6 3.9-6.1 6.7-1.3 2.6-3 7.3-3.2 7.7z" fill="#000000" stroke-width="none" opacity="1"></path><path id="SvgjsPath18030" d="M151.2 72.7c-1.9-.8-3.6 1.4-4.8 3.3-1.6 2.5-2.6 5.5-2.9 8.6v.2c0 .2 0 .5-.1.7 0 .2.2.2.2 0 .1-.4.2-.9.3-1.4.1-.1.1-.2.2-.3 1.2-.6 1.8-.3 1.8.8 0 .7-.2 1.5-.3 2.2-.3 1.2-.9 2.3-1.3 3.5-.1.2.2.4.3.2.9-1.6 2.6-5.3 1.5-7.2-.5-.9-1.3-.8-1.9-.2.5-2 1.2-4.3 2.2-6.2 2.1 4.5 1 9.2-.1 14.2 0 .2.2.3.3.1 1.4-4.6 2.7-10.7 0-14.5 1.2-2.2 2.8-3.9 4.7-3.8 0 .2.1-.2-.1-.2z" fill="#000000" stroke-width="none" opacity="1"></path></g></g><g id="svga-group-faceshape-wrap"><g id="svga-group-faceshape-single"><path id="SvgjsPath18105" d="M142.4 53.6c-2.3-11.4-15.1-28.8-42.4-28.8-27.3 0-36.4 13.4-40.5 23.3-2.5 6.2-3.2 15.2-3.4 19.7 0 0 1.5 43.2 3.1 47.1 1.6 3.9 9.4 7.3 15.3 13.5 6.6 6.9 11.3 19.1 13.6 18.7 8.8-1.5 10.7-1.6 20 0 6.4 1.1 9.8-9.7 13.5-14.8 5.3-7.2 15.5-12.2 18.4-16.4 2.9-4.2 3.7-48.2 3.7-48.2.1-3.1-.2-8.8-1.3-14.1z" fill="#ffffff" stroke-width="none" opacity="1"></path><path id="SvgjsPath18106" d="M109.1 148.5c-.4 0-.7 0-1.1-.1-9-1.6-10.8-1.6-19.6 0-1.9.3-3.5-2.4-6.4-7.2-2.2-3.8-5-8.5-8.2-11.8-2.6-2.8-5.7-5-8.4-7-3.5-2.5-6.2-4.5-7.2-6.9-1.7-4-3-43.1-3.2-47.5.2-4.8.9-13.8 3.4-20.1 6.6-16.2 20.1-24 41.5-24 12.3 0 23.2 3.6 31.3 10.4 6.3 5.2 10.9 12.5 12.2 19.3 1.1 5.5 1.3 11.4 1.4 14.4-.1 4.5-.9 44.5-3.9 48.8-1.4 2-4.1 4-7.3 6.4-3.9 2.9-8.3 6.1-11.1 10-.9 1.3-1.9 3-2.9 4.8-2.6 4.9-5.7 10.5-10.5 10.5zM98 145c2.8 0 5.7.4 10.3 1.2 3.9.7 6.8-4.6 9.4-9.3 1-1.9 2-3.6 3-5 3.1-4.2 7.6-7.6 11.6-10.5 3-2.2 5.6-4.2 6.8-5.9 2-2.9 3.2-30.7 3.5-47.6 0-3-.3-8.7-1.4-14-1.3-6.4-5.6-13.1-11.5-18-7.7-6.5-18-9.9-29.9-9.9-20.3 0-33.2 7.4-39.4 22.6-2.4 5.9-3.1 14.6-3.3 19.3.6 17.3 1.9 44 3 46.7.8 1.8 3.4 3.7 6.4 6 2.8 2 5.9 4.3 8.7 7.2 3.4 3.5 6.2 8.4 8.5 12.2 1.5 2.6 3.4 5.7 4.2 6.1 4.6-.7 7.4-1.1 10.1-1.1z" fill="#000000" stroke-width="none" opacity="1"></path></g></g><g id="svga-group-mouth-single-move" transform="matrix(1,0,0,1,0,0)"><g id="svga-group-mouth-single"><path id="SvgjsPath18376" d="M112.42 122.55c-.04-.01-.07-.03-.12-.02-2.46.58-3.17-3.32-4.09-4.73-.67-1.01-1.54-1.9-2.7-2.33-.79-.29-1.63-.35-2.45-.11-.54.16-.96.51-1.46.74-1.41.66-2.15.56-3.41-.1-5.77-3.01-7.22 5.68-11.64 7.19-.22.07-.66-.03-.94-.14-.38-.1-.35.36-.05.55.25.15.75.34.98.39 1.55.34 3.11.26 4.56-.19 1.08 4.03 6.58 3.09 9.69 2.99 2.66-.09 8.54.43 8.52-3.59 1.13.33 2.2.55 3.22-.2.21-.16.08-.47-.11-.45zm-12.31 3.79c-2.81.1-7.62.89-8.56-2.71a8.95 8.95 0 0 0 3.7-2.55v-.01c2.99 1.36 6.65 2.37 9.34.26 1.38.67 2.8 1.25 4.27 1.71.14 3.91-6.22 3.21-8.75 3.3zm9.14-3.54c-.06-.02-.11-.02-.21-.05-1.51-.43-3.06-1.24-4.07-1.74.16-.15.33-.31.48-.49.19-.23-.13-.55-.33-.33-2.77 3.21-7.03 1.76-10.25.2-.27-.13-.5.27-.23.4.05.03.11.05.16.08-2.02 2.27-4.97 3.26-7.9 2.7 2.1-.74 3.27-2.71 4.55-4.51 1.09-1.55 2.59-3.36 4.72-3.28 1.41.06 2.28 1.32 3.64 1.4 1.3.08 2.2-1.01 3.37-1.37 2.37-.72 4.24 1.37 5.2 3.24.72 1.41 1.29 3.54 2.86 3.94-.6.08-1.28 0-1.99-.19z" fill="#000000" stroke-width="none" opacity="1"></path></g></g><g id="svga-group-eyes-left-move" transform="matrix(1,0,0,1,2,0)"><g id="svga-group-eyes-left"><g id="svga-group-eyesback-left"></g><g id="svga-group-eyesiriswrapper-left"><g id="svga-group-eyesiriscontrol-left" transform="matrix(1,0,0,1,0,0)"><g id="svga-group-eyesiris-left"><path id="SvgjsPath18140" d="M83.8 89.7c1.1-2 .1-4.9-1.7-6.1-2-1.3-4.8-.9-6.3 1.3-.8 1.2-1.2 2.8-.6 4.1.2.4.8 1.9 2 2.5 2.3 1.2 5.3.6 6.6-1.8z" fill="#ffffff" stroke-width="none" opacity="1"></path><path id="SvgjsPath18141" d="M80.9 88.7c.3 0 .5.1.6.3.3-.3.4-.7.4-1.2s-.2-.9-.5-1.2c-.2-.6-.7-1.1-1.4-1.3-.4-.1-.8-.1-1.2 0 .2.7-.1 1.5-.8 1.9-.3.2-.7.3-1.1.2-.1.7.2 1.5.8 2 .7.6 1.7.7 2.4.3-.1-.3.1-1 .8-1zm3.1-2.6c-.2-.6-.4-1.2-.8-1.7-.2-.3-.4-.5-.6-.8-.2-.2-.5-.4-.8-.6-.6-.3-1.2-.6-1.9-.7s-1.4-.1-2.1.1c-.7.2-1.3.5-1.8 1-.5.4-1 1-1.3 1.6-.3.6-.5 1.3-.6 2-.1.7.1 1.5.4 2.1.3.6.6 1.2 1.1 1.7.2.2.5.5.8.7.2.1.3.2.5.3.1 0 .2.1.2.1.1 0 .2.1.2.1 1.2.4 2.6.4 3.8 0 .6-.2 1.1-.5 1.6-.9s.8-.9 1.1-1.4c-.1.3-.3.5-.5.8-.2.2-.4.4-.7.6-.5.4-1 .6-1.6.8s-1.2.1-1.8 0-1.1-.3-1.6-.6c-.1 0-.1-.1-.2-.1s-.1-.1-.2-.1c-.1-.1-.2-.2-.3-.2-.2-.2-.3-.4-.5-.6s-.3-.5-.4-.7-.2-.5-.3-.8c-.2-.6-.2-1.3 0-1.9-.2-.3-.3-.6-.3-.9 0-1.1 1.1-2 2.2-1.7.2-.2.5-.3.7-.4 1-.4 2.1-.4 3.2 0 1 .4 1.9 1.3 2.3 2.4.2.6.3 1.2.3 1.8 0 .6-.1 1.2-.4 1.8.3-.5.4-1.2.5-1.8.1-.8 0-1.4-.2-2z" fill="#000000" stroke-width="none" opacity="1"></path></g></g></g><g id="svga-group-eyesfront-left"><path id="SvgjsPath18071" d="M79 72.1c-8.2 0-14.8 6.6-14.8 14.8s6.6 14.8 14.8 14.8 14.8-6.6 14.8-14.8c0-8.1-6.6-14.8-14.8-14.8zM84.4 93c-4.5 1.4-10-.2-12.8-2.1C68.9 89 67 86 67 86c9.1-2.2 13.6-.3 17 1.1s5 4.1 5 4.1-.1.4-4.6 1.8z" fill="#ffffff" stroke-width="none" opacity="1"></path><path id="SvgjsPath18072" d="M90.3 92.1c-2.1-6.9-5.3-10.9-9.6-12-7.4-1.9-15.1 5.6-15.4 5.9-.2.2-.2.5-.1.7s.4.3.6.3c12.7-3.7 19.6 1.4 22.2 4.1-2.2 1.1-13 5.7-19.8-4.2-.2-.3-.5-.3-.8-.1-.3.2-.3.5-.1.8 3.6 5.2 8.2 6.7 12.3 6.7 4.5 0 8.4-1.8 9.2-2.2.3.4.5.6.5.6.1.2.3.3.5.3h.2c.3-.3.4-.6.3-.9zM69.1 85c.4-.3.8-.8.9-.8.4-.4.9-.7 1.3-1.1.4-.2.9-.5 1.3-.7-.5.4-1 .9-1.5 1.3-.4.4-.8.8-1.1 1.2-.3 0-.6 0-.9.1zm1.8-.3.7-.7c.6-.5 1.1-1.1 1.5-1.7.1-.1 0-.2-.1-.2.8-.4 1.7-.7 2.6-.9-.6.4-1.2.9-1.7 1.4-.7.6-1.3 1.2-1.9 1.9-.4.1-.7.1-1.1.2zm3.6-.2c.9-.8 1.9-1.6 2.6-2.6.1-.2-.1-.4-.3-.3-1.2.8-2.2 1.9-3.2 2.9h-.9c.5-.4.9-.9 1.4-1.3.8-.7 1.6-1.3 2.3-2v-.1c.6-.1 1.2-.2 1.8-.2.7 0 1.5.1 2.2.3 3.3.9 5.9 3.7 7.8 8.5-2.2-2.2-6.6-5.2-13.7-5.2z" fill="#000000" stroke-width="none" opacity="1"></path></g></g></g><g id="svga-group-eyes-right-move" transform="matrix(1,0,0,1,-2,0)"><g id="svga-group-eyes-right"><g id="svga-group-eyesback-right"></g><g id="svga-group-eyesiriswrapper-right"><g id="svga-group-eyesiriscontrol-right" transform="matrix(1,0,0,1,0,0)"><g id="svga-group-eyesiris-right"><path id="SvgjsPath18142" d="M125.8 89.7c1.1-2 .1-4.9-1.7-6.1-2-1.3-4.8-.9-6.3 1.3-.8 1.2-1.2 2.8-.6 4.1.2.4.8 1.9 2 2.5 2.3 1.2 5.3.6 6.6-1.8z" fill="#ffffff" stroke-width="none" opacity="1"></path><path id="SvgjsPath18143" d="M122.9 88.7c.3 0 .5.1.6.3.3-.3.4-.7.4-1.2s-.2-.9-.5-1.2c-.2-.6-.7-1.1-1.4-1.3-.4-.1-.8-.1-1.2 0 .2.7-.1 1.5-.8 1.9-.3.2-.7.3-1.1.2-.1.7.2 1.5.8 2 .7.6 1.7.7 2.4.3 0-.3.2-1 .8-1zm3.2-2.6c-.2-.6-.4-1.2-.8-1.7-.2-.3-.4-.5-.6-.8-.2-.2-.5-.4-.8-.6-.6-.3-1.2-.6-1.9-.7s-1.4-.1-2.1.1c-.7.2-1.3.5-1.8 1-.5.4-1 1-1.3 1.6-.3.6-.5 1.3-.6 2-.1.7.1 1.5.4 2.1.3.6.6 1.2 1.1 1.7.2.2.5.5.8.7.2.1.3.2.5.3.1 0 .2.1.2.1.1 0 .2.1.2.1 1.2.4 2.6.4 3.8 0 .6-.2 1.1-.5 1.6-.9s.8-.9 1.1-1.4c-.1.3-.3.5-.5.8-.2.2-.4.4-.7.6-.5.4-1 .6-1.6.8s-1.2.1-1.8 0-1.1-.3-1.6-.6c-.1 0-.1-.1-.2-.1s-.1-.1-.2-.1c-.1-.1-.2-.2-.3-.2-.2-.2-.3-.4-.5-.6s-.3-.5-.4-.7-.2-.5-.3-.8c-.2-.6-.2-1.3 0-1.9-.2-.3-.3-.6-.3-.9 0-1.1 1.1-2 2.2-1.7.2-.2.5-.3.7-.4 1-.4 2.1-.4 3.2 0 1 .4 1.9 1.3 2.3 2.4.2.6.3 1.2.3 1.8 0 .6-.1 1.2-.4 1.8.3-.5.4-1.2.5-1.8 0-.8-.1-1.4-.2-2z" fill="#000000" stroke-width="none" opacity="1"></path></g></g></g><g id="svga-group-eyesfront-right"><path id="SvgjsPath18073" d="M121 72.1c-8.2 0-14.8 6.6-14.8 14.8s6.6 14.8 14.8 14.8 14.8-6.6 14.8-14.8c0-8.1-6.6-14.8-14.8-14.8zm6.8 18.8c-2.8 1.9-8.3 3.5-12.8 2.1s-4.6-1.7-4.6-1.7 1.6-2.7 5-4.1 7.9-3.3 17-1.1c.1-.1-1.8 2.9-4.6 4.8z" fill="#ffffff" stroke-width="none" opacity="1"></path><path id="SvgjsPath18076" d="M134.2 85.9c-.3-.3-8.1-7.8-15.4-5.9-4.3 1.1-7.5 5.2-9.6 12-.1.3.1.6.3.7h.2c.2 0 .4-.1.5-.3 0 0 .2-.3.5-.6.8.4 4.7 2.2 9.2 2.2 4.1 0 8.7-1.5 12.3-6.7.2-.3.1-.6-.1-.8s-.6-.1-.8.1c-6.8 10-17.6 5.3-19.8 4.2 2.6-2.7 9.5-7.9 22.2-4.1.2.1.5 0 .6-.3.1 0 .1-.3-.1-.5zm-21.6 2.6c-.1.1-.3.2-.4.3.1-.6.2-1.2.2-1.8.1-.1.1-.2.2-.3 0 .6-.1 1.2 0 1.8zm.6-.4v-2.2c.1-.2.2-.3.3-.5-.1.8-.1 1.6.2 2.4-.2.1-.4.2-.5.3zm1-.7c.1-1 0-2 0-2.9.3-.4.7-.7 1-1.1-.1 1.1-.2 2.3.1 3.4-.4.2-.8.4-1.1.6zm1.4-.8c.1-1.2 0-2.4 0-3.6.3-.2.6-.5.9-.7 0 1.1 0 2.2.2 3.2 0 .2.3.1.3 0 .1-1.1-.1-2.1-.2-3.2 0-.1-.1-.1-.1-.1.5-.3 1-.6 1.5-.8 0 1.3 0 2.7.4 4-1.1.4-2.1.8-3 1.2zm3.4-1.3c.1-1.3-.2-2.7-.6-4 .2-.1.4-.1.6-.2.7-.2 1.5-.3 2.2-.3 4.1 0 8.1 2.6 10.3 4.3-5.1-1.1-9.3-.7-12.5.2z" fill="#000000" stroke-width="none" opacity="1"></path></g></g></g><g id="svga-group-facehighlight-single"></g><g id="svga-group-eyebrows-left-move" transform="matrix(1,0,0,1,0,0)"><g id="svga-group-eyebrows-left-rotate" transform="matrix(0.9978589415550232,-0.06540313363075256,0.06540313363075256,0.9978589415550232,-4.650238037109375,5.216280460357666)"><g id="svga-group-eyebrows-left"><path id="SvgjsPath17983" d="M63.38 74.47c.22-.18 5.53-4.4 8.18-4.68 2.64-.28 18.4 3.81 19.44 5.45.47.75.57 1.33.28 1.75-.23.33-.68.5-1.35.5-.44 0-.98-.07-1.61-.21-1.05-.23-3.78-1.19-6.94-2.29-4.07-1.43-8.69-3.04-9.81-3.12-1.58-.1-6.16 2.28-7.79 3.21-.16.09-.37.04-.48-.11a.408.408 0 0 1 .08-.5z" fill="#000000" stroke-width="none" opacity="1"></path></g></g></g><g id="svga-group-eyebrows-right-move" transform="matrix(1,0,0,1,0,0)"><g id="svga-group-eyebrows-right-rotate" transform="matrix(0.9914448857307434,-0.13052619993686676,0.13052619993686676,0.9914448857307434,-8.561735153198242,16.639524459838867)"><g id="svga-group-eyebrows-right"><path id="SvgjsPath17984" d="M136.62 74.47c-.22-.18-5.53-4.4-8.18-4.68-2.64-.28-18.4 3.81-19.44 5.45-.47.75-.57 1.33-.28 1.75.23.33.68.5 1.35.5.44 0 .98-.07 1.61-.21 1.05-.23 3.78-1.19 6.94-2.29 4.07-1.43 8.69-3.04 9.81-3.12 1.58-.1 6.16 2.28 7.79 3.21.16.09.37.04.48-.11.09-.17.06-.38-.08-.5z" fill="#000000" stroke-width="none" opacity="1"></path></g></g></g><g id="svga-group-beardwrap"><g id="svga-group-beard-single-move" transform="matrix(1,0,0,1,0,0)"><g id="svga-group-beard-single"></g></g></g><g id="svga-group-mustache-single-move" transform="matrix(1,0,0,1,0,0)"><g id="svga-group-mustache-single"></g></g><g id="svga-group-nose-single-move" transform="matrix(1,0,0,1,0,-3)"><g id="svga-group-nose-single"><path id="SvgjsPath18185" d="M95.47 97.69s-3.62-.07-5.76 1.99c-2.13 2.06-2.42 5.9 4.62 5.68 0 0 1.56 3.91 4.9 4.9 3.34.99 4.9-1.92 5.4-2.98.5-1.07.92-2.7.92-2.7s3.41.07 4.26-.57c.85-.64 1.85-2.7.99-4.26s-3.41-2.2-5.76-2.06c-2.33.14-6.38.42-9.57 0z" fill="#ffffff" stroke-width="none" opacity="1"></path><path id="SvgjsPath18186" d="M107.51 97.47c-.68.03-.69 1.09 0 1.06 1.68-.07 3.15 1.1 3.1 2.87-.04 1.22-.82 2.08-1.84 2.44.35-.19.4-.83-.1-1-.83-.28-1.69-.07-2.35.48-.46.38.05.99.54.86-.19.29-.05.83.42.88 2.23.25 4.33-1.35 4.39-3.67.06-2.32-1.9-4.02-4.16-3.92zm-.23 6.53h-.11c.36-.25.8-.28 1.22-.14.08.03.15.03.21.03-.42.12-.87.16-1.32.11z" fill="#000000" stroke-width="none" opacity="1"></path><path id="SvgjsPath18187" d="M104.98 102.29c.62 2.89-1.92 8.47-5.56 7.33-3.75-1.19-5.89-5.91-4.71-9.51.57-1.73 1.52-3.32 2.02-5.08.48-1.68.38-3.36-.05-5.04-.87-3.39-3.9-9.25.67-11.36.62-.29.08-1.2-.54-.92-3.18 1.47-3.33 5.29-2.52 8.24.58 2.12 1.6 4.17 1.7 6.39.1 2.16-.92 4.07-1.74 6-.63 1.49-1.2 3.08-.99 4.72.02.17.05.34.08.51-.65-.47-1.45-.65-2.23-.39-.65.22-.37 1.24.28 1.03.44-.15.93-.11 1.31.19.06.05.12.08.18.11h-.04c-1.68.1-4.15.01-4.05-2.29.08-1.84 1.98-2.81 3.49-3.31.65-.22.37-1.24-.28-1.03-2.13.71-4.42 2.17-4.27 4.72.15 2.71 2.97 3.1 5.12 2.97.59-.03.67-.83.24-1.02.13 0 .26-.04.36-.15.03-.03.05-.05.07-.09.33 1.16.91 2.28 1.59 3.24 1.7 2.4 4.84 4.3 7.62 2.5 2.39-1.54 3.85-5.31 3.26-8.06-.13-.65-1.16-.36-1.01.3z" fill="#000000" stroke-width="none" opacity="1"></path></g></g><g id="svga-group-hair-front"><path id="SvgjsPath18228" d="M76.9 39.3s-9.6.7-12.1 11.2c-2.2 9.4 2.8 64-18.3 77.1 0 0 9.8-12.5 8.6-26.8-1.2-14.3-2.7-40.4-1.5-52S60.7 29.5 72 26.5c0 0 2.7-14.3 27.9-16.6s36 9.8 42.2 22.6 4.8 28.5 2.1 49.9-3.6 37.2 5.6 46.7c0 0-11.9-2.7-16.1-19.9s9.6-33.6 1.6-57.1c-4.4-12.9-10.8-14.8-14.6-13.1-3.7 1.8-21.5 8.1-43.8.3z" fill="#ffffff" stroke-width="none" opacity="1"></path><path id="SvgjsPath18229" d="M150.7 128.4c-9.1-9.4-7.9-25.6-5.4-45.9 2.8-22.1 4.1-37.6-2.2-50.5-5.4-11.1-15.8-25.7-43.1-23.1-23 2.2-27.8 13.9-28.7 16.8-11.1 3.1-17.4 10.9-18.6 23-1.3 12.2.4 39.5 1.5 52.2 1.1 13.7-8.3 25.9-8.4 26.1-.3.4-.3.9 0 1.3s.9.4 1.3.2C63.7 118.2 64.5 84.1 65 63.7c.2-6 .3-10.8.8-12.9 2.1-9 9.6-10.3 11-10.4 24.8 8.5 43.7 0 44.5-.4 1-.4 2.5-.8 4.5 0 2.4 1 5.9 4 8.7 12.4 4.4 13 2.1 23.5-.1 33.8-1.7 7.9-3.4 15.5-1.5 23.2 4.3 17.6 16.3 20.5 16.8 20.7h.2c.4 0 .7-.2.9-.5.3-.4.2-.9-.1-1.2zM88.9 13.1c-7.7 5.1-12.3 14.1-11.3 24.1-2.4-3.5-3.8-7.4-4.1-11.7 1-2.7 4.5-8.9 15.4-12.4zM51.2 122.2c2.7-5.1 5.7-12.9 5-21.4C55.1 88.1 53.5 61 54.7 49c1.2-11.4 7.1-18.6 17.7-21.4h.1c.5 3.2 1.5 6.2 3.1 8.9-9.4-4.3-17.3 6.6-18.5 15.4-2.3 17 6.8 33.5 2.4 50.4v.3c-1.7 7.7-4.3 14.7-8.3 19.6zm12.6-71.9c-.6 2.3-.7 6.9-.8 13.3-.2 6.8-.4 15.3-1.2 23.8-.5-6-1.7-12.1-2.6-18.1-1.1-6.8-2-14.3-.1-21.1 2.2-7.4 9.7-14.6 17.4-9.8-1.5.2-10.3 1.8-12.7 11.9zm25.2-9c-7.1-11.3 8.2-20.6 17.7-22.4 9.9-1.8 19.2 1.3 25.9 8.1-5.3-3.9-11.8-5.8-18.5-3.6-7.8 2.5-12.5 10.7-9.8 18.5-4.4.4-9.6.3-15.3-.6zm31.5-3.2c-.4.2-6 2.7-14.9 3.6-3.1-8.7 3.5-16.9 12.3-17.8 8-.9 14.8 3.5 19.7 9.4 9.1 15 5.6 33-.2 49 1-5.1 1.9-10.6 1.7-16.6l.2-.2c3.6-7.7 4.4-17.7-.9-24.8-3.8-5.1-10.6-6.8-15.8-3.2-.9.2-1.5.4-2.1.6zm16 13.7c-3.1-9.1-7.1-12.4-9.8-13.6-.6-.3-1.3-.4-1.9-.6 6.4-3 13.1 2.6 15.1 9 1.8 5.5 1.2 11.3-.9 16.6-.5-3.6-1.2-7.4-2.5-11.4zm-1.6 57.2c-1.5-6.3-.6-12.5.8-19.1 8.6-21.4 15.7-50.2-5.4-66.7-9-7.1-21-7.8-31.4-3.2-8 3.6-16.2 12.2-11.6 21-2.7-.5-5.5-1.2-8.4-2.1v-.3c-2-12 4.7-23 15.3-27 1.8-.3 3.7-.6 5.8-.8 25.8-2.4 35.6 10.5 41.2 22 6 12.4 4.7 27.6 2 49.4-2.3 18.7-3.5 34 3.3 44.2-3.5-2-9-6.9-11.6-17.4z" fill="#000000" stroke-width="none" opacity="1"></path></g><g id="svga-group-glasses-single-move" transform="matrix(1,0,0,1,0,0)"><g id="svga-group-glasses-single"></g></g></g></g></g><rect id="svga-credit-rect" width="200" height="15" x="0" y="185" fill="#ecf0f1" opacity="0.5" style="display: none;"></rect><text id="svga-credit-text" font-family="Avenir Next, Roboto, Helvetica, Arial, sans-serif" font-size="10px" text-anchor="start" font-weight="400" size="10px" anchor="start" weight="400" fill="#333333" x="33.298973083496094" y="182.60824728012085" style="display: none;"><tspan id="SvgjsTspan17977" dy="13" x="33.298973083496094">Created on AvatarMaker.com</tspan></text></g><defs id="SvgjsDefs17924"></defs></svg>
