<svg xmlns="http://www.w3.org/2000/svg" version="1.1" width="600px" height="600px" viewBox="0 0 200 200" style="overflow:hidden!important;"><g id="svga-group-wrapper"><g id="svga-group-backs-single"><path id="SvgjsPath9428" d="M0 0h200v200H0V0z" fill="#ecf0f1" stroke-width="none" opacity="1"></path><path id="SvgjsPath9429" d="m156.3 131.2-16.8-.4-17 .6c-.7 0-8.8-.3-9.4-.2-9.8 1.2-14.9.6-20.8 0l-10.9-.1c-1.5 0-3.5-1.6-3.5-3.6l.1-5.6c1-5.5-.2-9.4-.2-14.7l.2-3.6c0-1.5 2.3-2.3 5.1-2.4l7.5.2c3.7-.1 9.6.8 12 .3l11-.5c3.8-.2 10.8-.8 20.5-.5 0 0 10.3 0 19.3.2l5.6-.1c1.5 0 3.2 1.2 3.2 2.7v5c-.1 3.3.1 5.9.1 10.1l.2 5.5-.4 3.4c-.1 2.5-3.8 4.1-5.8 3.7zm-43.4-33.4-16.8-.4-17 .6c-.7 0-8.8-.3-9.4-.2-9.8 1.2-14.9.6-20.8 0L38 97.7c-1.5 0-3.5-1.6-3.5-3.6v-5.6c1-5.5-.2-9.4-.2-14.7l.2-3.6c0-1.5 2.3-2.3 5.1-2.4l7.5.2c3.7-.1 9.6.8 12 .3l11-.5c3.8-.2 10.8-.8 20.5-.5 0 0 10.3 0 19.3.2l5.6-.1c1.5 0 3.2 1.2 3.2 2.7v5c-.1 3.3.1 5.9.1 10.1l.2 5.5-.4 3.4c0 2.5-3.6 4.1-5.7 3.7zm43.4-32.4-16.8-.4-17 .6c-.7 0-8.8-.3-9.4-.2-9.8 1.2-14.9.6-20.8 0l-10.9-.1c-1.5 0-3.5-1.6-3.5-3.6l.1-5.6c1-5.5-.2-9.4-.2-14.7l.2-3.6c0-1.5 2.3-2.3 5.1-2.4l7.5.2c3.7-.1 9.6.8 12 .3l11-.5c3.8-.2 10.8-.8 20.5-.5 0 0 10.3 0 19.3.2l5.6-.1c1.5 0 3.2 1.2 3.2 2.7v5c-.1 3.3.1 5.9.1 10.1l.2 5.5-.3 3.4c-.2 2.5-3.9 4.1-5.9 3.7zm-43.4-33.3-16.8-.4-17 .6c-.7 0-8.8-.3-9.4-.2-9.8 1.2-14.9.6-20.8 0L38 32c-1.5 0-3.5-1.6-3.5-3.6v-5.6c1-5.5-.2-9.4-.2-14.7l.2-3.6c0-1.5 2.3-2.3 5.1-2.4l7.5.2c3.7-.1 9.6.8 12 .3l11-.5c3.8-.2 10.8-.8 20.5-.5 0 0 10.3 0 19.3.2l5.6-.1c1.5 0 3.2 1.2 3.2 2.7v5c-.1 3.3.1 5.9.1 10.1l.2 5.5-.4 3.4c0 2.5-3.6 4-5.7 3.7zm43.4 166.2-16.8-.4-17 .6c-.7 0-8.8-.3-9.4-.2-9.8 1.2-14.9.6-20.8 0l-10.9-.1c-1.5 0-3.5-1.6-3.5-3.6l.1-5.6c1-5.5-.2-9.4-.2-14.7l.2-3.6c0-1.5 2.3-2.3 5.1-2.4l7.5.2c3.7-.1 9.6.8 12 .3l11-.5c3.8-.2 10.8-.8 20.5-.5 0 0 10.3 0 19.3.2l5.6-.1c1.5 0 3.2 1.2 3.2 2.7v5c-.1 3.3.1 5.9.1 10.1l.2 5.5-.4 3.4c-.1 2.5-3.8 4.1-5.8 3.7zM112.9 165l-16.8-.4-17 .6c-.7 0-8.8-.3-9.4-.2-9.8 1.2-14.9.6-20.8 0l-10.9-.1c-1.5 0-3.5-1.6-3.5-3.6v-5.6c1-5.5-.2-9.4-.2-14.7l.2-3.6c0-1.5 2.3-2.3 5.1-2.4l7.5.2c3.7-.1 9.6.8 12 .3l11-.4c3.8-.2 10.8-.8 20.5-.5 0 0 10.3 0 19.3.2l5.6-.1c1.5 0 3.2 1.2 3.2 2.7v5c-.1 3.3.1 5.9.1 10.1l.2 5.5-.4 3.4c0 2.4-3.6 4-5.7 3.6zM25.7 97.8c2.1.4 5.7-1.2 5.7-3.7l.4-3.4-.2-5.5c.1-4.2-.1-6.8-.1-10.1v-5c0-1.5-1.8-2.7-3.2-2.7l-5.6.1c-9-.2-19.3-.2-19.3-.2H.1v30.5l8.8-.3 16.8.3zm5.8 39.5c0-1.5-1.8-2.7-3.2-2.7l-5.6.1c-9-.2-19.3-.2-19.3-.2-1.2 0-2.2-.1-3.3-.1v30.5l8.8-.3 16.8.4c2.1.4 5.7-1.2 5.7-3.7l.4-3.4-.2-5.5c.1-4.2-.1-6.8-.1-10.1v-5zM14.9 35.9c-2.4.4-8.3-.4-12-.3L0 35.5v29.9l4.6.1c5.9.6 11 1.2 20.8 0 .7-.1 8.8.2 9.5.2l17-.6 16.8.4c2.1.4 5.7-1.2 5.7-3.7l.4-3.4-.2-5.5c.1-4.2-.1-6.8-.1-10.1v-5c0-1.5-1.8-2.7-3.2-2.7l-5.6.1c-9-.2-19.3-.2-19.3-.2-9.7-.3-16.7.3-20.5.5l-11 .4zm59.6 72.6v-5c0-1.5-1.8-2.7-3.2-2.7l-5.6.1c-9-.2-19.3-.2-19.3-.2-9.7-.3-16.7.3-20.5.5l-11 .5c-2.4.4-8.3-.4-12-.3l-2.9-.1v29.9l4.6.1c5.9.6 11 1.2 20.8 0 .7-.1 8.8.2 9.5.2l17-.6 16.8.4c2.1.4 5.7-1.2 5.7-3.7l.4-3.4-.2-5.5c0-4.2-.2-6.8-.1-10.2zm0 67.2v-5c0-1.5-1.8-2.7-3.2-2.7l-5.6.1c-9-.2-19.3-.2-19.3-.2-9.7-.3-16.7.3-20.5.5l-11 .5c-2.4.4-8.3-.4-12-.3l-2.9-.2v29.9l4.6.1c5.9.6 11 1.2 20.8 0 .7-.1 8.8.2 9.5.2l17-.6 16.8.4c2.1.4 5.7-1.2 5.7-3.7l.4-3.4-.2-5.5c0-4.2-.2-6.8-.1-10.1zM0 32l8.8-.3 16.8.4c2.1.4 5.7-1.2 5.7-3.7l.4-3.4-.2-5.5c.1-4.2-.1-6.8-.1-10.1v-5c0-1.5-1.8-2.7-3.2-2.7l-5.6.1c-9-.2-19.3-.2-19.3-.2-1.1 0-2.2-.1-3.3-.1V32zm169.4 33.3 10.9.1c5.7.6 10.4.6 19.7-.5V35.4l-9-.4c-2.4.4-7.8-.1-11.5 0l-8.4.4c-2.8 0-5.1.9-5.1 2.4l-.2 3.6c0 5.3-1 10.2.2 14.7l-.1 5.6c0 2 2 3.6 3.5 3.6zm0 65.8 10.9.1c5.7.6 10.4.5 19.7-.6v-29.5l-9.1-.4c-2.4.4-7.8-.1-11.5 0l-8.4.4c-2.8.1-5.1.9-5.1 2.4l-.2 3.6c0 5.3-1 10.2.2 14.7l-.1 5.6c.1 2 2.1 3.7 3.6 3.7zM122.1 22.7l-.1 5.6c0 2 2 3.6 3.5 3.6l10.9.1c5.9.6 11 1.2 20.8 0 .7-.1 8.8.2 9.4.2l17-.6 16.4.4V1.8h-2.6c-9-.2-19.3-.2-19.3-.2-9.7-.3-16.7.3-20.5.5l-11 .5c-2.4.4-8.3-.4-12-.3l-7.5-.3c-2.8 0-5.1.9-5.1 2.4l-.1 3.6c0 5.4 1.2 9.2.2 14.7zm0 65.8-.1 5.6c0 2 2 3.6 3.5 3.6l10.9.1c5.9.6 11 1.2 20.8 0 .7-.1 8.8.2 9.4.2l17-.6 16.4.3V67.5l-2.6.1c-9-.2-19.3-.2-19.3-.2-9.7-.3-16.7.3-20.5.5l-11 .5c-2.4.4-8.3-.4-12-.3l-7.5-.2c-2.8.1-5.1.9-5.1 2.4l-.2 3.6c.1 5.2 1.3 9.1.3 14.6zm77.9 79.8-9.1-.4c-2.4.4-7.8-.1-11.5 0l-8.4.4c-2.8.1-5.1.9-5.1 2.4l-.2 3.6c0 5.3-1 10.2.2 14.7l-.1 5.6c0 2 2 3.6 3.5 3.6l10.9.1c5.7.6 10.4.5 19.7-.6l.1-29.4zm-16.4-3.7 16.4.4v-30.3l-2.6.1c-9-.2-19.3-.2-19.3-.2-9.7-.3-16.7.3-20.5.5l-11 .5c-2.4.4-8.3-.4-12-.3l-7.5-.2c-2.8.1-5.1.9-5.1 2.4l-.2 3.6c0 5.3 1.2 9.2.2 14.7l-.1 5.6c0 2 2 3.6 3.5 3.6l10.9.1c5.9.6 11 1.2 20.8 0 .7-.1 8.8.2 9.4.2l17.1-.7z" fill="#c6dce2" stroke-width="none" opacity="1"></path><path id="SvgjsPath9430" d="M34.5 22.7v5.6c0 2 2 3.6 3.5 3.6l10.9.1c5.9.6 11 1.2 20.8 0 .7-.1 8.8.2 9.4.2l17-.6 16.8.4c1.3.2 3.3-.3 4.5-1.4-.8 0-1.7-.3-2.6-.3-1.4 0-6.2-1.1-9.3-1.6-1.3-1.2-2.9-2-4.7-1.7-1.3.2-2.3.8-3.8 1-2.1.3-4.2-.1-6.3-.5-2.2-.4-4.2-.8-6.4-.8-.1 0-.1.1 0 .1 4.1.2 7.9 1.8 11.9 1.9 1.4 0 2.7-.5 4-.5.9 0 1.6.1 2.3.3-6.4 0-22.2.9-24.5 1.6-2.7.7-12.6.7-15.9-.7-3.4-1.5-20.3 0-21.7-.2-1.5-.2-1.7-2.7-1-7 .2-1.2.2-2.6.1-4.2.5.2.9.3 1.4.3 1.4 0 3-.9 4.2-1.5 2.2-1.1 4.4-2.2 6.5-3.5.1-.1 0-.2-.1-.2-2.5 1.3-5 2.4-7.7 3.2-1.3.4-2.7 1.1-4.1.5-.1 0-.2-.1-.3-.1-.3-4.1-1.2-8.7-1.5-10.9-.1-.7-.1-1.4 0-2 3.9-1.4 8.2 1 12.1 1.5 3.2.4 6.3.1 9.5-.4.2 0 .1-.3 0-.3-2.5.2-5 .4-7.6.1-2.7-.3-5.2-1.3-7.8-1.8-2-.4-3.9-.7-5.7 0 .1-.3.2-.6.3-.8-2.4.2-4.2 1-4.2 2.3L34.3 8c0 5.4 1.2 9.2.2 14.7zm71.2 39.6c-1.9-1-8.3.3-10.8 1-2.3.6-8.8-.6-11.6-1.8 2.3-.1 4.6-.5 6.4-1.7.1-.1.1-.4-.1-.4-2.6.3-4.9 1.1-7.5 1.3-1.5-1.7-1.2-7.2-.9-9.9.3-2.9-1.3-7.3-1.6-10.5-.2-1.8-.1-3.3.1-4.4-1.1.4-1.8 1-1.8 1.8l-.2 3.6c0 5.3 1.2 9.2.2 14.7l-.1 5.6c0 2 2 3.6 3.5 3.6l10.9.1c5.9.6 11 1.2 20.8 0 .7-.1 8.8.2 9.4.2l17-.6 16.8.4c1.5.3 3.8-.5 5-1.9h-.5c-2.2 0-3.5-1-5.4-1.6-.6-.2-2.2-.1-4.1.2-1.7-1.6-4.1-2.3-6.4-2-1.9.2-3.5 1.3-5.4 1.4-2 0-3.4-.7-5.4-.3-.1 0-.1.2 0 .2 2.5 0 4.9 1 7.3.4 3.4-.8 5.6-.9 8.6.4-3.7.6-8.1 1.4-9.6 1.2-2.6-.3-4.1.3-7 .3s-19.8-.3-22-.6c-2.1-.1-3.7.2-5.6-.7zm-1.2 33c-.4-.1-1.3-.1-2.5-.2.1-.5-.1-1.1-.5-1.4-.5-.4-1.6-.7-1.9.1-.1.2 0 .5.3.5s.7-.1 1-.1c.4.1.6.5.5.9-7.1-.1-22.9.5-25.5.5-3.1 0-16.7-.3-24.6.6s-12.5-2.3-13-3.4c-.1-.2-.2-.4-.2-.8 1.4-.4 2.9-.3 4.4-.2 2.1.1 4.2-.5 6.2-.3.8.1 1.4.6 2.2.4 1-.2 2-1.2 2.7-1.8 0 0 0-.1-.1-.1-1.3 1.1-1.8 1.5-3.4 1.2-.3-.1-.5-.5-.8-.5-2.2-.3-4.4.2-6.7-.1-1.7-.2-3.3-.3-4.7.2-.2-2.1-.2-5.2-.2-7.2 0-.4 0-.9-.1-1.4 2.9.4 5.8-2.4 8.7-2 .1 0 .1-.1 0-.2-1.7-.5-3.3.1-4.8.6 0-.1-.1-.2-.2-.2-1.4-.1-2.7 0-4-.3-.4-2.6-1.1-5.6-1.1-7.7 0-1.7-.6-2.8-1.3-3.5-.3.3-.5.7-.5 1.1l-.2 3.6c0 5.3 1.2 9.2.2 14.7v5.6c0 2 2 3.6 3.5 3.6l10.9.1c5.9.6 11 1.2 20.8 0 .7-.1 8.8.2 9.4.2l17-.6 16.8.4c1.6.3 4.1-.6 5.2-2.1-1.1.3-2.7.7-3.7.7-1.5.2-7.2-.4-9.8-.9zm13.8 34.8c-4.4-.3-7.3-.3-10.8-3.2-.1-.1-.3-.2-.4-.3 1-.2 2.1-.2 3.2.1 1 .3 1.9.8 3 .9 2.8.3 5.6-.5 8-1.7.4-.2.1-.8-.3-.7-1.8.4-3.5 1-5.4 1.2-2.2.3-3.5-.5-5.4-1.1.6.1 1.1.3 1.7.5.2.1.6-.2.3-.4-2.6-2.4-7.8-.6-10.8.1-5.4-.1-12.3 1.2-13.9 1.6-2.3.6-3.5.3-6.7-1.2s-.6-4.1 0-9.4c.1-.6.1-1 .1-1.4 3 2.9 7.2 4 11.3 3.1 2-.5 3.4-1.4 5.6-1.4 1.9 0 3.6.8 5.4 1.3 2.5.8 4.3 1.2 6.9.7.1 0 .1-.2 0-.2-4.6.5-8.4-2.5-12.9-2.6-1.8 0-3.4.7-5.2 1-4.2.8-7.8-.6-11-3.1-.1-2.4-1-2.3-1.9-5.1-.5-1.4-.9-2.9-1.2-4.2l-.1 2.4c0 5.3 1.2 9.2.2 14.7l-.1 5.6c0 2 2 3.6 3.5 3.6l10.9.1c5.9.6 11 1.2 20.8 0 .7-.1 8.8.2 9.4.2l17-.6 16.8.4c1.1.2 2.6-.2 3.8-.9-2-1.1-5.4-2.9-7.8-3.5-3.5-.9-6.7.6-11.4.9-4.7.5-18.2 2.9-22.6 2.6zm-14.1-4.4c1.1-.2 2.1-.4 3.2-.5-.6.2-1.1.5-1.7.8l-1.5-.3zm12.9 38.2c-.7-.1-1.4-.1-2-.1-1.5 0-3.5 0-6.5-.6-3.1-.6-9.4-.9-13.3-1.1s-16.3 1.5-18.5 1.3-6.1-.9-11.3-1.5c-5.2-.6-17.4.9-19.6 1.3-1.4.3-4-.3-5.8-1.7 1.2.1 2.4.1 3.6 0 .3 0 .4-.4.1-.5-1.4-.5-3.1-.5-4.6-.4-.4-.5-.7-1.1-.9-1.8-.6-3-.1-4.5 0-7.8 1.7 1.6 4.2 1.6 6.8 1.5 3.5-.1 5.9 1.2 8.9 2.3 2.9 1.1 5.7-.4 8.6.6.2.1.3-.3.1-.4-1.2-.4-1.6-.4-2.9-.4-2 0-3.6.6-5.6-.4-1.1-.5-2-1.6-3.1-2.2-3.8-1.9-10.2 1.4-12.9-2.9-.2-3.5-1.1-6.1-1.9-9.1-.4-1.6-.7-3.1-.6-4.3-.7.4-1.2.9-1.2 1.6l-.2 3.6c0 5.3 1.2 9.2.2 14.7v5.6c0 2 2 3.6 3.5 3.6l10.9.1c5.9.6 11 1.2 20.8 0 .7-.1 8.8.2 9.4.2l17-.6 16.8.4c1.2.3 2.9-.1 4.2-1zm39 32.9c-2.3-.2-9.7.5-14.4 0s-11.7-1.3-16.4-1.6-17.8.7-17.8.7-2.5-.4-6.5-.9-17.1.7-18.9-2c-1.1-1.6-.9-3-.6-4.7l1.2.6c1.1.4 2.2.4 3.3.5 1.7.2 3.2.7 4.8 1.2.2.1.4-.3.2-.4-1.3-1-2.5-1.5-4.2-1.8-1.7-.3-3.8-.2-5.2-1.2.2-.9.3-1.8.4-3 .1-1.1 0-2.1-.2-3.2.8.1 1.7.3 2.5.2.3 0 .3-.4.1-.5-.8-.2-1.8-.3-2.7-.4-.5-2.6-1.4-5.2-2.2-8.4-.3-1.3-.5-2.2-.6-2.9-.7.4-1.2.9-1.2 1.6l-.2 3.6c0 5.3 1.2 9.2.2 14.7l-.1 5.6c0 2 2 3.6 3.5 3.6l10.9.1c5.9.6 11 1.2 20.8 0 .7-.1 8.8.2 9.4.2l17-.6 16.8.4c1.4.2 3.6-.4 4.8-1.6-1.1 0-3 .4-4.7.2zm42.1-166.6c-1.7-1-7.7-.2-11.1 0s-16.7-.2-18.8 0-11.1-.7-14-1.2c-2.9-.5-14.2.2-17.6.7s-10.3-.7-10.5-2.7c-.2-1.9-.2-3.6.2-7.7.1-.5.1-1 .1-1.4.9.6 2.5.5 3.3.4 1-.1 1.9-.4 2.9-.6 3.3-.7 5.1-.1 8.2.6 5.6 1.4 11.2 1.5 17 1 .1 0 .1-.2 0-.2-6.5.2-12.2-.1-18.5-2.1-4.5-1.4-8.4.5-12.9-.4-.2-2.6-.9-4.5-1.3-7.2-.3-2.6 0-5.4.6-7.3-2.2.2-3.8 1-3.8 2.3l-.1 3.6c0 5.3 1.2 9.2.2 14.7l-.1 5.6c0 2 2 3.6 3.5 3.6l10.9.1c5.9.6 11 1.2 20.8 0 .7-.1 8.8.2 9.4.2l17-.6 16.4.3v-1.3c-.6.1-1.3-.1-1.8-.4zm-10.6 32.1c-1.9-.8-9.5-.2-13.2-.5.5-.1.9-.2 1.4-.3 1.2-.3 2.7-.7 3.5-1.6.1-.2.1-.5-.2-.5-1.2.1-2.2.8-3.3 1-1.3.3-2.6.4-3.8.7-1.7-.9-2.7-2.9-3.8-5.6-.9-2.1-.3-3.4.1-5 1.8-.1 3.7.6 5.5.5 2.7 0 5.2-.6 7.8.5.1 0 .1-.1.1-.1-2.4-1.3-4.8-.8-7.4-1-2.1-.1-3.9-.9-5.8-.8.1-.6.1-1.2.1-1.9-.3-3.2-1-8.6-.3-10.5.2-.6.2-1.2 0-1.7-1.4.4-2.3 1.1-2.3 2l-.2 3.6c0 5.3-1 10.2.2 14.7l-.1 5.6c0 2 2 3.6 3.5 3.6l10.9.1c5.7.9 10.4.9 19.7-.2v-2.8c-1.7 0-2.6.9-4.1 1.1-2 .3-6.1 0-8.3-.9zm7.6 32.4c0-.8-21.2.3-24.4 0s-4.5-.3-6.5-.8-26.9.8-30.6 1.4-7.7-1.4-8.5-3.1c-.8-1.5.3-5.4.3-8.7.3.2.6.4.9.5.6.2 1.3.3 2 .2 1.8-.2 3.4-1.3 5.2-1.4.1 0 .2-.2 0-.2-1.8-.2-3.4.3-5.1.6-1.2.2-2-.4-3-.8v-.1c-.3-3.4-1.1-7.1-2-9.9-.4-1.3-.7-2.4-1.1-3.2-.2.3-.4.6-.4 1l-.2 3.6c0 5.3 1.2 9.2.2 14.7l-.1 5.6c0 2 2 3.6 3.5 3.6l10.9.1c5.9.6 11 1.2 20.8 0 .7-.1 8.8.2 9.4.2l17-.6 16.3.3V96h-.3c-1.8.4-4.3-.4-4.3-1.3zm.2 32.3c-.8-.5-2.1-.2-2.7.5-.2.2-.1.3.1.4-6.8.5-14.9 1.5-16.2 1.3-2.1-.3-6.4-2.9-6.4-6.4v-.6c1.1.2 2.2.8 3.2.9.6.1 1.2.1 1.8-.1 1-.3 2-1.4 3.3-.8.2.1.4-.1.3-.3-1.1-1.9-3.4.1-4.9.1-1.4.1-2.6-.5-3.9-.6-.4-2.2-1.8-2.7-2.8-5.7-1.2-3.5.3-5 .3-9.1 0-2.2-.5-3.4-1.1-4.2-.3.3-.6.7-.6 1.1l-.2 3.6c0 5.3-1 10.2.2 14.7l-.1 5.6c0 2 2 3.6 3.5 3.6l10.9.1c5.7.6 10.4.5 19.7-.6v-3.1c-1 0-2.4 0-3.9.1 0-.1-.2-.3-.5-.5zm-2.1.9c.5-.1.9-.4 1.4-.4.2 0 .4.1.6.2-.7.1-1.3.1-2 .2zm-9.2 34.7c-.6-.2-2.6-.3-5-.4 0-.8 0-1.5-.1-2.2 0-.1-.2-.3-.3-.3-2.5-.5-5.9 0-7.9 1.6-.2.1 0 .4.2.3 1.5-.4 2.9-1 4.4-1.2.6-.1 1.5-.2 2.1 0 .5-.1.8.1 1 .7.1.4.1.7.2 1.1-5.7-.2-13.9-.1-15.4.2-.4.1-1.3.2-2.4.2-.8-.1-1.7-.1-2.4.1h-.1c-4.5.2-10.5.4-11.7.2-1.7-.2-2.6-.9-6.1-1.7s-12 .4-13.9 0-1.5-2.8-1.5-5.9c0-2.2.4-3.3.9-5 .6.5 1.4.8 2.1.9s1.7 0 2.5-.4c.4.1.8.2 1.2.2 1.9.1 3.9-.4 5.8-.3 2.7.1 5.3.6 8 .9.3 0 .4-.5.1-.5-3.3-1-6.8-1.7-10.2-1.5-2.8.1-3.9.7-6.7-1.1-.7-.4-1.3-1-2-1.5.2-2.9-1.5-4.5-2.1-6.6-.5-1.8-1.1-3.2-.8-5-1.1.4-1.9 1-1.9 1.9l-.2 3.6c0 5.3 1.2 9.2.2 14.7l-.1 5.6c0 2 2 3.6 3.5 3.6l10.9.1c5.9.6 11 1.2 20.8 0 .7-.1 8.8.2 9.4.2l17-.6 16.4.5v-1c-.7-.1-1.3-.3-1.8-.5-1.7-.9-12-.2-14.1-.9zm-57.5-14.4c.9.9 2 1.9 3.1 2.4-.5.1-1-.1-1.5-.2-.8-.2-1.3-.6-1.9-1.1.1-.2.2-.6.3-1.1zm66.4 47c-.7-.1-1.5-.1-2.2-.3-.9-.2-1.7-.6-2.4-1.2-.3-.3-.8.2-.5.5.2.2.5.4.8.6-3.2 0-6.9 1.2-9.5 1.3-1.5.1-3.3-.5-4.8-1.5.3-.1.6-.1.8-.2.3-.1.3-.6-.1-.6-.6 0-1.2 0-1.8.1-1.3-1.1-2.2-2.4-2.6-3.8-.7-3.4-1.4-2-2.5-6.1s-.5-4.3.2-9.4c.5-3.6-.4-4.3-1.4-5.4-.7.4-1.2.9-1.2 1.6l-.2 3.6c0 5.3-1 10.2.2 14.7l-.1 5.6c0 2 2 3.6 3.5 3.6l10.9.1c5.7.6 10.4.5 19.7-.6v-1.6c-2.6-.2-5-.4-6.8-.7.2-.2.2-.3 0-.3zM25.7 97.8c1 .2 2.3-.1 3.5-.7-1.7-.2-4-.7-6.2-1 0-.1-.1-.2-.2-.2-1.1-.6-1.7-.6-3-.6-2.6 0-4.3-1.3-6.5-2-3.1-1-6.4-.2-9.6-.1-.4 0-.5.6-.1.7 3.5.6 7-.7 10.3.9.5.3 1 .6 1.6.9-3.7.1-10 .3-15.5.5v1.6l8.8-.3 16.9.3zm-.3 33.4c.7-.1 8.8.2 9.4.2l17-.6 16.8.4c1.1.2 2.7-.2 3.9-1-1.5-.4-3.3-.9-3.9-1.1-.7-.2-4.4-1-7.7-1.2-1.2-1-2.6-1.4-4.5-1.4-4 .2-7.4-1.6-11.5-1.3-.3 0-.3.4 0 .4 1.8.2 3.6.2 5.3.7 1 .3 2.3 1 3.4 1.2 1.1.2 2.2-.1 3.3 0 .5 0 1.1.1 1.6.2-1 .1-1.9.3-2.5.7-2.6 1.8-4.7.3-8.8.3s-15.2-.6-15.2-.6-11.4.3-15.8.9c-1.1.1-2.8.2-4.8.3.3-.3.5-.6.8-.8 2.5-2.3 4.5-2.4 7.8-2.2 4.9.3 9-1.6 13.9-2.1.1 0 .1-.2 0-.2-2.7.2-5.2.6-7.8 1.3-3.2.9-6.2-.1-9.5-.1-4.3 0-3.9 1.6-6.2 4.1-3.4.1-7.3 0-10.5-.2v1.8l4.6.1c6 .8 11.1 1.4 20.9.2zm.3 33.8c1.2.2 2.9-.2 4.1-1.1-1.5-.2-4.2.3-5.5-.2-1.7-.6-5.2-.6-8.3-.2-2 .3-9.6-.1-16-.7v2.1l8.8-.3 16.9.4zm22.8 30.8c-.6-.1-1.5-.1-2.6-.2-.3-1.5-.9-3.2-2.2-3.6-.5-.2-.9.1-1.4.1-1 .1-1.9 0-2.8-.2-1.3-.3-2.5-.7-3.9-.6-.2 0-.2.3 0 .3 1.9.4 3.6 1.4 5.5 1.6.5.1 1.1-.1 1.5-.1 1.5.3 2.1 1.2 2.4 2.4-5.8-.4-15.4-.8-19.5-.8-5.1 0-20.8.3-25.4.3v3.2l4.6.1c5.9.6 11 1.2 20.8 0 .7-.1 8.8.2 9.5.2l17-.6 16.8.4c1.1.2 2.7-.2 3.9-.9-2-.1-4.8-.2-6.1-.2-2.2 0-14.3-1-18.1-1.4zM25.7 32.1c1.3.2 3.2-.3 4.5-1.3-1.4-.3-3.4-.6-4.8-.9-3.4-5.6-12.7-4-18.1-5.5-.1 0-.1.1-.1.1 2.5 1 5.1.9 7.7 1.5 2.8.6 7 1.3 9.1 3.6-2.3-.1-6.6.6-9.5-.3-2.1-.6-9.5-.6-14.5-.8V32l8.8-.3 16.9.4zm-.3 33.3c.7-.1 8.8.2 9.4.2l17-.6 16.8.4c.9.2 2 0 3.1-.5-2-.1-4.3-.6-5.9-.8-2.5-.3-7.3-1.3-10.8-1.9-.4-.1-1-.1-1.8-.1 1.1-.3 2.2-.2 3.4-.3.4 0 .5-.5.1-.7-1-.4-2.1-.3-3.1-.1-.5.1-1 .3-1.5.5-.3.2-.7.4-1 .6-6.5.3-17.9 1.7-19.9 2-2.5.3-18.5-.3-21.7-1.3-1.3-.4-3.7-.5-6.3-.7 4.4-1.9 9.8-.1 14.5-.3 4.2-.2 8.4-.8 12.4-2.2.2 0 .1-.3-.1-.2-6.9 1.7-13 1.8-20.1 1-3.2-.4-5.4-.3-8 1.6-.6.1-1.3 0-1.9 0v3.4l4.6.1c5.9.5 11 1.1 20.8-.1zM155.5 29c3.6-.9 6.7-1.5 10.4-.8 2.3.5 4.3 1 6.6.6.1 0 .1-.2 0-.2-3.4.4-6.6-1.2-9.9-1.4-2.5-.1-5 .2-7.3 1.4-.1.2 0 .5.2.4zM55.2 12c.9-.5 1.8-.7 2.8-.8.1 0 0-.1 0-.1-1 0-2 .3-2.9.8-.1 0 0 .1.1.1zm5.5-.8c1-.1 1.9-.1 2.9-.3.1 0 .1-.1 0-.1-1 0-1.9.2-2.9.3-.2-.1-.2.1 0 .1zm31.1 39.5c.5 0 .5-.8 0-.8-.9 0-2 .2-2.6.9-.2.2 0 .5.3.4.8 0 1.5-.4 2.3-.5zm-6.8 5c-.2 0-.3 0-.4.1-.2.1-.2.4 0 .5.1.1.2.1.4.1.4 0 .4-.6 0-.7zm36 1.7c.1 0 .1-.1.2-.1.1-.1.1-.2 0-.3-.1 0-.1-.1-.2-.1-.6-.5-.6.9 0 .5zm8.9 1.4c.1-.2-.1-.3-.3-.2-.2.1-.3.3-.6.1-.3-.2-.6.3-.3.5.5.1 1.1.1 1.2-.4zm26-6.9c.2-.1.2-.4 0-.5-.2-.1-.3-.1-.5-.1-.6-.1-.6.8 0 .7.2 0 .3 0 .5-.1zm28.2 7.5c.2-.1.2-.3 0-.4-.4-.1-.7-.1-1.1-.1-.4 0-.4.6 0 .6s.8 0 1.1-.1zm6.8.2c.1 0 .1-.2 0-.2-.7-.2-1.4-.1-2.1-.1-.3 0-.3.5 0 .5.7-.1 1.4 0 2.1-.2zM22.2 24c2.6.9 4.7-1.3 6.9-2.2.2-.1.1-.3-.1-.3-2.3.6-4.2 2.9-6.7 2.1-.3-.1-.4.3-.1.4zm5.8-8.4c.3 0 .3-.5 0-.5-.4-.1-.4.5 0 .5zm14.1 43.8c.2 0 .2-.4 0-.4-.3 0-.3.4 0 .4zm11.8-.5c.4-.2.9-.4 1.3-.6.1-.1 0-.2-.1-.2-.5.1-.9.3-1.3.5-.1.1-.1.4.1.3zm-14.8-9.5c-7-.4-14.1-.5-21.1-1.3-5.1-.5-7.7-1.6-12.3 1.1-.1.1 0 .2.1.2 4.7-2.6 10.4-.5 15.6-.4 5.9.1 11.8.4 17.7.6.2 0 .2-.2 0-.2zm15.3-5.2c-.6-.1-1.2-.1-1.9-.2-.4 0-.4.6 0 .6.6 0 1.3 0 1.9-.2.1 0 .1-.2 0-.2zm8.1 2.9c.2 0 .2-.3 0-.3s-.2.3 0 .3zM45 51.5c.2 0 .2-.2 0-.2s-.2.2 0 .2zm-17.6 1.4c.2 0 .2-.4 0-.4s-.2.4 0 .4zm28 29.3c.2 0 .2-.2 0-.2-1.1-.4-2.2-.6-3.4-.9-.3-.1-.4.4-.1.4 1.2.3 2.3.6 3.5.7zm18.7-.1c.2-.1.1-.4-.1-.4-.9-.1-1.8.2-2.6.4-.2.1-.2.5.1.4.8 0 1.7 0 2.6-.4zm11.4 1.6c.2 0 .2-.3 0-.3s-.3 0-.5-.1c-.3 0-.3.5 0 .5.2 0 .3-.1.5-.1zm20.9 6.9c-.3 0-.3.5 0 .5s.3-.5 0-.5zm-13.1 2.3c.3 0 .3-.5 0-.5-.5 0-1.1 0-1.6.1-.2 0-.2.3 0 .3.6.2 1.1.1 1.6.1zm44.6-10.4c-.3-.1-.4.4-.1.4.5.1.9.2 1.4.2.2 0 .2-.3.1-.4-.6 0-1-.1-1.4-.2zm-8.7 11.3c-.3 0-.3.5 0 .5.7 0 1.4.1 2.1-.1.2 0 .2-.3 0-.3-.7-.2-1.4-.2-2.1-.1zm22.9-3.2c-2.3-.1-4.5.1-6.6 1.1-.3.2-.1.8.2.6 4.9-2.1 10.3.2 15.3-.4.4 0 .5-.6.1-.7-2.8-.6-6-.5-9-.6zm20.5 2.7c1.2.1 2.4.4 3.6.6.2 0 .3-.2.1-.3-1.1-.6-2.5-.8-3.8-.8-.3-.1-.3.5.1.5zm20.9-6.7c.2 0 .2-.3 0-.3-1.2-.1-2.4-.3-3.6-.3-.2 0-.2.3 0 .3 1.1.2 2.4.2 3.6.3zm-9.4-.5H183c-.1 0-.1.1 0 .1h1.1c.1.1.1-.1 0-.1zm-10 0c-5.1.5-10.1 0-15.1-.5-.3 0-.3.4-.1.5 5 1.1 10.2 1 15.2.5.3-.1.3-.5 0-.5zm-157.2 3c-.2.1 0 .4.2.3.8-.4 1.6-.5 2.5-.5.1 0 .2-.2 0-.2-.9-.4-1.9-.1-2.7.4zm6.6-10.5c-.1 0-.1.2 0 .2 1.4-.1 2.8-.2 4.2-.1.2 0 .2-.3 0-.3-1.4-.1-2.9-.1-4.2.2zm-18 36.5c-.2 0-.2.3 0 .3 1.1 0 2.3 0 3.4-.1.1 0 .1-.2 0-.2-1.1-.1-2.3 0-3.4 0zm5.4 1.2c.3.9.8 1.9 1.6 2.4.1.1.1-.1.1-.1-.6-.7-1.2-1.4-1.5-2.4 0-.2-.3-.1-.2.1zm3.8 2c-.2.1 0 .4.2.3 3.7-1.7 6.9-2.4 10.9-2.6.2 0 .2-.3 0-.3-3.6-.5-7.9.6-11.1 2.6zm99.6.4c.1 0 .1-.1 0-.2h-.5c-.1 0-.1.2 0 .2h.5zm11.6 6.8c1-.3 2-.2 3.1-.2.2 0 .3-.3.1-.3-1-.5-2.3-.3-3.3.1-.4 0-.3.5.1.4zm8.8.9c.3 0 .3-.4 0-.4s-.3.4 0 .4zm3.6.2c.2 0 .2-.3 0-.3s-.2.3 0 .3zm2.6-13.8c3.1.3 5.9 1.8 9 .9.3-.1.3-.6-.1-.6-2.9.3-5.5-.6-8.3-.8-3-.2-5.9 1.2-8.9.5-.4-.1-.6.4-.3.6 3 1.9 5.5-.9 8.6-.6zm-15.7.5c-2.7.6-5.3.8-8 1-.2 0-.2.3 0 .3 2.7 0 5.5-.4 8.1-1 .2 0 .1-.4-.1-.3zm54.4 5.2c.2 0 .2-.3 0-.3s-.2.3 0 .3zm.6-3.8c-.3 0-.5.1-.8.1-.2 0-.2.3 0 .3.3 0 .5.1.8.1.3 0 .3-.5 0-.5zm-6.8 9.7c.4 0 .4-.6 0-.6s-.4.6 0 .6zm-1.9-5.2c-.2 0-.2.3 0 .3s.2-.3 0-.3zm11.6 4.2c.2 0 .2-.3 0-.3-.2-.1-.4-.1-.6-.1-.3 0-.3.5 0 .5.2 0 .4 0 .6-.1zm4.6 0c-.2 0-.2.3 0 .3s.2-.3 0-.3zm8.2 1.7c-.4 0-.4.6 0 .6.3 0 .3-.6 0-.6zM158.6 150c.6.1 1.3.2 1.9.2.2 0 .2-.3 0-.3-.6-.2-1.2-.3-1.9-.3-.2-.1-.2.4 0 .4zm7.7 1.1c.1-.1 0-.2-.1-.2-.5.2-1 .3-1.5.2-.2 0-.2.3 0 .3.6.1 1.2 0 1.6-.3zm3.9-.1c-.3 0-.3.5 0 .5s.3-.5 0-.5zm-103.7 2.1c.2-.1.3-.2.5-.4.1-.1 0-.3-.2-.3-.2.1-.4.1-.6.2-.2.1 0 .7.3.5zm8.5-1.9c-.4 0-.4.6 0 .6s.4-.6 0-.6zm26.7 37.5c-.3 0-.3.6 0 .5 1-.1 2.2-.1 3.2-.4.2-.1.2-.3-.1-.4-1 0-2.1.2-3.1.3zm18.5 5.3c-.2.1-.2.4 0 .4.2.1.4.1.6.1.3 0 .3-.6 0-.5-.2-.1-.4-.1-.6 0zm6.1-.2c.2 0 .2-.3 0-.3-.5-.1-1-.1-1.6-.1-.3 0-.3.4 0 .4.5.1 1.1.1 1.6 0zm8.6-.2c-.3 0-.3.5 0 .5s.3-.5 0-.5zm46.7 1.6c.8-.2 1.8-.2 2.4-.7.1-.1 0-.2-.1-.2-.8-.2-1.7.2-2.5.4-.4 0-.2.6.2.5zm-161.5-5.3c-.1 0-.1.2 0 .2 3-.8 6.1-.4 8.8 1.1.2.1.4-.2.2-.3-2.8-1.7-5.9-2.1-9-1zm-15-5.2c-.4-.1-.6.6-.2.6 2.9.7 6.1.8 8.9-.5.3-.1.1-.6-.2-.5-3 .5-5.6.9-8.5.4zm25.5-7.2c-.5 0-1.1.1-1.6.2-.2.1-.1.4.1.4l1.5-.3c.2 0 .2-.3 0-.3zm13 1.4c-.2.1-.1.4.1.4 1.8-.4 3.5-.9 5.2-1.7.1-.1 0-.2-.1-.2-1.7.4-3.4 1-5.2 1.5zm11.1-1.9c-.9-.1-1.8-.1-2.7-.1-.3 0-.3.4 0 .4.9 0 1.8.1 2.7-.1.1.1.1-.1 0-.2zm4.9-.3h.3c.1 0 .1-.1 0-.1h-.3c-.1 0-.1.1 0 .1zm4.2 5.7c.3 0 .3-.4 0-.4-.3-.1-.3.4 0 .4zm-10 6.6c.1 0 .1-.1 0 0 0-.1 0 0 0 0zm-24.3-8.7c.3 0 .3-.5 0-.5s-.3.5 0 .5zm-13.3-24.6c.3 0 .3-.5 0-.5s-.3.5 0 .5zm1.8-.5c.3 0 .3-.5 0-.5s-.3.5 0 .5zm-7.6 3.4c.3 0 .3-.5 0-.5s-.3.5 0 .5zm10.4-9.7c.1 0 .1-.1.2-.1.1-.1.1-.2 0-.3-.1-.1-.1-.1-.2-.1-.6-.3-.6.8 0 .5z" fill="#a4c9d2" stroke-width="none" opacity="1"></path><path id="SvgjsPath9431" d="M65.5 71.8c-3.3-1.8-5.6-.7-9.1-.7-4.1 0-8-.9-12.2-.2-.2 0-.2.4 0 .4 2-.2 3.9-.4 5.9-.2 1.9.2 3.7 1.1 5.5 1.3 3.4.3 6.2-1.4 9.7-.4.2 0 .3-.2.2-.2zm21.3-1.4c-5.7.6-11.2 1.2-16.9 1.2-.2 0-.2.2 0 .2 5.6.1 11.4-.2 16.9-1.3.1 0 .1-.1 0-.1zm12.6-1.2c-1.6-.6-3.3-.4-4.8.2-.1 0 0 .1 0 .1 1.6-.6 3.1-.5 4.8-.1 0 0 .1-.1 0-.2zm14.3 1.3c-1.4-.9-3.1-.8-4.7-.7-.2 0-.2.4 0 .4 1.2 0 2.5 0 3.6.4 1.3.5 1.8 1.4 2.2 2.6.1.2.3.2.4 0 .2-1.1-.6-2.1-1.5-2.7zm3.2 7.7c0-.2-.3-.2-.3 0v1.2c0 .1.2.1.3 0 .1-.4 0-.8 0-1.2zm-8.3 24.7c-5.5-.5-11.1-.2-16.6-.1-3.7.1-8.1-.6-11.5.9-.2.1-.1.5.2.4 4.1-1.7 9.9-.5 14.3-.5 4.6 0 9.2.2 13.7-.2.2.1.2-.5-.1-.5zm50.3 1.4c-6.2-1.2-12.6-1.3-18.9-1.6-7.2-.3-14.4-.7-21.6.1-.2 0-.2.4 0 .3 6.9-.6 13.7-.7 20.6-.2 6.6.5 13.1 1.8 19.8 1.7.2.1.3-.2.1-.3zm1.3 2.8s0 .1 0 0c.1.1.1 0 0 0zm.2 0c0-.1-.1-.1-.1 0 .1 4-.3 8.1-.2 12.1 0 .1.1.1.2 0 .5-3.9.3-8.1.1-12.1zm35.6-4c-2.5 0-5.1.3-7.6.1-1.9-.2-3.8-1-5.7-1.1-3.9-.2-7.3.5-11.2-.2-.4-.1-.5.5-.2.6 4.4 1.3 9.1 1 13.6 1.3 3.6.2 7.4-.1 11-.3.3-.1.3-.4.1-.4zm-36-33.2c-6.2.2-12.5.6-18.7.1-4.8-.4-10.2-2.5-14.9-.8-.2.1-.1.4.1.3 4.9-1.5 11.5 1.3 16.7 1.6 5.6.3 11.3-.2 16.8-.9.1 0 .2-.3 0-.3zm31.7-32.4c-3.1-2-7.1-.2-10.6-.6-3.8-.4-7.1-1-11 0-.3.1-.2.5.1.5 3.8-.6 7.1 0 10.8.5 3.4.4 7.4-1.2 10.6 0 .2 0 .3-.3.1-.4zm-76.6-.3c-11 1.4-21.9-.6-32.9 0-.3 0-.3.5 0 .5 11 .2 22.2 2.4 33-.2.1 0 .1-.3-.1-.3zm40.1-.3c-7.5.5-14.8-1.3-22.4-.2-.2 0-.1.3 0 .3 5.1-.6 9.4-.2 14.4.5 2.4.3 11.8-.5 11.9 2.8 0 .3.4.4.5.1.8-3.1-1.8-3.6-4.4-3.5zM115 5.1c-3.9-2.9-9.1 1-13.3 0-.2 0-.3.2-.1.3 2.8 1.2 5 .4 7.9-.1 3.1-.5 5.8.2 6.7 3.6.6 2.2.5 4.8.7 7 0 .3.5.3.5 0-.2-3.3.6-8.6-2.4-10.8zm-21.7-.9c-3.8 0-7.7-.1-11.5-.2-.2 0-.2.2 0 .2 3.9.3 7.7.2 11.6.1.1.1.1-.1-.1-.1zm-35.6 23c-2.4-.5-4.8-.6-7.2-.5-1.6.1-10.7 2.2-9.6-1.8.1-.2-.3-.4-.4-.2-1 1.9.5 3.5 2.4 3.8 1.5.2 3-.4 4.5-.6 3.4-.6 6.8-.6 10.3-.5.1.2.1-.1 0-.2zm2.8.4c-.4 0-.4.6 0 .6s.4-.6 0-.6zm7.3 1.4c-2-.5-4.1-.8-6.1-1-.1 0-.2.2 0 .2 2 .5 4 1 6.1 1.1.1.1.2-.2 0-.3zm63.5-.8c-1.1-.2-2.4-.1-3.2-.9-1-1-.6-2.4-.3-3.5.3-1.3.6-2.6-.1-3.9-.1-.2-.5 0-.4.2 1 2.2-1.2 4.5-.4 6.7.6 1.7 2.7 2.2 4.3 2 .3 0 .5-.5.1-.6zm13-8.5c-2.5-.4-5.1-1.4-7.6-1.6-2.8-.2-7.1 2.3-9.5.5-.2-.1-.4.2-.2.3 1.6 1.4 3.2.8 5 .3 4.5-1.3 7.9.5 12.3.7.1.1.1-.1 0-.2zM126.6 3.6c0-.2-.3-.4-.4-.1-.5 2.6-.5 5.1.3 7.6.1.2.3.1.3-.1-.4-2.5-.6-4.9-.2-7.4zm-96.9.9c-2.5-2-5.2-1.5-8.2-1.3-4.8.5-9.4.3-14.1-.2-.1 0-.2.2 0 .3 3.4.7 6.7 1.1 10.2 1.1 4.1 0 7.9-.9 11.9.6.2 0 .4-.3.2-.5zm.5 6.1c-.1-1.5.1-3.1-1-4.2-.1-.2-.4.1-.2.2 1.2 1.6.8 4.7.9 6.6.1 1.8.1 3.6.3 5.3 0 .1.2.1.2 0 .2-2.6-.1-5.3-.2-7.9zm.3 14.7c0-.2-.4-.2-.4 0 .1 1 0 1.9-.1 2.9 0 .1.2.1.2 0 .4-.9.4-1.9.3-2.9zm42.9 16.2c-.1-2.2-1-4.1-3.4-3.6-.2 0-.1.3 0 .3 3.9 1.1 2 9.4 2.2 12.2.2 2.7.7 5.1 1.7 7.5.1.1.2 0 .2-.1-2.1-5.5-.5-10.7-.7-16.3zm-4.7-3.8c-2.1.1-4.2 0-6.3-.1-.2 0-.2.3 0 .3 2.1.4 4.2.3 6.3 0 .2 0 .2-.2 0-.2zm-35.4-1.3c-3.4-.8-6.8-.3-10.3 0-4.2.3-8.4.6-12.5 1.2-.2 0-.2.3 0 .3 7.3-.2 15.5-2.6 22.7-1.1.3 0 .4-.4.1-.4zM17.7 46.7c-2.9 1.2-5.8-1.1-8.7-.3-.1 0-.1.2.1.2 2.9-.8 6 1.9 8.8.3.1-.1 0-.3-.2-.2zm6.9 22.8c-6.8.3-12.3 1.3-18.9-1.2-.2-.1-.4.3-.2.4 2.8 1.2 5.7 2 8.8 2.3 2.7.2 13.1-1.7 14.4 1.7.1.2.5.2.5-.1 0-2.7-2.2-3.2-4.6-3.1zm5.9 9.9c0-.3-.4-.3-.4 0 0 1-.1 2.1 0 3.1 0 .2.3.2.3 0 .2-1 .1-2.1.1-3.1zM53.4 104c-6.5-1.7-13.3-1.4-19.9-1.4-.2 0-.2.2 0 .2 6.7 0 13.2.4 19.8 1.5.2.1.3-.2.1-.3zm.8 24.2c-7.7.5-15.5-1.1-23.2-1.3-.2 0-.2.3 0 .3 7.3 1 16 2.8 23.3 1.3.1-.1.1-.3-.1-.3zm18.1-19.3c.2-2.2 1.1-4.8-1.7-5.3-.3-.1-.5.3-.2.5 2.3 1.5.9 8.9 1.2 11.5.3 3.4.9 6.7 1.6 10.1 0 .1.2.1.2 0-.8-5.6-1.6-11.2-1.1-16.8zm33.3 8.2c-3.7-3.4-7.5-3.4-12-1.8-.3.1-.2.6.1.4 2.2-.7 4.4-1.5 6.7-1 1.8.4 3.3 1.7 5 2.5.2.2.3 0 .2-.1zm15.3 4.2c-.5-1-1.6-1.2-2.6-1-.7.2-1.4.6-2 .9-1.4.7-2.6 1.1-4.2 1.2-.3 0-.3.5 0 .5 1.2 0 2.3-.2 3.4-.7 1.7-.7 3.3-2.2 5-.6.3.2.5 0 .4-.3zm37.4 15.8c-5.6-.4-10.5 2.8-16 1.9-5.4-.9-10.6-1.9-16.1-2.4-.3 0-.3.4-.1.5 6 .9 12.1 2.9 18.1 3.4 1.3.1 2.4-.1 3.6-.4 3.6-1.1 6.5-2.1 10.4-2.3.5-.2.5-.7.1-.7zm30.4-1.4c-6.1 0-13.7-.4-19.6 1.5-.2.1-.1.4.1.4 6.1-1.9 13.2-1 19.5-1.6.2 0 .2-.3 0-.3zm-61.1 24.5c-.8 0-1.2-.3-1.2-.9 0-.3-.1-.5-.1-.8-.1-.4-.1-.9-.1-1.3-.1-.9-.1-1.8-.1-2.7 0-.2-.3-.2-.3 0-.1 1.2-.1 2.4 0 3.6.1.7 0 1.8.5 2.4.4.6 1.5.7 1.6-.2-.1-.1-.2-.2-.3-.1zm36.7-.8c-2.9.3-5.8 1-8.6 1.5-3.6.7-6.6.3-10.2-.2-.2 0-.4.3-.1.4 2.5.4 5.1 1.1 7.6.9 3.7-.3 7.7-1.2 11.3-2.2.3-.1.3-.4 0-.4zm-94.1-22.8c-5.6-.1-10.8 1.8-16.3.2-4.9-1.4-9.8-1-14.8-.6-.1 0-.1.2 0 .2 3.2-.1 6.5-.4 9.7-.2 3.1.2 5.3 1.9 8.2 2.4 3.9.7 9.5-.6 13.3-1.6.2 0 .1-.4-.1-.4zm45.6 0c-6.7-.7-13.4-.6-20.1-1-6.1-.3-11.6.9-17.6 1-.2 0-.2.3 0 .3 5.9-.1 11.6-1.2 17.6-.8 6.7.4 13.4 1.2 20.1 1.3.5 0 .5-.7 0-.8zm1.7 10c-.1-.2-.3-.3-.4-.5-.4-.8-.3-1.4-.1-2.3.4-1.8.5-3.2-.5-4.9-.2-.3-.6 0-.5.3.6 1.1.8 2.4.4 3.6-.2.7-.8 1.4-.9 2.1-.1 1.2 1.4 1.7 1.3 3 0 .3.3.3.5.1.4-.5.4-.8.2-1.4zm.2 4.5c0-.3-.4-.3-.4 0 0 1.1-.1 2.3.1 3.4 0 .2.3.2.3 0 .1-1.1 0-2.3 0-3.4zM61 153.5c-2.8-.3-2.3-.8-4.9-2.9-.2-.2-.5-.8-.8-1.1-3.4-2.8-13 2.4-15.5-1.7-.1-.2-.4 0-.3.2 2.5 4.9 10-.1 14.1 2 2.1 1.1 1 2.4 2.7 3.5 1.2.8 3.5.4 4.8.3.1 0 .1-.3-.1-.3zm10.1 1.6c-1.6-.1-3.2.1-4.8.2-.3 0-.3.4 0 .4 1.6-.1 3.3-.1 4.8-.4.2-.1.1-.2 0-.2zm21.3-8.7c-1.6-.2-3.2-.1-4.8-.1-.3 0-.3.4 0 .4 1.6 0 3.2.1 4.8-.1.2 0 .2-.2 0-.2zm-69.7-8.8c-3.3-1.1-6.2-.6-9.6-.4-4 .2-7.8-.3-11.6-1.6-.2-.1-.4.3-.2.4 7.1 3.1 13.8 1.5 21.3 2 .2 0 .3-.3.1-.4zm4.3-.1c-.2 0-.3.4-.1.4 1.4.2 2.3 1.4 2.5 2.8 0 .1.2.1.2 0 .4-1.6-1.1-3.1-2.6-3.2zm3.2 6.8c0-.2-.3-.2-.3 0-.1 1.5-.4 3.2-.1 4.6 0 .2.4.2.4 0 .4-1.4.1-3.1 0-4.6zM71.8 173c-.1-.4-.6-.3-.6.1-.3 4.4.1 8.9.2 13.3 0 1.7.7 4.8.1 6.4-1.2 3.1-4.3 2.6-6.8 2.8-.2 0-.2.3 0 .3 4-.1 7.5 1.2 7.8-3.1.3-6.4.4-13.6-.7-19.8zm-.8-3.6c-2.5-.7-5.3 0-7.8.2-2.8.3-5.5.6-8.3 1.1-.2.1-.2.4.1.4 5.3-.1 10.7-1.4 16-1.3.2.1.2-.3 0-.4zm-24.1.2c-5.4-.9-11-1.3-16.4-.8-6.1.6-11.8 2.4-18 2.3-.2 0-.2.2 0 .3 4.8.5 9.5-.5 14.3-1.2 6.8-1 13.2-1.1 20-.2.2 0 .3-.4.1-.4zm6.6 10.5c-1.9.2-3.7.6-5.6.9-.2.1-.1.4.1.4 1.8-.3 3.7-.6 5.5-1.1.2 0 .1-.2 0-.2zm39.2 9.6c-1.6-2.5-5-3.6-7.9-2.8-.3.1-.2.5.1.5 2.9-.4 5.3.5 7.4 2.5.3.1.5 0 .4-.2zm11.5 1.7c-1.4-.1-3 .3-4.4.5-.3 0-.2.6.1.5 1.4-.2 3-.2 4.4-.7.1 0 .1-.3-.1-.3zm7.2-.3c-.2.1-.5.1-.7.2-.2.1-.1.3.1.3.2-.1.5-.2.7-.3.1-.1 0-.3-.1-.2zm17.1-4c-1.3-.9-3-1-4.5-.7-.3.1-.2.6.1.5 1.5-.3 2.9-.1 4.3.4.1.1.2-.1.1-.2zm7.3 1.6c-.7 0-1.4 0-2.2-.1-.2 0-.2.3 0 .3.7 0 1.4 0 2.2-.1.2 0 .2-.1 0-.1zm8 .4c-.6.1-1 .2-1.6.1-.3-.1-.5.4-.1.5.6.1 1.3.1 1.9-.2.1-.2 0-.4-.2-.4zm5.1-8.1c-.3 0-.3.5 0 .5s.3-.5 0-.5zm-64.4-10.8c-1.1-.8-2.4-.9-3.8-.7-.3 0-.2.4.1.4 1.2-.2 2.4.1 3.6.5.1.1.2-.1.1-.2zm48-.1c-2.8-.9-5.2-.4-8.1.1-4.4.8-8.4.6-12.8.7-3.3.1-6.4 1.4-9.8 1.3-3.3-.1-6.2-.9-9.5-.3-.2 0-.1.3 0 .3 3.2-.2 6.2.6 9.4.8 3.2.2 5.8-.9 8.9-1.1 3.6-.3 7.1.4 10.7-.1 3.7-.6 7-1.6 10.9-1 .6.2.8-.5.3-.7zm25.4-.2c-3.6-.9-7-.3-10.6 0-3.2.3-6.3-.8-9.3.4-.2.1-.1.5.1.4 3.2-.8 6.5.2 9.8.1 3.3-.2 6.6-.1 9.9 0 .4-.1.5-.7.1-.9zm1 1.6c-.2-.2-.5.1-.4.3.4.5.6 1 .8 1.5.2.5.2 1 .3 1.6.1.2.4.2.4 0 .3-1.3-.3-2.6-1.1-3.4zm10.8-.5c-.5 2.7-.8 5.4-.2 8.1 0 .2.4.2.4-.1.1-2.7 0-5.3.4-7.9 0-.2-.5-.4-.6-.1zm.5 11.7c0-.3-.4-.3-.4 0-.1 1 .3 1.9.8 2.7.7 1.2 1.2 2 1.2 3.4 0 .2.2.2.3.1 1.3-2-1.9-4.2-1.9-6.2zm20-12.2c-3.4-.3-6.8 0-10.3-.6-.3-.1-.4.4-.1.5 3.4.6 7.1 1.4 10.5.8.4 0 .2-.6-.1-.7z" fill="#ecf0f1" stroke-width="none" opacity="1"></path></g><g id="svga-group-humanwrap-move" transform="matrix(1,0,0,1,0,0)"><g id="svga-group-humanwrap"><g id="svga-group-hair-back-move" transform="matrix(1,0,0,1,0,0)"><g id="svga-group-hair-back"></g></g><g id="svga-group-humanbody-back"><path id="SvgjsPath8187" d="M166.5 181.1c-10.9-6.6-27.6-8.4-35-12.1-4.9-2.5-9.1-4.7-8.9-17.8s1.9-42.4 1.9-42.4H75.4s1.6 29.4 1.9 42.4-4.2 15.6-8.9 17.8c-7.4 3.5-24.1 5.4-35 12.1-10.8 6.6-10 18.9-10 18.9v19.7h153.3V200c-.1 0 .7-12.3-10.2-18.9z" fill="#f0c7b1" stroke-width="none" opacity="1" stroke="none"></path></g><g id="svga-group-chinshadow-single"><path id="SvgjsPath8730" d="M77.3 153c2.7 4.4 5.1 8.5 5.8 9.8 1.5 2.6 9.5 5.9 16.8 5.9 7.5 0 15.4-3.3 16.9-5.9.7-1.3 3.1-5.4 5.8-9.9v-1.7c.2-13.1 1.9-42.4 1.9-42.4H75.4s1.6 29.4 1.9 42.4v1.8z" fill="#d19271" stroke-width="none" opacity="0.65" stroke="none"></path></g><g id="svga-group-humanbody-front"><path id="SvgjsPath8188" d="M78.7 156.8c.5 4.8 1.7 9.4 3.1 13.9.8 2.3 1.6 4.6 2.6 6.9.8 2 1.7 4.2 3.1 5.9.3.4 1 0 .9-.5-.5-2.2-1.6-4.3-2.4-6.4-.9-2.2-1.7-4.4-2.5-6.6-1.5-4.4-2.8-8.9-4.1-13.3-.2-.4-.8-.3-.7.1zm41.3-1c-1.3 8.2-3.9 16.1-5.4 24.2-.1.4.4.5.6.2 3.1-7.7 4.1-16.1 5.1-24.3-.1-.2-.3-.2-.3-.1zm-25.8 11.9c-.9 3.6 1.9 8.6 6.2 7.6.5-.1.4-.8 0-1-1.4-.5-2.9-.9-3.9-2.1-1.1-1.2-1.5-2.9-1.4-4.5 0-.4-.8-.5-.9 0z" fill="#d19271" stroke-width="none" opacity="1" stroke="none"></path><path id="SvgjsPath8189" d="M177.3 219.7c-.1-6.6-.3-13.1-.3-19.7l-.3-.3c.1 0 .1 0 .2.1s.1.2.1.1v-1.4c0-.5-.1-.9-.1-1.4-.1-.9-.3-1.9-.5-2.8-.5-1.8-1.1-3.6-2-5.3-1.7-3.4-4.4-6.2-7.7-8.1-3.6-2.2-7.6-3.8-11.6-5.1-4-1.3-8.1-2.4-12.1-3.5-4-1.2-8.1-2.2-11.8-4.2-1.9-1-3.6-2.1-4.8-3.6-1.2-1.6-1.9-3.5-2.3-5.5-.8-4-.4-8.2-.3-12.4l.7-12.6 1.5-25.2.1-1.4h-1.4c-8.2 0-16.4 0-24.6.1l-24.6.3h-.9l.1.9c.8 11.9 1.6 23.8 2.1 35.7.1 3 .3 6 .2 8.9-.1 2.9-.4 5.9-1.6 8.6-.6 1.3-1.4 2.5-2.4 3.5s-2.3 1.8-3.6 2.4c-2.6 1.3-5.4 2.2-8.3 3-5.8 1.5-11.6 2.8-17.3 4.7-2.8.9-5.7 2-8.4 3.4-1.3.7-2.7 1.4-4 2.4-1.3.9-2.4 1.9-3.5 3.1-2.1 2.3-3.6 5.2-4.5 8.1-.5 1.5-.8 3-1 4.6-.1.8-.1 1.6-.1 2.4v2.3l-.2 17.9v1.3h1.4l38.3.2c12.8.1 25.5.1 38.3 0 12.8-.1 25.6-.1 38.3-.3 12.8-.2 25.6-.5 38.3-.7h.6v-.5zm-77.2-1.6H61.8l-37 .2-.1-16.6v-2.2c0-.7 0-1.4.1-2.1.1-1.4.4-2.8.8-4.2.8-2.7 2.1-5.3 3.9-7.5.9-1.1 2-2.1 3.1-2.9 1.1-.9 2.4-1.6 3.7-2.3 2.6-1.4 5.3-2.5 8.1-3.5 5.6-2 11.4-3.4 17.1-5.1 2.9-.8 5.8-1.7 8.5-3.1 1.3-.7 2.7-1.5 3.8-2.6 1.1-1.1 2-2.4 2.6-3.9 1.2-2.9 1.5-5.9 1.6-8.9 0-3-.1-6-.2-9l-1.3-34.8 23.5.4c7.7.1 15.4.1 23.1.1-.4 7.9-.8 15.9-1.1 23.8-.2 4.2-.2 8.4-.3 12.6 0 4.2-.2 8.5.8 12.8.5 2.1 1.3 4.2 2.8 6 1.4 1.7 3.4 2.9 5.3 3.8 3.9 1.9 8 2.8 12.1 3.8s8.2 2 12.2 3.3c4 1.3 7.9 2.8 11.5 5 3.2 1.9 5.8 4.7 7.5 8 .9 1.6 1.5 3.4 1.9 5.2.2.9.4 1.8.4 2.7.1.5.1.9.1 1.4V200l-.3 19c-12.6-.2-25.1-.5-37.7-.7-12.7-.1-25.5-.1-38.2-.2z" fill="#c27b55" stroke-width="none" opacity="1" stroke="none"></path></g><g id="svga-group-clothes-single"><path id="SvgjsPath8077" d="M149.9 220.3c-.4-19.5 5.9-44.6 5.9-44.6l-12.6-3.6s-8.7 28.3-45.2 27.1-41.2-27.1-41.2-27.1l-12.6 3.6s6.3 25.2 5.9 44.6h99.8z" fill="#000000" stroke-width="none" opacity="1"></path><path id="SvgjsPath8078" d="m156 174.9-12.6-3.6c-.4-.1-.9.1-1.1.5-.7 2-1.7 4.1-2.9 6-1.1 1.9-2.4 3.8-3.9 5.5-1.4 1.7-3 3.3-4.7 4.8-1.7 1.4-3.5 2.8-5.4 3.9-3.8 2.4-8 4.1-12.4 5.2-4.4 1.1-8.9 1.6-13.4 1.6s-9.1-.4-13.5-1.4c-1.1-.2-2.2-.5-3.3-.8-1.1-.4-2.2-.7-3.2-1.1-2.1-.8-4.2-1.7-6.2-2.9-3.9-2.2-7.5-5.2-10.2-8.7-1.4-1.8-2.6-3.7-3.6-5.7s-1.8-4.1-2.2-6.3c-.1-.3-.4-.5-.8-.4L44 174.9c-.4.1-.6.5-.5.9.8 3.6 1.6 7.3 2.3 11 .7 3.7 1.3 7.4 1.8 11.1.5 3.7.9 7.4 1.2 11.2.3 3.7.4 7.5.3 11.2 0 .6.5 1.1 1.1 1.1l25.2-.1c8.4 0 16.8-.1 25.1-.2l12.5-.1 12.4-.2 24.7-.4c.1-3.8.3-7.6.7-11.3.4-3.7.9-7.4 1.4-11.2.6-3.7 1.3-7.4 2-11.1.8-3.7 1.5-7.4 2.4-11 0-.4-.2-.8-.6-.9zm-3.3 11.6c-.7 3.7-1.2 7.4-1.7 11.2s-.9 7.5-1.1 11.3c-.2 3.8-.3 7.5-.1 11.2l-25.2-.4-12.5-.2-12.4-.1c-8.3-.1-16.6-.2-24.8-.2l-23.7-.1c0-3.4-.2-6.9-.4-10.3-.3-3.8-.8-7.5-1.3-11.3-1.1-7.2-2.5-14.4-4.2-21.5l11.2-3.3c2.5 8.9 8.9 16.1 16.8 20.4 8.1 4.5 17.4 6.2 26.5 6.3 4.6.1 9.2-.3 13.7-1.3s8.9-2.6 12.9-5c4-2.3 7.6-5.4 10.6-8.9 2.8-3.4 5.2-7.1 6.8-11.3l11.1 3.1c-.8 3.5-1.6 7-2.2 10.4z" fill="#000000" stroke-width="none" opacity="1"></path></g><g id="svga-group-head" transform="matrix(1,0,0,1,0,0)"><g id="svga-group-ears-left-move" transform="matrix(1,0,0,1,0,0)"><g id="svga-group-ears-left"><path id="SvgjsPath8813" d="M62.2 95.2s-4.4-4.7-5.8-6.2-3.1-4.7-5-4.1c-1.9.5-1.2 2.7-1.3 5.8-.1 3.1.3 9.1 2.2 12.4s2.9 4.5 3.5 8 2.8 4.2 4.1 3.2 4.3-7 4.4-10.2c0-3.2-1.3-7.6-2.1-8.9z" fill="#f0c7b1" stroke-width="none" opacity="1" stroke="none"></path><path id="SvgjsPath8814" d="M63.1 97.3c.3.8.5 1.5.7 2.3.4 1.6.7 3.2.7 4.9 0 .8-.2 1.6-.3 2.3l-.6 2.1c-.5 1.3-1.1 2.6-1.7 3.8-.3.6-.7 1.1-1.1 1.7-.2.2-.5.5-.8.7s-.6.3-.9.3c-.7.1-1.4-.1-2-.7s-1.1-1.4-1.4-2.3l-.2-.7-.1-.7c-.1-.4-.1-.8-.2-1.1-.2-.7-.4-1.5-.6-2.1-.5-1.4-1.3-2.7-2.1-4-.4-.6-.8-1.4-1-2.2-.3-.8-.5-1.6-.7-2.4-.3-1.6-.6-3.2-.7-4.8-.2-1.6-.2-3.2-.2-4.7 0-.8-.1-1.5-.1-2.4 0-.4 0-.8.1-1.3.1-.4.2-.9.5-1.2.2-.3.5-.5.8-.6s.6-.2 1-.2c.7.1 1.3.5 1.9 1 1.1 1 1.9 2.4 2.7 3.5 1.9 2.2 3.7 4.4 5.6 6.5.1.8.4 1.6.7 2.3zm-7-7.9c-1.1-1-1.9-2.3-2.8-3.1-.5-.4-.9-.7-1.4-.8-.4 0-.9.1-1.2.4s-.4.9-.4 1.7v2.3c0 .8-.1 1.5-.1 2.3s0 1.5.1 2.3c.1 1.6.3 3.1.7 4.7.4 1.5 1 3 1.8 4.2.8 1.3 1.7 2.5 2.4 4 .3.8.6 1.6.8 2.4l.3 1.2.1.5.2.5c.2.6.6 1.1 1 1.4s.9.4 1.3.3c.2 0 .4-.1.6-.2.2-.1.3-.3.5-.5.3-.4.7-1 1-1.5.6-1.1 1.2-2.3 1.7-3.5s1-2.5 1.2-3.8c.2-1.4 0-3-.2-4.5-.1-.8-.3-1.6-.5-2.3-.2-.8-.5-1.5-.9-2.1-2.2-2.1-4.2-4-6.2-5.9z" fill="#e1ac8f" stroke-width="none" opacity="1" stroke="none"></path><path id="SvgjsPath8815" d="M50.4 89.6c.5-1.9 2.1-1 3 .4 1.9 2.6 3.2 6.6 3.6 10 0 .1-.1.2-.1.1-.1.1-.2.1-.2-.1-1.2-.5-1.6-.2-1.2.8 0 .3.1.6.3.9.2.5.6 1 .9 1.5.5.8 1.2 1.5 1.7 2.3.2.3 0 .6-.2.4-1.4-1-3.9-4.3-3.2-6.6.3-.8 1-1.1 1.5-.7-1.1-3.6-4-12-5.8-8.8-.2.1-.3-.1-.3-.2z" fill="#d19271" stroke-width="none" opacity="1" stroke="none"></path><path id="SvgjsPath8816" d="M53.3 90.1c-1 2-1.4 4.4-.9 7.1.3 1.5 2.9 9.5 4.9 8.4.2-.1.4.3.2.5-2 1.8-4.2-4.5-4.9-6.5-1.1-3.4-1.4-7.5.5-9.7.1-.1.2 0 .2.2z" fill="#d19271" stroke-width="none" opacity="1" stroke="none"></path></g></g><g id="svga-group-ears-right-move" transform="matrix(1,0,0,1,0,0)"><g id="svga-group-ears-right"><path id="SvgjsPath8817" d="M138.08 95.16s4.4-4.7 5.8-6.2 3.1-4.7 5-4.1c1.9.5 1.2 2.7 1.3 5.8.1 3.1-.3 9.1-2.2 12.4s-2.9 4.5-3.5 8-2.8 4.2-4.1 3.2-4.3-7-4.4-10.2c0-3.2 1.3-7.6 2.1-8.9z" fill="#f0c7b1" stroke-width="none" opacity="1" stroke="none"></path><path id="SvgjsPath8818" d="M137.9 95.1c1.9-2 3.8-4.3 5.6-6.5.9-1 1.6-2.4 2.7-3.5.5-.5 1.2-1 1.9-1 .3 0 .7 0 1 .2.3.1.6.3.8.6.2.3.4.8.5 1.2.1.4.1.9.1 1.3 0 .8-.1 1.6-.1 2.4 0 1.5-.1 3.2-.2 4.7-.1 1.6-.4 3.2-.7 4.8-.2.8-.4 1.6-.7 2.4s-.6 1.5-1 2.2c-.7 1.3-1.5 2.7-2.1 4-.3.7-.5 1.4-.6 2.1-.1.4-.1.7-.2 1.1l-.1.7-.2.7c-.3.9-.8 1.7-1.4 2.3-.6.5-1.4.8-2 .7-.3 0-.6-.1-.9-.3-.3-.2-.6-.5-.8-.7-.4-.5-.8-1.1-1.1-1.7-.6-1.2-1.2-2.4-1.7-3.8-.2-.7-.5-1.4-.6-2.1-.2-.7-.3-1.5-.3-2.3 0-1.7.3-3.3.7-4.9.2-.8.4-1.6.7-2.3 0-.8.3-1.6.7-2.3zm.1.1c-.4.6-.6 1.4-.9 2.1-.2.8-.4 1.5-.5 2.3-.3 1.5-.4 3.1-.2 4.5s.7 2.6 1.2 3.8c.5 1.2 1.1 2.4 1.7 3.5.3.5.6 1.1 1 1.5.2.2.3.4.5.5s.4.2.6.2c.4.1.9 0 1.3-.3s.7-.8 1-1.4l.2-.5.1-.5.3-1.2c.2-.8.5-1.6.8-2.4.7-1.5 1.6-2.8 2.4-4 .8-1.2 1.4-2.6 1.8-4.2.4-1.5.6-3.1.7-4.7.1-.8.1-1.6.1-2.3 0-.8-.1-1.5-.1-2.3v-2.3c0-.7-.1-1.4-.4-1.7-.3-.3-.8-.5-1.2-.4-.4 0-.9.4-1.4.8-.9.8-1.8 2.1-2.8 3.1-2.3 2-4.3 3.9-6.2 5.9z" fill="#e1ac8f" stroke-width="none" opacity="1" stroke="none"></path><path id="SvgjsPath8819" d="M149.6 89.6c-.5-1.9-2.1-1-3 .4-1.9 2.6-3.2 6.6-3.6 10 0 .1.1.2.1.1.1.1.2.1.2-.1 1.2-.5 1.6-.2 1.2.8 0 .3-.1.6-.3.9-.2.5-.6 1-.9 1.5-.5.8-1.2 1.5-1.7 2.3-.2.3 0 .6.2.4 1.4-1 3.9-4.3 3.2-6.6-.3-.8-1-1.1-1.5-.7 1.1-3.6 4-12 5.8-8.8.2.1.3-.1.3-.2z" fill="#d19271" stroke-width="none" opacity="1" stroke="none"></path><path id="SvgjsPath8820" d="M146.7 90.1c1 2 1.4 4.4.9 7.1-.3 1.5-2.9 9.5-4.9 8.4-.2-.1-.4.3-.2.5 2 1.8 4.2-4.5 4.9-6.5 1.1-3.4 1.4-7.5-.5-9.7-.1-.1-.2 0-.2.2z" fill="#d19271" stroke-width="none" opacity="1" stroke="none"></path></g></g><g id="svga-group-faceshape-wrap"><g id="svga-group-faceshape-single"><path id="SvgjsPath8718" d="M143.1 82v-.3c-1.3-29.9-20.7-46.4-43.2-46.4S58 51.7 56.7 81.7v.3c0 2.2-.4 18.8 1.4 25.3 2 7 7.7 14.1 11.2 19 3.5 4.9 12.1 18.7 13.6 21.3s9.5 5.9 16.8 5.9c7.4 0 15.3-3.3 16.8-5.9 1.5-2.6 10.1-16.4 13.6-21.3 3.5-4.9 9.2-12 11.2-19 2.2-6.5 1.9-23.2 1.8-25.3z" fill="#f0c7b1" stroke-width="none" opacity="1" stroke="none"></path><path id="SvgjsPath8719" d="M116.5 147.6c1.5-2.6 10.1-16.4 13.6-21.3 3.5-4.9 9.2-12 11.2-19 2.2-6.5 1.9-23.2 1.8-25.3v-.3c-1.3-29.9-20.7-46.4-43.2-46.4S58 51.7 56.7 81.7v.3c0 2.2-.4 18.8 1.4 25.3 2 7 7.7 14.1 11.2 19 3.5 4.9 12.1 18.7 13.6 21.3s9.5 5.9 16.8 5.9c7.4 0 15.3-3.3 16.8-5.9zm-29.7 0c-.6-.3-1.2-.8-1.5-1.1-.1 0-.6-1-1.1-1.7-1.7-2.9-3.5-4.8-5.3-7.7s-3.6-5.8-5.5-8.7c-.9-1.4-2-2.9-3-4.3l-3.1-4c-2-2.7-3.9-5.4-5.5-8.2-.8-1.4-1.5-2.9-2-4.4s-.8-3-1.1-4.7c-.5-3.3-.7-6.7-.9-10-.1-1.7-.2-3.4-.2-5.1l-.1-5.1c.1-6.7 1.2-13.4 3.7-19.6.2-.4.3-.8.4-1.2l.6-1.1 1.1-2.2c.3-.8.9-1.4 1.3-2.1.4-.7.9-1.4 1.3-2.1 2-2.6 4.1-5.2 6.7-7.3.6-.5 1.2-1.1 1.9-1.6l2-1.4 1-.7 1.1-.6 2.1-1.2c.7-.4 1.5-.6 2.2-1 .8-.3 1.5-.7 2.3-.9 1.5-.5 3.1-1 4.7-1.3.8-.2 1.6-.4 2.4-.5l2.4-.3 1.2-.1h1.2l2.4-.1c.8 0 1.6.1 2.4.1.8.1 1.6 0 2.4.2 1.6.3 3.2.3 4.8.8l2.4.5 2.3.7c1.6.4 3 1.2 4.5 1.8.8.3 1.4.8 2.1 1.1.7.4 1.5.7 2.1 1.2 1.3.9 2.8 1.7 4 2.8 5.1 4.1 9.3 9.5 12 15.6s4.1 12.9 4.4 19.6c.1 6.8-.1 13.6-1.2 20.2-.3 1.6-.6 3.3-1.2 4.8-.5 1.6-1.2 3-2 4.5-1.6 2.9-3.6 5.6-5.6 8.2l-3.2 4c-1.1 1.3-2.1 2.8-3.1 4.2s-1.9 2.8-2.9 4.3l-2.8 4.3c-1.8 2.9-3.6 4.8-5.3 7.7l-1.3 2.1c0 .1-.5.6-1.1.9-1.1.7-2.6 1.4-4 1.9-2.9 1-6.1 1.7-9.1 1.7s-6.2-.5-9.1-1.4c-1.6-.2-3-.8-4.2-1.5z" fill="#c27b55" stroke-width="none" opacity="1" stroke="none"></path></g></g><g id="svga-group-mouth-single-move" transform="matrix(1,0,0,1,0,1)"><g id="svga-group-mouth-single"><path id="SvgjsPath8851" d="M100.36 129.39c-.49.05-9.78-2.48-12.1-3.52 0 0 6.49-1.32 8.19-1.56.77-.11 3.58 1.46 3.58 1.46s2.68-1.6 3.45-1.57c1.22.04 9.47.7 9.47.7s-9.34 4.18-12.59 4.49z" fill="#d26d79" stroke-width="none" opacity="1" transform="translate(0 2)" stroke="none"></path><path id="SvgjsPath8852" d="M88.64 126.16s2.22 4.74 3.61 6.45 4.63 2.76 8.5 2.83 6.93-2.13 7.9-3.18 4.11-7.24 4.11-7.24-10.77 4.8-12.51 4.69-8.03-2.3-8.57-2.46-3.04-1.09-3.04-1.09z" fill="#da7c87" stroke-width="none" opacity="1" transform="translate(0 2)" stroke="none"></path><path id="SvgjsPath8853" d="M113.83 124.15c-4.53 1.15-8.14 3.43-13.6 4.82-2.19-.21-4.23-.98-6.26-1.56-2.22-.63-4.39-1.41-6.58-2.13-.26-.09-.42.31-.18.44 2.07 1.14 4.23 2.04 6.46 2.82 2.09.73 4.39 1.64 6.63 1.72.53-.05 1.1-.3 1.27-.35 4.48-1.44 8.35-3.02 12.49-5.23.28-.17.08-.61-.23-.53z" fill="#cb5f6c" stroke-width="none" opacity="1" transform="translate(0 2)" stroke="none"></path></g></g><g id="svga-group-eyes-left-move" transform="matrix(1,0,0,1,2,0)"><g id="svga-group-eyes-left"><g id="svga-group-eyesback-left"><path id="SvgjsPath8643" d="M90.2 96.4s-.9.8-3.3 1.1-8.7 1.1-13.3-.2c-4.6-1.3-4.2-1.5-4.3-2.1-.1-.5.7-2.4 5-3.2 4.3-.8 8.5.1 10.6.9 2 .9 5.3 3.5 5.3 3.5z" fill="#ffffff" stroke-width="none" opacity="1"></path></g><g id="svga-group-eyesiriswrapper-left" transform="matrix(1,0,0,1,0,0)"><g id="svga-group-eyesiriscontrol-left" transform="matrix(1,0,0,1,0,0)"><g id="svga-group-eyesiris-left"><path id="SvgjsPath8507" d="M77.2 88.9c2.5-1.6 5.9-.9 7.6 1.6 1.6 2.5.9 5.9-1.6 7.6-2.5 1.6-5.9.9-7.6-1.6s-.9-5.9 1.6-7.6z" fill="#9b1d1b" stroke-width="none" opacity="1"></path><path id="SvgjsPath8508" d="M84.8 90.5c.4.6.7 1.3.8 2 .2.7.2 1.5.1 2.2s-.4 1.5-.8 2.1c-.4.6-1 1.2-1.6 1.6-.7.4-1.4.6-2.1.7-.7.1-1.5.1-2.2-.1-1.4-.3-2.7-1.2-3.6-2.4-.4-.6-.8-1.3-.9-2s-.2-1.5 0-2.3c.2-.8.4-1.5.9-2.1.4-.6 1-1.2 1.6-1.6.7-.4 1.4-.7 2.1-.8.8-.1 1.5-.1 2.2.1 1.5.5 2.8 1.4 3.5 2.6zm0 .1-.3-.4c-.1-.1-.2-.3-.4-.4-.1-.1-.3-.2-.4-.3-.1-.1-.3-.2-.4-.3-.6-.4-1.3-.6-1.9-.7-1.4-.2-2.7.1-3.8.8-1.1.7-1.9 1.9-2.2 3.2-.3 1.3-.1 2.7.6 3.9.3.6.8 1.1 1.4 1.5.6.4 1.2.7 1.9.8.7.1 1.4.1 2.1-.1s1.3-.5 1.8-.8c.6-.4 1-.9 1.4-1.4.4-.6.7-1.2.9-1.8.2-.7.3-1.4.2-2.1-.3-.6-.5-1.3-.9-1.9z" fill="#7c0200" stroke-width="none" opacity="1"></path><path id="SvgjsPath8509" d="M80.2 91.6c1.1 0 1.9.9 1.9 1.9s-.9 1.9-1.9 1.9-1.9-.9-1.9-1.9.8-1.9 1.9-1.9z" fill="#000000" stroke-width="none" opacity="1"></path><path id="SvgjsPath8510" d="M80.2 95.7c-1.2 0-2.1-.9-2.1-2.1 0-1.2.9-2.1 2.1-2.1s2.1.9 2.1 2.1c0 1.1-.9 2.1-2.1 2.1zm0-3.9c-1 0-1.8.8-1.8 1.8s.8 1.8 1.8 1.8 1.8-.8 1.8-1.8-.8-1.8-1.8-1.8z" fill="#6d0200" stroke-width="none" opacity="1"></path><path id="SvgjsPath8511" d="M77.7 89.5c.4-.3 1.2.3 1.7 1.1.5.9.6 1.8.1 2-.4.3-1.2-.3-1.7-1.1-.5-.9-.5-1.8-.1-2zm3.7 5c.4 0 .7.3.7.7s-.3.7-.7.7-.7-.3-.7-.7.4-.7.7-.7z" fill="#ffffff" stroke-width="none" opacity="1"></path></g></g></g><g id="svga-group-eyesfront-left"><path id="SvgjsPath8651" d="M73.6 97.3c4.6 1.3 10.9.5 13.3.2 2.4-.3 3.3-1.1 3.3-1.1s-3.2-2.6-5.3-3.5c-2.1-.9-6.3-1.7-10.6-.9-3.2.6-4.4 1.8-4.8 2.5 0-6.3 4.8-11.5 10.6-11.5 5.9 0 10.6 5.2 10.6 11.5S86 106 80.1 106c-5.5 0-10-4.5-10.6-10.4.3.5 1.2.8 4.1 1.7z" fill="#f0c7b1" stroke-width="none" opacity="1" stroke="none"></path><path id="SvgjsPath8652" d="M90.1 95.9c-1.2-3.3-4.1-5.6-7.5-6.2-3.9-.7-7.5 1-10.7 2.9-.1 0-.2-.1-.1-.1 5.5-4.7 16.4-4.9 18.5 3.5-.1-.1-.2 0-.2-.1z" fill="#e1ac8f" stroke-width="none" opacity="1" stroke="none"></path><path id="SvgjsPath8653" d="M90.2 96.6c-5.3-4.4-12.4-6.2-18.9-3.1-.3.1-.5.3-.8.4-1 1.3-.9 2.1.4 2.2.7.2 1.4.4 2.1.5 1.8.4 3.7.6 5.6.7 3.4.2 6.7-.1 10-.4.2 0 .2.2 0 .3-4.4 1.4-9.2 1.3-13.7.7-1.6-.2-8.7-.9-5.9-4.3 1-1.2 3.2-1.7 4.7-2 2.1-.5 4.2-.6 6.3-.4 3.8.5 7.7 2.3 10.3 5.2.2.1 0 .3-.1.2z" fill="#000000" stroke-width="none" opacity="1" stroke="none"></path></g></g></g><g id="svga-group-eyes-right-move" transform="matrix(1,0,0,1,-2,0)"><g id="svga-group-eyes-right"><g id="svga-group-eyesback-right"><path id="SvgjsPath8644" d="M109.8 96.4s.9.8 3.3 1.1 8.7 1.1 13.3-.2c4.6-1.3 4.2-1.5 4.3-2.1.1-.5-.7-2.4-5-3.2-4.3-.8-8.5.1-10.6.9-2 .9-5.3 3.5-5.3 3.5z" fill="#ffffff" stroke-width="none" opacity="1"></path></g><g id="svga-group-eyesiriswrapper-right" transform="matrix(1,0,0,1,0,0)"><g id="svga-group-eyesiriscontrol-right" transform="matrix(1,0,0,1,0,0)"><g id="svga-group-eyesiris-right"><path id="SvgjsPath8512" d="M117 89c2.5-1.6 5.9-.9 7.6 1.6 1.6 2.5.9 5.9-1.6 7.6-2.5 1.6-5.9.9-7.6-1.6-1.7-2.6-1-6 1.6-7.6z" fill="#9b1d1b" stroke-width="none" opacity="1"></path><path id="SvgjsPath8513" d="M124.6 90.5c.4.6.7 1.3.8 2 .2.7.2 1.5.1 2.2s-.4 1.5-.8 2.1c-.4.6-1 1.2-1.6 1.6-.7.4-1.4.6-2.1.7-.7.1-1.5.1-2.2-.1-1.4-.3-2.7-1.2-3.6-2.4-.4-.6-.8-1.3-.9-2s-.2-1.5 0-2.3c.2-.8.4-1.5.9-2.1.4-.6 1-1.2 1.6-1.6.7-.4 1.4-.7 2.1-.8.8-.1 1.5-.1 2.2.1 1.5.5 2.7 1.4 3.5 2.6zm-.1.1-.3-.4c-.1-.1-.2-.3-.4-.4-.1-.1-.3-.2-.4-.3-.1-.1-.3-.2-.4-.3-.6-.4-1.3-.6-1.9-.7-1.4-.2-2.7.1-3.8.8-1.1.7-1.9 1.9-2.2 3.2-.3 1.3-.1 2.7.6 3.9.3.6.8 1.1 1.4 1.5.6.4 1.2.7 1.9.8.7.1 1.4.1 2.1-.1s1.3-.5 1.8-.8c.6-.4 1-.9 1.4-1.4.4-.6.7-1.2.9-1.8.2-.7.3-1.4.2-2.1-.3-.6-.5-1.3-.9-1.9z" fill="#7c0200" stroke-width="none" opacity="1"></path><path id="SvgjsPath8514" d="M119.9 91.6c1.1 0 1.9.9 1.9 1.9s-.9 1.9-1.9 1.9-1.9-.9-1.9-1.9.9-1.9 1.9-1.9z" fill="#000000" stroke-width="none" opacity="1"></path><path id="SvgjsPath8515" d="M119.9 95.7c-1.2 0-2.1-.9-2.1-2.1 0-1.2.9-2.1 2.1-2.1s2.1.9 2.1 2.1c.1 1.1-.9 2.1-2.1 2.1zm0-3.9c-1 0-1.8.8-1.8 1.8s.8 1.8 1.8 1.8 1.8-.8 1.8-1.8-.8-1.8-1.8-1.8z" fill="#6d0200" stroke-width="none" opacity="1"></path><path id="SvgjsPath8516" d="M117.4 89.5c.4-.3 1.2.3 1.7 1.1.5.9.6 1.8.1 2s-1.2-.3-1.7-1.1c-.5-.9-.5-1.8-.1-2zm3.8 5c.4 0 .7.3.7.7s-.3.7-.7.7-.7-.3-.7-.7.3-.7.7-.7z" fill="#ffffff" stroke-width="none" opacity="1"></path></g></g></g><g id="svga-group-eyesfront-right"><path id="SvgjsPath8654" d="M126.4 97.3c-4.6 1.3-10.9.5-13.3.2-2.4-.3-3.3-1.1-3.3-1.1s3.2-2.6 5.3-3.5c2.1-.9 6.3-1.7 10.6-.9 3.2.6 4.4 1.8 4.8 2.5 0-6.3-4.8-11.5-10.6-11.5-5.9 0-10.6 5.2-10.6 11.5S114 106 119.9 106c5.5 0 10-4.5 10.6-10.4-.3.5-1.2.8-4.1 1.7z" fill="#f0c7b1" stroke-width="none" opacity="1" stroke="none"></path><path id="SvgjsPath8657" d="M109.9 95.9c1.2-3.3 4.1-5.6 7.5-6.2 3.9-.7 7.5 1 10.7 2.9.1 0 .2-.1.1-.1-5.5-4.7-16.4-4.9-18.5 3.5.1-.1.2 0 .2-.1z" fill="#e1ac8f" stroke-width="none" opacity="1" stroke="none"></path><path id="SvgjsPath8658" d="M109.8 96.6c5.3-4.4 12.4-6.2 18.9-3.1.3.1.5.3.8.4 1 1.3.9 2.1-.4 2.2-.7.2-1.4.4-2.1.5-1.8.4-3.7.6-5.6.7-3.4.2-6.7-.1-10-.4-.2 0-.2.2 0 .3 4.4 1.4 9.2 1.3 13.7.7 1.6-.2 8.7-.9 5.9-4.3-1-1.2-3.2-1.7-4.7-2-2.1-.5-4.2-.6-6.3-.4-3.8.5-7.7 2.3-10.3 5.2-.2.1 0 .3.1.2z" fill="#000000" stroke-width="none" opacity="1" stroke="none"></path></g></g></g><g id="svga-group-facehighlight-single"></g><g id="svga-group-eyebrows-left-move" transform="matrix(1,0,0,1,0,0)"><g id="svga-group-eyebrows-left-rotate" transform="matrix(0.9914448857307434,0.13052621483802795,-0.13052621483802795,0.9914448857307434,11.437646865844727,-9.537738800048828)"><g id="svga-group-eyebrows-left"><path id="SvgjsPath8053" d="M67.6 82.5c.1-.5.6-.7 1-1 .3-.2.7-.5 1-.7 0-.1 0-.2.1-.3 1.1-1.1 2.9-1.6 4.4-2.1.8-.8 2.1-.7 3.3-.4 1.4-.5 3.4.2 4.5.9.1.1.2.1.2.2.1 0 .3.1.4.1.8.2 1.4.4 1.9 1 1.2.5 2.4 1.1 3.2 2.1.6.2 1.2.5 1.7 1 .2.1.4.2.5.4h.2c.2 0 .4.2.6.3v-.2c-.1-.2.2-.3.3-.1.5.7.6 1.8.1 2.5 0 .1-.1.3-.1.4-.3.4-.6.5-.9.5-.6.2-1.2.2-1.7-.2-2-.1-4.2-1.3-5.9-2.3-.9-.5-2.5-1.3-3.5-2.3-.9-.1-1.8-.3-2.7-.5-1.1-.2-2.3-.2-3.3-.6-.2.1-.4.1-.6.2-.5.3-1.1.6-1.6.8-.6.3-1.2.6-1.9.6-.3 0-.5.2-.8.2-.3 0-.5-.3-.4-.5z" fill="#2a232b" stroke-width="none" opacity="1"></path><path id="SvgjsPath8054" d="M85.9 81.1c0-.1.1-.3.3-.1 1.3 1.3 1.8 3.6 1 5.3-.1.2-.4.1-.4-.1-.1-.1-.1-.2-.2-.3-.1-.1.1-.2.2-.2h.1c.1-.7.2-1.4 0-2.1-.2-.8-.6-1.6-1-2.5zm1.8.7c1.3 1.2 2.6 3.4 1.9 5.3-.1.2-.4.2-.4-.1.1-2-.9-3.2-1.8-4.9-.2-.3.1-.5.3-.3zm-8-3.4c3.3.5 5.1 4.2 5.8 7.1.1.2-.2.3-.3.1-.7-1.2-1.1-2.6-1.9-3.8-1-1.4-2.4-2.2-3.7-3.1-.2-.1-.1-.3.1-.3zm-2.6-.7c1.1 1 1.8 2.4 2.8 3.5 1.1 1.2 2.3 2.1 3.6 3 .2.1 0 .4-.2.3-2.9-1.3-4.9-3.8-6.7-6.4-.3-.3.2-.6.5-.4zm-2.4.3c.8.1 1.3.9 1.8 1.5.4.5.7 1 1.3 1.3.5.3.9.6 1.3 1 .2.2-.1.5-.3.3-.8-.6-1.7-.9-2.4-1.7-.3-.3-.5-.7-.8-1.1-.3-.4-.7-.6-1-1-.2 0-.1-.3.1-.3zm-5.3 3c1.5-1.4 4.2-1.4 5.8-.2.2.1.1.4-.2.4-1.1-.3-2.1-.6-3.3-.4-.8.2-1.4.6-2.2.6-.2-.1-.3-.3-.1-.4z" fill="#3a353a" stroke-width="none" opacity="1"></path><path id="SvgjsPath8055" d="M90.6 82.6c-.1-.1-.2 0-.2.1.2.7.7 1.5.7 2.3 0 1.6-1.5 1.9-2.7 1.6-.6-.1-1.2-.3-1.8-.6.3-1.7-.2-3.7-1.2-5.3 1.5 1 2.9 2.3 4.5 2.9.2.1.4-.2.3-.4-1.3-1.9-4.1-3.2-6.1-4.2-2.2-1.1-4.4-1.8-6.9-1.7-2.3 0-4.5.6-6.4 1.9-2.1 1.4-3.7 3.3-5.5 4.9-.4.4.2 1 .7.7 2.6-2.2 5.9-3.2 9.3-2.8 3.2.4 5.8 2.3 8.5 3.8 1.8 1 4.7 2.5 6.8 1.6 2-1 1.1-3.5 0-4.8zm-14.1-4.4c-.1.1-.1.1-.1.2.3 1 1 1.9 1.7 2.7.2.3.4.5.6.8-.3-.1-.6-.2-.8-.3-.1 0-.2-.1-.3-.1-1.2-.7-2.2-1.6-3.4-2.4-.1-.1-.3.1-.2.2.5.7 1.1 1.3 1.8 1.7-.2 0-.5-.1-.7-.1-.2-.1-.3-.2-.5-.3-.1-.1-.2-.1-.3-.2-.1 0-.2-.1-.3-.1-.1-.1-.2.1-.1.2l.2.2c.1.1.2.1.2.1-2.1-.1-4.2.4-6.2 1.3 2.4-2.1 5.2-3.6 8.4-3.9zm9.5 7.6c-.6-.2-1.1-.5-1.6-.8-1.4-.8-2.9-1.7-4.3-2.5-.5-.6-.9-1.2-1.4-1.8-.6-.8-1.1-1.8-1.8-2.5h.8c2.4.1 4.5.9 6.6 2 .5.9 1 1.8 1.3 2.8.3.9.3 1.9.4 2.8z" fill="#1b141c" stroke-width="none" opacity="1"></path></g></g></g><g id="svga-group-eyebrows-right-move" transform="matrix(1,0,0,1,0,0)"><g id="svga-group-eyebrows-right-rotate" transform="matrix(0.9914448857307434,-0.13052619993686676,0.13052619993686676,0.9914448857307434,-9.713929176330566,16.57065200805664)"><g id="svga-group-eyebrows-right"><path id="SvgjsPath8056" d="M132.4 82.5c-.1-.5-.6-.7-1-1-.3-.2-.7-.5-1-.7 0-.1 0-.2-.1-.3-1.1-1.1-2.9-1.6-4.4-2.1-.8-.8-2.1-.7-3.3-.4-1.4-.5-3.4.2-4.5.9-.1.1-.2.1-.2.2-.1 0-.3.1-.4.1-.8.2-1.4.4-1.9 1-1.2.5-2.4 1.1-3.2 2.1-.6.2-1.2.5-1.7 1-.2.1-.4.2-.5.4h-.2c-.2 0-.4.2-.6.3v-.2c.1-.2-.2-.3-.3-.1-.5.7-.6 1.8-.1 2.5 0 .1.1.3.1.4.3.4.6.5.9.5.6.2 1.2.2 1.7-.2 2-.1 4.2-1.3 5.9-2.3.9-.5 2.5-1.3 3.5-2.3.9-.1 1.8-.3 2.7-.5 1.1-.2 2.3-.2 3.3-.6.2.1.4.1.6.2.5.3 1.1.6 1.6.8.6.3 1.2.6 1.9.6.2.2.5.3.8.3.3-.1.5-.4.4-.6z" fill="#2a232b" stroke-width="none" opacity="1"></path><path id="SvgjsPath8057" d="M114.1 81.1c.1-.2-.1-.3-.2-.2-1.3 1.3-1.8 3.6-1 5.3.1.2.4.1.4-.1.1-.1.1-.2.2-.3.1-.1-.1-.2-.2-.2h-.1c-.1-.7-.2-1.4 0-2.1.1-.7.5-1.5.9-2.4zm-1.8.7c-1.3 1.2-2.6 3.4-1.9 5.3.1.2.4.2.4-.1-.1-2 .9-3.2 1.8-4.9.2-.3-.1-.5-.3-.3zm8-3.4c-3.3.5-5.1 4.2-5.8 7.1-.1.2.2.3.3.1.7-1.2 1.1-2.6 1.9-3.8 1-1.4 2.4-2.2 3.7-3.1.2-.1.1-.3-.1-.3zm2.6-.7c-1.1 1-1.8 2.4-2.8 3.5-1.1 1.2-2.3 2.1-3.6 3-.2.1 0 .4.2.3 2.9-1.3 4.9-3.8 6.7-6.4.3-.3-.2-.6-.5-.4zm2.4.3c-.8.1-1.3.9-1.8 1.5-.4.5-.7 1-1.3 1.3-.5.3-.9.6-1.3 1-.2.2.1.5.3.3.8-.6 1.7-.9 2.4-1.7.3-.3.5-.7.8-1.1.3-.4.7-.6 1-1 .2 0 .1-.3-.1-.3zm5.3 3c-1.5-1.4-4.2-1.4-5.8-.2-.2.1-.1.4.2.4 1.1-.3 2.1-.6 3.3-.4.8.2 1.4.6 2.2.6.2-.1.3-.3.1-.4z" fill="#3a353a" stroke-width="none" opacity="1"></path><path id="SvgjsPath8058" d="M109.5 87.3c2.1.9 4.9-.6 6.8-1.6 2.8-1.5 5.3-3.4 8.5-3.8 3.4-.4 6.7.6 9.3 2.8.4.4 1.1-.3.6-.7-1.9-1.6-3.4-3.6-5.5-4.9-1.9-1.2-4.1-1.8-6.4-1.9-2.4 0-4.7.7-6.9 1.7-2 1-4.8 2.3-6.1 4.2-.1.2.1.5.3.4 1.6-.6 3-1.9 4.5-2.9-1 1.6-1.6 3.6-1.2 5.3l-1.8.6c-1.3.3-2.7 0-2.7-1.6 0-.8.4-1.6.7-2.3 0-.1-.1-.2-.2-.1-1.1 1.4-2 3.9.1 4.8zm22.3-5.1c-1.9-.9-4-1.4-6.2-1.3.1 0 .2-.1.2-.1l.2-.2c.1-.1 0-.3-.1-.2-.1 0-.2.1-.3.1-.1 0-.2.1-.3.2-.2.1-.4.2-.5.3-.2 0-.5.1-.7.1.7-.5 1.4-1 1.8-1.7.1-.1-.1-.3-.2-.2-1.2.8-2.2 1.7-3.4 2.4-.1 0-.2.1-.3.1-.3.1-.6.2-.8.3.2-.2.4-.5.6-.8.6-.8 1.3-1.7 1.7-2.7 0-.1 0-.2-.1-.2 3.3.2 6.1 1.7 8.4 3.9zm-17.4.8c.3-1 .8-1.9 1.3-2.8 2.1-1.1 4.2-1.9 6.6-2h.8c-.7.7-1.2 1.7-1.8 2.5-.4.6-.9 1.2-1.4 1.8-1.5.8-2.9 1.7-4.3 2.5-.5.3-1.1.6-1.6.8.1-.9.1-1.9.4-2.8z" fill="#1b141c" stroke-width="none" opacity="1"></path></g></g></g><g id="svga-group-beardwrap"><g id="svga-group-beard-single-move" transform="matrix(1,0,0,1,0,0)"><g id="svga-group-beard-single"><path id="SvgjsPath8048" d="M121.53 116.89c-1.14-2.08-5.49-1.89-9.92-.73-4.43 1.15-7.67 1.83-12.1 1.94-4.77.12-11.37-1.27-15.35-1.73s-7.07-.3-7.41 2.59.37 7.11.37 7.11l.23-1.15s.43 4.89.54 6.96c.11 2.08 1.86 5.4 3.09 7.42 1.1 1.81 4.07 4.82 6.73 6.27 2.9 1.58 7.71 3.39 12.48 3.28 4.77-.12 9.05-1.47 10.69-2.51 7.59-4.82 10.15-11.27 10.15-11.27l.11.69s.57-1.27.8-4.16c.24-2.88.73-12.63-.41-14.71zm-3.36 18.95c-.85 1.43-3.88 5.52-6.29 7.07-3.29 2.12-8.63 3.28-8.86 2.59s-.11-3.91-.34-4.49c-.23-.58-4.04-.55-4.73-.09s.15 4.57-.77 4.57-5.2-.79-7.96-2.29-6.91-6-8.17-8.89-1.84-13.04-1.96-14.66 3.8-1.27 9.44-.23 12.54.96 12.54.96 3.01.16 10.15-1.69 7.18-1.26 8.33-.11.94 13.38-1.38 17.26z" fill="#2a232b" stroke-width="none" opacity="1"></path></g></g></g><g id="svga-group-mustache-single-move" transform="matrix(1,0,0,1,0,0)"><g id="svga-group-mustache-single"></g></g><g id="svga-group-nose-single-move" transform="matrix(1,0,0,1,0,0)"><g id="svga-group-nose-single"><path id="SvgjsPath8863" d="M102.45 100.66c.12 1.28.05 5.25.48 6.39.43 1.14.81 1.43 2 .43s2.34-.57 3.05 1c.72 1.57 1.34 4.34.38 6.2-.95 1.86-1.86.57-2.77.52-.91-.05-1.96.72-2.24 2.29-.29 1.57-.91 4.05-2.48 4.34s-3.24-1-3.86-2.62c-.62-1.62-.76-4.44-1.76-4.86-1-.43-2.77 1.05-3.29.95-.52-.1-1.05-3.1-.76-5.15.29-2.05.67-3.05 2.24-3.15 1.57-.1 2.36 1.82 2.87 1.51.51-.32.75-1.46.89-2.89s-.1-3.72-.14-4.58c-.05-.86 1.1-2.19 2.77-2.19 1.67-.01 2.53.76 2.62 1.81z" fill="#f0c7b1" stroke-width="none" opacity="1" transform="translate(0 1)" stroke="none"></path><path id="SvgjsPath8864" d="M95.45 108.01c.11.11.47.55.58.66.04.04.08.04.13.04-.12.36-.25.73-.4 1.1-.1.24.29.39.42.18 2.18-3.58 1.35-7.86.86-11.78-.61-4.9.04-9.15 1.26-13.88.02-.08-.1-.13-.13-.06-1.75 3.52-2.16 7.85-1.85 11.72.34 4.3 1.18 8.3-.05 12.41-.69-1.49-2.79-2.57-4.15-1.24-1.68 1.63-1.47 5.74-.84 7.75.08.26.54.23.5-.07-.18-1.62-.39-3.14-.14-4.77.06-.41.12-.84.25-1.24.29-.93.34-.97 1.37-1.35 1.13-.44 1.36-.28 2.19.53z" fill="#c27b55" stroke-width="none" opacity="1" transform="translate(0 1)" stroke="none"></path><path id="SvgjsPath8865" d="M97.19 116.41c.16.16.39.03.41-.17.3-2.38-3.97-3.61-5.11-1.55-.1.18.06.38.26.34.94-.2 1.74-.63 2.71-.21.74.32 1.17 1.04 1.73 1.59z" fill="#c27b55" stroke-width="none" opacity="1" transform="translate(0 1)" stroke="none"></path><path id="SvgjsPath8866" d="M104.81 114.92c-.65.22-1.31.72-1.4 1.43-.03.24.31.34.46.19.4-.39.69-.79 1.28-.91.46-.1.96.17 1.38-.03.1-.05.14-.18.12-.28-.2-.7-1.32-.58-1.84-.4z" fill="#c27b55" stroke-width="none" opacity="1" transform="translate(0 1)" stroke="none"></path><path id="SvgjsPath8867" d="M108.1 107.93c-1.02-1.89-2.69-1.75-3.75.07-.07.12.09.25.19.15.89-.88 2.22-1.16 3.04.09.38.58.58 1.39.72 2.06.32 1.6-.01 2.99-.3 4.56-.05.27.33.48.48.2 1.13-2.13.74-5.07-.38-7.13z" fill="#c27b55" stroke-width="none" opacity="1" transform="translate(0 1)" stroke="none"></path><path id="SvgjsPath8868" d="M102.81 106.05c-.08-3.69.08-7.29.65-10.95.01-.07-.09-.11-.11-.03-1.24 3.55-1.51 7.32-.69 11 .02.09.16.07.15-.02z" fill="#c27b55" stroke-width="none" opacity="1" transform="translate(0 1)" stroke="none"></path><path id="SvgjsPath8869" d="M103.19 117c-.36 1.79-.83 4.54-3.14 4.5-.87-.02-1.04-.18-1.59-.8-.36-.41-.66-.87-.95-1.33-.56-.89-1.02-1.85-1.36-2.84-.05-.16-.28-.09-.25.07.38 1.99 1.7 6.22 4.39 5.98 2.37-.2 4.03-3.49 3.32-5.59-.05-.18-.37-.22-.42.01z" fill="#c27b55" stroke-width="none" opacity="1" transform="translate(0 1)" stroke="none"></path><path id="SvgjsPath8870" d="M107.18 109.2c-.8-.84-2.02-1.05-2.81-.13-.18.21-.01.6.29.5.58-.18 1.39.22 1.67.72.4.72.09 1.54.38 2.26.12.32.59.56.86.23.78-.96.43-2.72-.39-3.58z" fill="#f8d5c3" stroke-width="none" opacity="1" transform="translate(0 1)" stroke="none"></path><path id="SvgjsPath8871" d="M102.78 110.71c-.06-2.52-.74-5.04-1.22-7.5-.57-2.89.87-5.37 1.05-8.22.17-2.63-.32-5.27-1-7.8-.12-.46-.75-.25-.69.19.42 2.93 1.12 5.91.64 8.88-.35 2.2-1.31 4.26-1.54 6.49-.24 2.38.21 4.85.14 7.24-.04 1.19.01 2.38-.04 3.57-.06 1.26-.36 2.54.07 3.75.17.48.88.82 1.27.33 1.36-1.7 1.38-4.81 1.32-6.93z" fill="#f8d5c3" stroke-width="none" opacity="1" transform="translate(0 1)" stroke="none"></path></g></g><g id="svga-group-hair-front"><path id="SvgjsPath9266" d="M55.5 85.1s3.2 7.7 4.5 7.8c0 0 .1-5.2.4-8.8s.7-12.8 8.1-21.6 12.9-11.7 12.9-11.7S91 57 97.5 57.3s16.9.1 25.8-6.7c0 0 6.7 7.4 10 16.1s5.4 16.8 5.5 22.7.6 6.4 2.8 3.8 2.8-8 2.8-8 .1-12.4-2.3-19.4-5.4-15.4-13.7-21.8-16.2-9.1-21.7-10c-5.5-1-15.8-.3-23.8 2.9S67.8 45.3 63 53s-7 16.6-7.3 23.6-.2 8.5-.2 8.5z" fill="#2a232b" stroke-width="none" opacity="1" stroke="none"></path><path id="SvgjsPath9267" d="M135.7 50.7C128.4 40.5 115 33.6 102.5 33c-13.7-.7-28.7 5.2-37.3 16-8.2 10.2-11 23.7-10 36.6 0 .2.1.3.2.3.2.7.5 1.3.8 2.1.4 1 .8 2 1.3 3 .5 1.2 1.4 2.8 2.9 2.4.4 0 .8-.3.8-.8 0-8.1.3-16.9 4.2-24.1 3.8-7 10.2-12 16.3-17 5.5 4.7 13.2 7 20.2 7.1 7.1.1 16.4-2.1 21.6-7.4 9 12.9 14.9 26.6 14.7 42.6 0 .2.1.3.2.4.2 2 2.9.8 3.7-.3 1.4-1.9 1.6-4.5 2.1-6.9.3-.1.5-.3.5-.7 1-12.2-1.8-25.6-9-35.6zm3.9 43c.3-15.2-4.8-32-15.4-43.2l.1-.1c.4-.5-.1-1.1-.6-.8-3.6 1.7-6.5 4-10.3 5.4-3.7 1.3-7.6 2-11.4 1.9-8.2-.1-14.8-3.5-21.6-7.7-.3-.2-.7.3-.4.6.2.3.5.5.8.8-6.5 5-13.3 10.3-17 17.8-3.6 7-4 15.4-4.1 23.2-1.6-1.8-1.9-4.9-3.7-6.5-.6-12 2-24.4 9.2-34.1 8.4-11.3 23.5-17.3 37.4-16.6 12.8.7 26.7 8.5 33.4 19.4 5.9 9.6 8.2 21.5 7.5 32.7-.5.8-.8 1.8-1.1 2.9-.3.8-1.2 4.5-2.8 4.3zM91.8 52.6C86.7 50.1 83 47 80 42.1c-.2-.3-.7-.1-.6.2 1.7 5.2 6.6 9.8 12.1 10.8.4.1.7-.3.3-.5zm5.5-.2c-3.1-.9-6-2.2-8.3-4.5-.3-.3-.8.2-.5.5 2.3 2.6 5.3 4.3 8.8 4.5.2.1.3-.4 0-.5zm9.4-.3c-1.7-.2-3.2-.4-4.8-1-.3-.1-.5.4-.2.5 1.5.6 3.3 1 4.9.9.4 0 .4-.4.1-.4zm-31.5 1.5c-1.5-.4-2.6-1.2-3.8-2.1-.3-.2-.6.2-.4.5 1 1.2 2.6 1.8 4.1 2 .3.1.4-.4.1-.4zm-3.6 2.5c-.6-.2-1.2-.6-1.8-.7-.2 0-.4.2-.2.3.5.4 1.1.6 1.7.8.3.3.6-.2.3-.4zm62.6 1.5c.1-.3-.2-.6-.5-.5-.4.1-.8.4-1.3.5-.5.1-1 .1-1.4 0-.6-.2-.8.7-.3 1 1.1.4 3 .3 3.5-1zm.5 3.3c-.5 0-1.1.2-1.6.3-.3.1-.2.6.1.5.5-.1 1.1-.2 1.5-.5.3-.1.2-.3 0-.3zm3.9 7.9c-.5 0-.9.2-1.3.5-.5.2-.1 1 .4.7.4-.2.8-.4 1.1-.8.2-.2 0-.4-.2-.4z" fill="#1b141c" stroke-width="none" opacity="1" stroke="none"></path><path id="SvgjsPath9268" d="M101 48.2c-4.7-1.2-8.7-3.4-11.6-7.3-.2-.3-.7 0-.5.3 2.8 4 7 7 12 7.4.3 0 .3-.3.1-.4zm-13.8-3.7c-1.7-1.2-3.1-2.2-3.9-4.2-.1-.3-.5-.2-.4.1.6 1.9 2.1 4 4.2 4.5.2.1.3-.2.1-.4zm9.7 4.8c-1.6-.8-3.2-1.5-4.6-2.5-.1-.1-.3.1-.2.2 1.4 1.1 3 2.2 4.7 2.6.2.1.4-.2.1-.3zm11.9 5.2c-2.6.4-4.9.6-7.5.1-.2 0-.3.3-.1.4 2.5.6 5.2.8 7.7 0 .2-.2.1-.5-.1-.5zm8.2-7.2c-3.8 1-7.7 2.2-11.7 1.5-.2 0-.3.3-.1.3 4.1 1 8 0 11.9-1.5.2-.1.1-.4-.1-.3zm-9.7-4c-2.2-.3-4.3-.5-6.5-1.2-.3-.1-.4.3-.1.4 2.1.8 4.3 1.3 6.6 1.1.2 0 .2-.3 0-.3zm-31.7 8.2c-1.5-.9-2.9-1.8-4.1-3-.2-.2-.4.1-.2.2 1.1 1.3 2.6 2.5 4.2 3.1.2.1.3-.2.1-.3zM68.7 56c-1.2-.9-2.6-1.6-3.8-2.6-.2-.2-.6.1-.4.4 1.2 1 2.5 2.1 4.1 2.6.2.1.3-.2.1-.4zm-2.4 2.4c-.7-.5-1.6-.7-2.4-1.1-.3-.1-.6.3-.3.5.8.4 1.6.8 2.5 1 .3.1.4-.3.2-.4zm-3.5 4c-.3-.4-.7-.8-1.1-1.1-.2-.2-.6.1-.4.4.4.4.7.7 1.1 1 .3.2.6 0 .4-.3zm69.2-8.8c-.8.5-1.5.9-2.5.8-.3 0-.3.5 0 .5 1 .1 2.1-.2 2.8-1 .2-.1-.1-.4-.3-.3zm6.3 8.5c-.6-.2-1.2-.1-1.8-.1-.4 0-.4.6 0 .6.6 0 1.2.1 1.8-.1.2 0 .2-.3 0-.4zm-.1 3.7c-.5-.1-1-.1-1.5-.1-.3 0-.3.5 0 .5.5 0 1 0 1.5-.1.3.1.3-.2 0-.3zM98.8 35.2c-4.8-.5-10.2-.7-14.5 2-.2.1-.1.6.2.5 4.7-2 9.3-1.9 14.3-2 .3 0 .3-.5 0-.5zm36.3 17.7c-.1-.2-.4 0-.3.2 4.6 8.4 7.2 17.1 8.7 26.5 0 .3.5.2.5-.1-.7-9.5-4-18.5-8.9-26.6z" fill="#3a353a" stroke-width="none" opacity="1" stroke="none"></path></g><g id="svga-group-glasses-single-move" transform="matrix(1,0,0,1,0,0)"><g id="svga-group-glasses-single"></g></g></g></g></g><rect id="svga-credit-rect" width="200" height="15" x="0" y="185" fill="#ecf0f1" opacity="0.5" style="display: none;"></rect><text id="svga-credit-text" font-family="Avenir Next, Roboto, Helvetica, Arial, sans-serif" font-size="10px" text-anchor="start" font-weight="400" size="10px" anchor="start" weight="400" fill="#333333" x="33.3563232421875" y="182.58719658851624" style="display: none;"><tspan id="SvgjsTspan8047" dy="13" x="33.3563232421875">Created on AvatarMaker.com</tspan></text></g><defs id="SvgjsDefs7994"></defs></svg>