<svg xmlns="http://www.w3.org/2000/svg" version="1.1" width="600px" height="600px" viewBox="0 0 200 200" style="overflow:hidden!important;"><g id="svga-group-wrapper"><g id="svga-group-backs-single"><path id="SvgjsPath16175" d="M0 0h200v200H0V0z" fill="#ecf0f1" stroke-width="none" opacity="1"></path></g><g id="svga-group-humanwrap-move" transform="matrix(1,0,0,1,0,0)"><g id="svga-group-humanwrap"><g id="svga-group-hair-back-move" transform="matrix(1,0,0,1,0,0)"><g id="svga-group-hair-back"></g></g><g id="svga-group-humanbody-back"><path id="SvgjsPath16110" d="M166.5 181.1c-10.9-6.6-27.6-8.4-35-12.1-4.9-2.5-9.1-4.7-8.9-17.8s1.9-42.4 1.9-42.4H75.4s1.6 29.4 1.9 42.4-4.2 15.6-8.9 17.8c-7.4 3.5-24.1 5.4-35 12.1-10.8 6.6-10 18.9-10 18.9v19.7h153.3V200c-.1 0 .7-12.3-10.2-18.9z" fill="#f0c7b1" stroke-width="none" opacity="1" stroke="none"></path></g><g id="svga-group-chinshadow-single"><path id="SvgjsPath16106" d="M93 163.2c2.6 1.6 11.4 1.6 14 .1 4.5-2.5 10.6-9.1 15.6-14 .3-13.8 1.9-40.5 1.9-40.5H75.4s1.4 26.5 1.8 40.3c5.1 4.9 11.2 11.6 15.8 14.1z" fill="#d19271" stroke-width="none" opacity="0.65" stroke="none"></path></g><g id="svga-group-humanbody-front"><path id="SvgjsPath16111" d="M78.7 156.8c.5 4.8 1.7 9.4 3.1 13.9.8 2.3 1.6 4.6 2.6 6.9.8 2 1.7 4.2 3.1 5.9.3.4 1 0 .9-.5-.5-2.2-1.6-4.3-2.4-6.4-.9-2.2-1.7-4.4-2.5-6.6-1.5-4.4-2.8-8.9-4.1-13.3-.2-.4-.8-.3-.7.1zm41.3-1c-1.3 8.2-3.9 16.1-5.4 24.2-.1.4.4.5.6.2 3.1-7.7 4.1-16.1 5.1-24.3-.1-.2-.3-.2-.3-.1zm-25.8 11.9c-.9 3.6 1.9 8.6 6.2 7.6.5-.1.4-.8 0-1-1.4-.5-2.9-.9-3.9-2.1-1.1-1.2-1.5-2.9-1.4-4.5 0-.4-.8-.5-.9 0z" fill="#d19271" stroke-width="none" opacity="1" stroke="none"></path><path id="SvgjsPath16112" d="M177.3 219.7c-.1-6.6-.3-13.1-.3-19.7l-.3-.3c.1 0 .1 0 .2.1s.1.2.1.1v-1.4c0-.5-.1-.9-.1-1.4-.1-.9-.3-1.9-.5-2.8-.5-1.8-1.1-3.6-2-5.3-1.7-3.4-4.4-6.2-7.7-8.1-3.6-2.2-7.6-3.8-11.6-5.1-4-1.3-8.1-2.4-12.1-3.5-4-1.2-8.1-2.2-11.8-4.2-1.9-1-3.6-2.1-4.8-3.6-1.2-1.6-1.9-3.5-2.3-5.5-.8-4-.4-8.2-.3-12.4l.7-12.6 1.5-25.2.1-1.4h-1.4c-8.2 0-16.4 0-24.6.1l-24.6.3h-.9l.1.9c.8 11.9 1.6 23.8 2.1 35.7.1 3 .3 6 .2 8.9-.1 2.9-.4 5.9-1.6 8.6-.6 1.3-1.4 2.5-2.4 3.5s-2.3 1.8-3.6 2.4c-2.6 1.3-5.4 2.2-8.3 3-5.8 1.5-11.6 2.8-17.3 4.7-2.8.9-5.7 2-8.4 3.4-1.3.7-2.7 1.4-4 2.4-1.3.9-2.4 1.9-3.5 3.1-2.1 2.3-3.6 5.2-4.5 8.1-.5 1.5-.8 3-1 4.6-.1.8-.1 1.6-.1 2.4v2.3l-.2 17.9v1.3h1.4l38.3.2c12.8.1 25.5.1 38.3 0 12.8-.1 25.6-.1 38.3-.3 12.8-.2 25.6-.5 38.3-.7h.6v-.5zm-77.2-1.6H61.8l-37 .2-.1-16.6v-2.2c0-.7 0-1.4.1-2.1.1-1.4.4-2.8.8-4.2.8-2.7 2.1-5.3 3.9-7.5.9-1.1 2-2.1 3.1-2.9 1.1-.9 2.4-1.6 3.7-2.3 2.6-1.4 5.3-2.5 8.1-3.5 5.6-2 11.4-3.4 17.1-5.1 2.9-.8 5.8-1.7 8.5-3.1 1.3-.7 2.7-1.5 3.8-2.6 1.1-1.1 2-2.4 2.6-3.9 1.2-2.9 1.5-5.9 1.6-8.9 0-3-.1-6-.2-9l-1.3-34.8 23.5.4c7.7.1 15.4.1 23.1.1-.4 7.9-.8 15.9-1.1 23.8-.2 4.2-.2 8.4-.3 12.6 0 4.2-.2 8.5.8 12.8.5 2.1 1.3 4.2 2.8 6 1.4 1.7 3.4 2.9 5.3 3.8 3.9 1.9 8 2.8 12.1 3.8s8.2 2 12.2 3.3c4 1.3 7.9 2.8 11.5 5 3.2 1.9 5.8 4.7 7.5 8 .9 1.6 1.5 3.4 1.9 5.2.2.9.4 1.8.4 2.7.1.5.1.9.1 1.4V200l-.3 19c-12.6-.2-25.1-.5-37.7-.7-12.7-.1-25.5-.1-38.2-.2z" fill="#c27b55" stroke-width="none" opacity="1" stroke="none"></path></g><g id="svga-group-clothes-single"><path id="SvgjsPath15981" d="M179.3 220.1c0-17.5-1.6-26.7-1.6-26.7-3.2-15.2-21.5-18.1-30.1-20.5-2.8-.8-7.9-2.4-7.9-2.4-4.8 5.3-10.2 17.8-16.2 23.3-7.5 7-14.9 13-21.8 18.1-6.4-4-13.8-9.3-21.4-16.1-7.7-6.9-13.9-20.7-18.6-26.7-3.1.5-6.3 1.8-10 2.6-8.7 1.9-26.5 7.6-29.5 21.6 0 0-1.6 9.2-1.6 26.7h158.7z" fill="#ededed" stroke-width="none" opacity="1"></path><path id="SvgjsPath15982" d="m72.9 159.9.7-8.2-14.3 9-9.1 6.8 2.1 1-27.1 9.9-3.3.8-5 19.8v20.9h59.9L72 175.8l.9-15.9zm105.2 19.5-3.3-.8-27.1-9.9 2.1-1-9.1-6.8-13.8-9.3.2 8.5.8 16.1-4.8 44.1H183v-20.9l-4.9-20z" fill="#386e77" stroke-width="none" opacity="1"></path><path id="SvgjsPath15983" d="M148.5 181.7c-2-1.7-4-3.5-6-5.2l-5.9-5.3c-2-1.7-4-3.5-6-5.3 1.7 2 3.6 3.9 5.4 5.9 1.8 1.9 3.7 3.8 5.6 5.7 1.9 1.9 3.8 3.7 5.8 5.5 1.6 1.5 3.3 3 5.1 4.4-2.3 1.6-4.6 3.3-6.8 5-2.6 2-5.1 4-7.6 6.2-1.2 1.1-2.4 2.2-3.5 3.6-.3.3-.5.9-.6 1.3l-.4 1.1-.8 2.3c-1.1 3.1-2.1 6.1-3.1 9.2 1.4-2.9 2.8-5.9 4.1-8.8l1-2.2.5-1.1c.2-.4.3-.6.5-.9.9-1.1 2.2-2.2 3.4-3.2 2.5-2.1 5.1-3.9 7.6-5.9l7.8-5.7.2-.2c.3-.4.2-1.1-.2-1.4-2-1.6-4.1-3.3-6.1-5zm11.6-6.8c-3.6-1.2-7.3-2.3-11-3.2 3.5 1.6 7.1 2.9 10.7 4.1 3.6 1.2 7.3 2.3 11 3.2-3.5-1.6-7-2.9-10.7-4.1zm12.6 7.8c-1 .7-2.1 1.4-2.7 2.8-1.1 2.3-1.7 4.6-2.4 6.9-.6 2.3-1.1 4.7-1.5 7.1-.4 2.4-.7 4.8-.6 7.2.7-2.3 1.5-4.6 2.1-6.9.7-2.3 1.3-4.6 1.9-6.9l.9-3.5c.3-1.1.6-2.3 1-3.4.2-1 1.1-1.8 1.9-2.6.8-.8 1.8-1.5 2.8-2.2-1.2.3-2.3.8-3.4 1.5zm-36.1-22 4.6 3.1c1.4 1 2.8 1.9 4 3.1-.6.4-1.3.7-1.9 1.1-.8.4-1.5.9-2.2 1.3.8-.3 1.6-.7 2.4-1 .8-.3 1.6-.7 2.4-1.1h.1c.1-.1.1-.3 0-.4-1.2-1.5-2.7-2.6-4.2-3.7s-3-2.1-4.6-3.2c-3.1-2.1-6.2-4-9.1-6.3 1.2 1.4 2.6 2.6 4.1 3.8 1.4 1.2 2.9 2.2 4.4 3.3zM72 190.8l-.9-6.3-.9-6.3c-.1-.9 0-2 .1-3.1l.3-3.2c.2-2.1.4-4.2.5-6.4-.6 2.1-1 4.2-1.4 6.2l-.6 3.2c-.2 1.1-.4 2.1-.3 3.3.3 4.4.8 8.5 1.3 12.8.6 4.2 1.2 8.4 1.9 12.6.7 4.2 1.5 8.4 2.5 12.6-.2-4.3-.5-8.5-.9-12.8-.5-4.2-1.1-8.4-1.6-12.6z" fill="#4d7e86" stroke-width="none" opacity="1"></path><path id="SvgjsPath15984" d="M183.4 199.2c0-.1 0-.1 0 0-.8-3.4-1.5-6.7-2.3-10.1l-2.3-10c-.1-.3-.3-.5-.5-.5l-3.2-.9c-4.5-1.7-9-3.4-13.5-5-3.9-1.4-7.9-2.9-11.9-4.2l.4-.2c.4-.2.5-.6.3-1-.1-.1-.1-.2-.2-.3l-5.7-4.1c-1.9-1.4-3.8-2.8-5.8-4-2-1.3-4.1-2.5-6.1-3.8l-5.8-3.7c-1.1-.4-3.3-1-3.3-1s-.3 2.1-.2 4.6c.2 2.6.5 5.7 1.8 8.1.9 1.6 1.4 2.1 1.7 2.2l.3 10.7-1.7 13.7c-.9 1.1-1.8 2.2-2.8 3.2-6.7 6.3-13.7 12.4-21.1 18-4-2.5-7.9-5.1-11.7-7.9-2-1.5-3.9-3-5.8-4.6s-3.8-3.1-5.5-4.9c-1.6-1.7-3-3.5-4.3-5.4L72.8 176l.3-10.7c.2-.2.9-.8 1.6-1.9.9-1.5 2.4-4.5 2.6-6.9.2-2.3.3-5.4.3-6.2 0 0-3.4.5-4.5 1l-5.8 3.7c-2 1.2-4 2.5-6.1 3.8s-3.9 2.7-5.8 4l-5.7 4.1c-.1.1-.2.2-.2.3-.2.4 0 .8.3 1l.4.2c-4 1.4-7.9 2.8-11.9 4.2-4.5 1.6-9 3.3-13.5 5l-3.2.9c-.2.1-.5.3-.5.5l-2.3 10c-.8 3.3-1.5 6.6-2.3 10v.1c0 3.5.1 7 .1 10.5l-.1 10.5c0 .2.2 2.1.4 2.1l166.1-.6c.2 0 .4-1.3.4-1.5l-.1-10.5c.1-3.4.1-6.9.1-10.4zM17.3 219.7l-.1-10.1c0-3.5 0-6.9.1-10.4.9-3.3 1.8-6.6 2.6-9.8l2.5-9.4 2.3-.5c1.4.9 2.8 1.9 4.1 2.9.4.3.7.6 1 .9.2.2.2.3.3.4l.3.6c.3.8.7 1.7 1 2.6.6 1.8 1.1 3.6 1.6 5.4l1.5 5.4.7 2.7c.2.9.4 1.8.5 2.7.3 1.8.6 3.7.9 5.6.5 3.6 1.1 7.2 1.8 10.8l-21.1.2zm29.6-.4-8.2.1c0-3.6-.1-7.3-.3-10.9-.1-1.9-.3-3.8-.5-5.7-.1-.9-.3-2-.5-2.9l-.7-2.8c-1-3.7-2.2-7.3-3.6-10.8-.4-.9-.8-1.8-1.3-2.6l-.4-.6c-.2-.2-.4-.5-.6-.6-.4-.3-.8-.6-1.2-.8-1.4-.8-2.9-1.5-4.4-2.1l.4-.1h.1c4.5-1.6 9.1-3.2 13.6-4.9s9-3.3 13.5-5.1c.2-.1.3-.2.4-.3.8.3 1.6.5 2.4.8 1.5.5 2.9.9 4.4 1.4-1.5 1.3-3 2.6-4.6 3.9l-7 6.1c-1.2 1-2.3 2.1-3.5 3L41 187l-.2.2c-.3.4-.2 1.1.2 1.4l17.7 13.3c.7.6 1.5 1.1 2.2 1.7l.3.2.1.1.2.2.2.3.7 1.2 2.8 4.8c1.7 2.9 3.4 5.8 5.1 8.6-7.9.1-15.6.2-23.4.3zm23.4-.2c-1.4-3.1-2.9-6.1-4.3-9.1l-2.5-5-.6-1.2-.2-.3c0-.1-.1-.2-.2-.4-.1-.1-.2-.3-.3-.4l-.3-.2-2.1-1.8c-2.9-2.4-5.8-4.6-8.7-6.9-2.6-2-5.2-4-7.8-5.9l2.7-2c1.3-1 2.3-2.1 3.5-3.1 2.3-2.1 4.5-4.2 6.8-6.4 2.2-2.1 4.5-4.3 6.7-6.5s4.4-4.4 6.5-6.6c-2.4 1.9-4.8 4-7.1 6-.8.7-1.6 1.4-2.3 2-.6-.4-1.2-.7-1.8-1-.8-.4-1.6-.8-2.4-1.1-1-.4-2.1-.8-3.1-1.1l-.9-.4 4.5-3.5c1.8-1.4 3.7-2.9 5.5-4.1 1.8-1.3 3.7-2.7 5.6-4l5.8-4.1c-.1 2.1-.3 4.1-.4 6.1-.1 1.9-.3 4-.4 6.1L71.4 176v.1l2.1 22.1c.7 7 1.4 13.9 2.2 20.9h-5.4zm29.1-.3c-7.2-.1-14.4-.1-21.7-.1-.7-6.9-1.5-13.8-2.3-20.6l-1-7.9c1 1.4 2.2 2.8 3.3 4.1 1.7 1.9 3.6 3.5 5.5 5.1s3.8 3.2 5.8 4.7c3.9 3.1 8 6 12.1 8.7.3.2.7.2 1 0 7.7-5.6 15.2-11.5 22.2-17.9.2-.1.3-.3.5-.5l-.4 3.7c-.8 7-1.6 14.1-2.3 21.1l-22.7-.4zm24.9.2c.8-6.9 1.5-13.9 2.2-20.9l2.1-22.1v-.1l-.9-12.3c-.2-2.1-.3-4.1-.4-6.1s-.3-4-.4-6.1l5.8 4.1c1.9 1.4 3.7 2.7 5.6 4 1.9 1.2 3.7 2.7 5.5 4.1l4.6 3.5-.9.4c-1 .4-2.1.7-3.1 1.1-.8.3-1.6.7-2.4 1.1-.6.3-1.2.6-1.8 1-.8-.7-1.6-1.4-2.3-2-2.4-2-4.7-4-7.1-6 2.1 2.2 4.4 4.4 6.5 6.6 2.2 2.2 4.4 4.4 6.7 6.5 2.2 2.1 4.5 4.3 6.8 6.4 1.2 1.1 2.2 2.1 3.5 3.1l2.7 2c-2.6 1.9-5.2 3.9-7.8 5.9-2.9 2.3-5.8 4.5-8.7 6.9l-2.1 1.8-.3.2c-.1.1-.2.3-.4.4-.1.2-.2.3-.2.4l-.2.3-.6 1.2-2.4 5c-1.4 3-2.9 6.1-4.3 9.1-2.1.6-3.9.6-5.7.5zm28.8.3c-7.8-.1-15.5-.1-23.2-.2 1.7-2.9 3.4-5.7 5.1-8.6l2.8-4.8.7-1.2.2-.3c.1-.1.1-.2.2-.2s.1 0 .1-.1l.3-.2c.7-.6 1.4-1.1 2.1-1.7l17.7-13.3c.4-.3.5-.9.2-1.4l-.2-.2-3.7-2.8c-1.1-.9-2.3-2-3.5-3l-7-6.1c-1.5-1.3-3-2.6-4.6-3.9 1.5-.5 2.9-.9 4.4-1.4.8-.2 1.6-.5 2.4-.8.1.1.2.3.4.3l13.5 5.1c4.5 1.7 9 3.3 13.6 4.9h.1l.4.1c-1.5.6-2.9 1.3-4.4 2.1-.4.2-.8.5-1.2.8-.2.1-.4.4-.6.6l-.4.6c-.5.9-.9 1.8-1.3 2.6-1.5 3.5-2.6 7.2-3.6 10.8l-.7 2.8c-.2.9-.4 1.9-.5 2.9-.2 1.9-.4 3.8-.5 5.7-.3 3.6-.4 7.3-.4 10.9h-8.4zm29.6.4-21.3-.3c.7-3.6 1.3-7.2 1.8-10.8.3-1.9.5-3.7.9-5.6.2-.9.3-1.8.6-2.7l.7-2.7 1.5-5.4c.5-1.8 1.1-3.6 1.6-5.4.3-.9.6-1.8 1-2.6l.3-.6c.1-.1.1-.3.3-.4.3-.3.7-.6 1-.9 1.3-1 2.7-1.9 4.1-2.9l2.3.5 2.6 9.4c.9 3.3 1.8 6.6 2.6 9.8.1 3.5.1 6.9.1 10.4l-.1 10.2z" fill="#184f58" stroke-width="none" opacity="1"></path></g><g id="svga-group-head" transform="matrix(1,0,0,1,0,0)"><g id="svga-group-ears-left-move" transform="matrix(1,0,0,1,0,0)"><g id="svga-group-ears-left"><path id="SvgjsPath16000" d="M62.2 95.2s-4.4-4.7-5.8-6.2-3.1-4.7-5-4.1c-1.9.5-1.2 2.7-1.3 5.8-.1 3.1.3 9.1 2.2 12.4s2.9 4.5 3.5 8 2.8 4.2 4.1 3.2 4.3-7 4.4-10.2c0-3.2-1.3-7.6-2.1-8.9z" fill="#f0c7b1" stroke-width="none" opacity="1" stroke="none"></path><path id="SvgjsPath16001" d="M63.1 97.3c.3.8.5 1.5.7 2.3.4 1.6.7 3.2.7 4.9 0 .8-.2 1.6-.3 2.3l-.6 2.1c-.5 1.3-1.1 2.6-1.7 3.8-.3.6-.7 1.1-1.1 1.7-.2.2-.5.5-.8.7s-.6.3-.9.3c-.7.1-1.4-.1-2-.7s-1.1-1.4-1.4-2.3l-.2-.7-.1-.7c-.1-.4-.1-.8-.2-1.1-.2-.7-.4-1.5-.6-2.1-.5-1.4-1.3-2.7-2.1-4-.4-.6-.8-1.4-1-2.2-.3-.8-.5-1.6-.7-2.4-.3-1.6-.6-3.2-.7-4.8-.2-1.6-.2-3.2-.2-4.7 0-.8-.1-1.5-.1-2.4 0-.4 0-.8.1-1.3.1-.4.2-.9.5-1.2.2-.3.5-.5.8-.6s.6-.2 1-.2c.7.1 1.3.5 1.9 1 1.1 1 1.9 2.4 2.7 3.5 1.9 2.2 3.7 4.4 5.6 6.5.1.8.4 1.6.7 2.3zm-7-7.9c-1.1-1-1.9-2.3-2.8-3.1-.5-.4-.9-.7-1.4-.8-.4 0-.9.1-1.2.4s-.4.9-.4 1.7v2.3c0 .8-.1 1.5-.1 2.3s0 1.5.1 2.3c.1 1.6.3 3.1.7 4.7.4 1.5 1 3 1.8 4.2.8 1.3 1.7 2.5 2.4 4 .3.8.6 1.6.8 2.4l.3 1.2.1.5.2.5c.2.6.6 1.1 1 1.4s.9.4 1.3.3c.2 0 .4-.1.6-.2.2-.1.3-.3.5-.5.3-.4.7-1 1-1.5.6-1.1 1.2-2.3 1.7-3.5s1-2.5 1.2-3.8c.2-1.4 0-3-.2-4.5-.1-.8-.3-1.6-.5-2.3-.2-.8-.5-1.5-.9-2.1-2.2-2.1-4.2-4-6.2-5.9z" fill="#e1ac8f" stroke-width="none" opacity="1" stroke="none"></path><path id="SvgjsPath16002" d="M50.4 89.6c.5-1.9 2.1-1 3 .4 1.9 2.6 3.2 6.6 3.6 10 0 .1-.1.2-.1.1-.1.1-.2.1-.2-.1-1.2-.5-1.6-.2-1.2.8 0 .3.1.6.3.9.2.5.6 1 .9 1.5.5.8 1.2 1.5 1.7 2.3.2.3 0 .6-.2.4-1.4-1-3.9-4.3-3.2-6.6.3-.8 1-1.1 1.5-.7-1.1-3.6-4-12-5.8-8.8-.2.1-.3-.1-.3-.2z" fill="#d19271" stroke-width="none" opacity="1" stroke="none"></path><path id="SvgjsPath16003" d="M53.3 90.1c-1 2-1.4 4.4-.9 7.1.3 1.5 2.9 9.5 4.9 8.4.2-.1.4.3.2.5-2 1.8-4.2-4.5-4.9-6.5-1.1-3.4-1.4-7.5.5-9.7.1-.1.2 0 .2.2z" fill="#d19271" stroke-width="none" opacity="1" stroke="none"></path></g></g><g id="svga-group-ears-right-move" transform="matrix(1,0,0,1,0,0)"><g id="svga-group-ears-right"><path id="SvgjsPath16004" d="M138.08 95.16s4.4-4.7 5.8-6.2 3.1-4.7 5-4.1c1.9.5 1.2 2.7 1.3 5.8.1 3.1-.3 9.1-2.2 12.4s-2.9 4.5-3.5 8-2.8 4.2-4.1 3.2-4.3-7-4.4-10.2c0-3.2 1.3-7.6 2.1-8.9z" fill="#f0c7b1" stroke-width="none" opacity="1" stroke="none"></path><path id="SvgjsPath16005" d="M137.9 95.1c1.9-2 3.8-4.3 5.6-6.5.9-1 1.6-2.4 2.7-3.5.5-.5 1.2-1 1.9-1 .3 0 .7 0 1 .2.3.1.6.3.8.6.2.3.4.8.5 1.2.1.4.1.9.1 1.3 0 .8-.1 1.6-.1 2.4 0 1.5-.1 3.2-.2 4.7-.1 1.6-.4 3.2-.7 4.8-.2.8-.4 1.6-.7 2.4s-.6 1.5-1 2.2c-.7 1.3-1.5 2.7-2.1 4-.3.7-.5 1.4-.6 2.1-.1.4-.1.7-.2 1.1l-.1.7-.2.7c-.3.9-.8 1.7-1.4 2.3-.6.5-1.4.8-2 .7-.3 0-.6-.1-.9-.3-.3-.2-.6-.5-.8-.7-.4-.5-.8-1.1-1.1-1.7-.6-1.2-1.2-2.4-1.7-3.8-.2-.7-.5-1.4-.6-2.1-.2-.7-.3-1.5-.3-2.3 0-1.7.3-3.3.7-4.9.2-.8.4-1.6.7-2.3 0-.8.3-1.6.7-2.3zm.1.1c-.4.6-.6 1.4-.9 2.1-.2.8-.4 1.5-.5 2.3-.3 1.5-.4 3.1-.2 4.5s.7 2.6 1.2 3.8c.5 1.2 1.1 2.4 1.7 3.5.3.5.6 1.1 1 1.5.2.2.3.4.5.5s.4.2.6.2c.4.1.9 0 1.3-.3s.7-.8 1-1.4l.2-.5.1-.5.3-1.2c.2-.8.5-1.6.8-2.4.7-1.5 1.6-2.8 2.4-4 .8-1.2 1.4-2.6 1.8-4.2.4-1.5.6-3.1.7-4.7.1-.8.1-1.6.1-2.3 0-.8-.1-1.5-.1-2.3v-2.3c0-.7-.1-1.4-.4-1.7-.3-.3-.8-.5-1.2-.4-.4 0-.9.4-1.4.8-.9.8-1.8 2.1-2.8 3.1-2.3 2-4.3 3.9-6.2 5.9z" fill="#e1ac8f" stroke-width="none" opacity="1" stroke="none"></path><path id="SvgjsPath16006" d="M149.6 89.6c-.5-1.9-2.1-1-3 .4-1.9 2.6-3.2 6.6-3.6 10 0 .1.1.2.1.1.1.1.2.1.2-.1 1.2-.5 1.6-.2 1.2.8 0 .3-.1.6-.3.9-.2.5-.6 1-.9 1.5-.5.8-1.2 1.5-1.7 2.3-.2.3 0 .6.2.4 1.4-1 3.9-4.3 3.2-6.6-.3-.8-1-1.1-1.5-.7 1.1-3.6 4-12 5.8-8.8.2.1.3-.1.3-.2z" fill="#d19271" stroke-width="none" opacity="1" stroke="none"></path><path id="SvgjsPath16007" d="M146.7 90.1c1 2 1.4 4.4.9 7.1-.3 1.5-2.9 9.5-4.9 8.4-.2-.1-.4.3-.2.5 2 1.8 4.2-4.5 4.9-6.5 1.1-3.4 1.4-7.5-.5-9.7-.1-.1-.2 0-.2.2z" fill="#d19271" stroke-width="none" opacity="1" stroke="none"></path></g></g><g id="svga-group-faceshape-wrap"><g id="svga-group-faceshape-single"><path id="SvgjsPath16092" d="M143.2 82.9v-.3c-1.3-30.5-20.7-47.3-43.2-47.3S58.1 52.1 56.9 82.6v.3c0 2.4-.5 15.6 3.1 26.5 3.2 9.8 5.7 17.5 13.5 24.1 5.5 4.6 13.8 14.7 19.6 17.9 2.6 1.4 11.4 1.4 14 0 5.8-3.3 14.1-13.4 19.6-17.9 7.8-6.5 10.4-14.3 13.5-24.1 3.4-10.9 2.9-24.2 3-26.5z" fill="#f0c7b1" stroke-width="none" opacity="1" stroke="none"></path><path id="SvgjsPath16093" d="M73.5 133.4c5.5 4.6 13.8 14.7 19.6 17.9 2.6 1.4 11.4 1.4 14 0 5.8-3.3 14.1-13.4 19.6-17.9 7.8-6.5 10.4-14.3 13.5-24.1 3.4-10.9 2.9-24.2 3-26.5v-.3C141.9 52 122.5 35.2 100 35.2S58.1 52.1 56.9 82.6v.3c0 2.4-.5 15.6 3.1 26.5 3.2 9.8 5.7 17.5 13.5 24zM58 89.6c-.2-3.3-.3-6.7 0-10 .4-6.6 1.9-13.2 4.7-19.2 2.8-5.9 6.9-11.2 12.1-15.1C80 41.5 86 39.1 92.2 38c6.2-1 12.6-.7 18.6.9 6.1 1.5 11.7 4.6 16.6 8.7l.9.8c.3.3.6.6.9.8l1.7 1.7c.6.5 1 1.2 1.6 1.8l1.5 1.9c.9 1.4 1.8 2.8 2.6 4.2l1.1 2.2c.4.7.8 1.4 1 2.2 2.6 6.1 3.9 12.7 4.2 19.5-.1 3.4-.1 6.7-.4 10.1-.3 3.4-.7 6.6-1.5 9.9-.4 1.6-.8 3.3-1.3 4.8s-1.1 3.2-1.7 4.7c-1.2 3.2-2.5 6.2-4 9-1.6 2.8-3.4 5.4-5.6 7.5-.5.6-1.1 1-1.7 1.6l-1.9 1.5c-1.4 1.1-2.6 2.2-3.8 3.5-2.5 2.3-4.8 4.7-7.1 6.9s-4.8 4.5-7.2 6.1c-.3.2-1.8 1.3-8 1.1-.8 0-1.5-.1-2.2-.2-.7-.1-3-1.2-3.3-1.4-.6-.4-1.2-.9-1.8-1.3-2.4-1.9-4.8-4.3-7.1-6.6-2.4-2.3-4.7-4.7-7.3-7-.6-.6-1.3-1.1-2-1.7-.6-.5-1.2-1-1.7-1.5-1.1-1-2.2-2.2-3.1-3.5-1.9-2.4-3.4-5.3-4.7-8.2-1.3-3-2.4-6.1-3.6-9.3-1.1-3.1-1.9-6.2-2.5-9.5-.8-3-1.2-6.2-1.4-9.6z" fill="#c27b55" stroke-width="none" opacity="1" stroke="none"></path></g></g><g id="svga-group-mouth-single-move" transform="matrix(1,0,0,1,0,-2)"><g id="svga-group-mouth-single"><path id="SvgjsPath16199" d="M84.13 121.38s.02 2.5 1.11 4.36c0 0 4.32 4.53 9.9 8.4.19.14 8.24 1.16 10.36.41 0 0 8.36-5.19 10.19-9.12 0 0 .66-1.94.41-3.27 0 0-6.34 1.76-9.33 2.2-2.99.45-10.62 0-14.41-.57-3.8-.57-7.27-1.92-8.23-2.41z" fill="#000000" stroke-width="none" opacity="1" transform="translate(0 2)"></path><path id="SvgjsPath16200" d="M106.75 124.35c-2.99.45-10.62 0-14.41-.57-3.79-.57-7.26-1.92-8.22-2.41 0 0 .02 2.5 1.11 4.36l.19.19c1.51 1.07 3.66 2.31 6.2 2.99 5.05 1.36 15.17 1.9 22.14-1.92.58-.32 1.09-.63 1.57-.95.14-.21.25-.43.34-.64 0 0 .66-1.94.41-3.27.01.02-6.34 1.79-9.33 2.22z" fill="#ffffff" stroke-width="none" opacity="1" transform="translate(0 2)"></path><path id="SvgjsPath16201" d="M116.59 121.88c.16-.2 0-.49-.28-.48-1.71.52-2.76.73-4.08 1.09-1.18.32-9.11 1.01-11.89.99-9.17-.2-13.39-1.67-16.1-2.4-.22-.06-.44.18-.34.34-.21 1.26 1.06 4.43 1.06 4.45 2.41 3.32 6.15 6.2 9.6 8.45 2.45 1.59 9.23 1.33 10.89.76 2.36-.89 4.78-3.17 6.36-4.68 1.46-1.4 3.54-4 4.23-5.1.29-.44.46-.97.57-1.48.13-.52.3-1.38-.02-1.94zm-5.54 8.28c-2.42 2.24-5.67 3.61-5.82 3.62-1.9.17-3.8.26-5.72.19-1.36-.05-4.19-.4-4.31-.48-1.83-.93-3.63-2.15-5.26-3.53-1.59-1.34-3.52-2.92-4.56-4.42-.65-1.11-1.02-2.25-.86-3.72 4.7 2.47 10.68 3.54 15.92 3.58 2.85.02 5.63-.36 8.4-.92 2.13-.43 5.04-.89 7-2.08-.03.32-.02.66-.07.97-.09.56.23 2.27-4.72 6.79z" fill="#e66638" stroke-width="none" opacity="1" transform="translate(0 2)" stroke="none"></path></g></g><g id="svga-group-eyes-left-move" transform="matrix(1,0,0,1,-1,1)"><g id="svga-group-eyes-left"><g id="svga-group-eyesback-left"><path id="SvgjsPath16774" d="M89.7 96.1s-1.3-3.1-3.3-4.7c-1.9-1.6-5.1-3.9-9.7-1.9s-6.5 5.7-6.5 5.7.7 2.7 2 3.9c1.3 1.2 4 2.7 8.4 2.1 4.5-.6 6.6-2 7.3-2.7.8-.6 1.8-2.4 1.8-2.4z" fill="#ffffff" stroke-width="none" opacity="1"></path></g><g id="svga-group-eyesiriswrapper-left" transform="matrix(1,0,0,1,0,0)"><g id="svga-group-eyesiriscontrol-left" transform="matrix(1,0,0,1,0,0)"><g id="svga-group-eyesiris-left"><path id="SvgjsPath16127" d="M80.1 88.1c3 0 5.5 2.4 5.5 5.5S83.1 99 80.1 99s-5.5-2.4-5.5-5.5 2.4-5.4 5.5-5.4z" fill="#681711" stroke-width="none" opacity="1" stroke="none"></path><path id="SvgjsPath16128" d="M80.1 89.1c2.5 0 4.4 2 4.4 4.4s-2 4.4-4.4 4.4-4.4-2-4.4-4.4 1.9-4.4 4.4-4.4z" fill="#000000" stroke-width="none" opacity="1"></path><path id="SvgjsPath16129" d="M74.6 93.5c0 .9.2 1.8.6 2.5.8.5 1.7.8 2.7.8 2.9 0 5.2-2.3 5.2-5.2 0-1.2-.4-2.3-1.1-3.2-.6-.2-1.3-.4-1.9-.4-3.1.1-5.5 2.5-5.5 5.5z" fill="#77251f" stroke-width="none" opacity="1" stroke="none"></path><path id="SvgjsPath16130" d="M75.6 93.5c0 1.3.5 2.4 1.4 3.2.3.1.6.1.9.1 2.9 0 5.2-2.3 5.2-5.2 0-.5-.1-1-.2-1.5-.8-.6-1.8-1-2.8-1-2.5 0-4.5 2-4.5 4.4z" fill="#1e1e1e" stroke-width="none" opacity="1"></path><path id="SvgjsPath16131" d="M77.7 91.2c.6-.7 1.5-.8 2-.4s.4 1.4-.3 2c-.6.7-1.5.8-2 .4-.5-.5-.4-1.4.3-2z" fill="#2b2b2b" stroke-width="none" opacity="1"></path></g></g></g><g id="svga-group-eyesfront-left"><path id="SvgjsPath16782" d="M69.4 94.6c0 6.4 4.7 11.5 10.6 11.5s10.6-5.2 10.6-11.5S85.9 83.1 80 83.1s-10.6 5.1-10.6 11.5zm2.9 4.5c-1.3-1.2-2-3.9-2-3.9s1.9-3.8 6.5-5.7 7.8.3 9.7 1.9c1.9 1.6 3.3 4.7 3.3 4.7s-1 1.8-1.7 2.4c-.7.6-2.9 2.1-7.3 2.7-4.6.6-7.2-.9-8.5-2.1z" fill="#f0c7b1" stroke-width="none" opacity="1" stroke="none"></path><path id="SvgjsPath16783" d="M90.5 97.3c-1.1-5.1-4.1-10.3-9.7-11.1-6.2-.9-8.8 4.5-10.9 9.2-.1.2-.4.1-.4-.2.9-5.4 5.5-10.5 11.3-9.7 5.8.9 8.9 6.4 9.9 11.6 0 .3-.2.4-.2.2z" fill="#e1ac8f" stroke-width="none" opacity="1" stroke="none"></path><path id="SvgjsPath16784" d="M90.3 98.3c-2-4.7-5.1-9.3-10.9-8.7-5.5.6-8 5.2-11 9.1-.2.3-.8 0-.7-.4 1.8-4.8 6.6-9.9 12.1-10 5.4-.1 10.1 4.7 10.9 9.9 0 .1-.3.3-.4.1z" fill="#1b2a40" stroke-width="none" opacity="1" stroke="none"></path><path id="SvgjsPath16785" d="M89.5 96.7c-1.3 4.1-7.9 5.2-11.6 5-3.6-.2-8-2.7-7.9-6.8 0-.3.5-.4.5-.1.9 4.1 4.1 6.2 8.3 6.1 3.6-.1 8.4-1 10.3-4.4.2-.1.5 0 .4.2z" fill="#1b2a40" stroke-width="none" opacity="1" stroke="none"></path></g></g></g><g id="svga-group-eyes-right-move" transform="matrix(1,0,0,1,1,1)"><g id="svga-group-eyes-right"><g id="svga-group-eyesback-right"><path id="SvgjsPath16775" d="M110.3 96.1s1.3-3.1 3.3-4.7c1.9-1.6 5.1-3.9 9.7-1.9s6.5 5.7 6.5 5.7-.7 2.7-2 3.9c-1.3 1.2-4 2.7-8.4 2.1-4.5-.6-6.6-2-7.3-2.7-.8-.6-1.8-2.4-1.8-2.4z" fill="#ffffff" stroke-width="none" opacity="1"></path></g><g id="svga-group-eyesiriswrapper-right" transform="matrix(1,0,0,1,0,0)"><g id="svga-group-eyesiriscontrol-right" transform="matrix(1,0,0,1,0,0)"><g id="svga-group-eyesiris-right"><path id="SvgjsPath16132" d="M119.9 88.1c3 0 5.5 2.4 5.5 5.5S123 99 119.9 99s-5.5-2.4-5.5-5.5 2.5-5.4 5.5-5.4z" fill="#681711" stroke-width="none" opacity="1" stroke="none"></path><path id="SvgjsPath16133" d="M119.9 89.1c2.5 0 4.4 2 4.4 4.4s-2 4.4-4.4 4.4-4.4-2-4.4-4.4 2-4.4 4.4-4.4z" fill="#000000" stroke-width="none" opacity="1"></path><path id="SvgjsPath16134" d="M114.5 93.5c0 .9.2 1.8.6 2.5.8.5 1.7.8 2.7.8 2.9 0 5.2-2.3 5.2-5.2 0-1.2-.4-2.3-1.1-3.2-.6-.2-1.3-.4-1.9-.4-3.1.1-5.5 2.5-5.5 5.5z" fill="#77251f" stroke-width="none" opacity="1" stroke="none"></path><path id="SvgjsPath16135" d="M115.5 93.5c0 1.3.5 2.4 1.4 3.2.3.1.6.1.9.1 2.9 0 5.2-2.3 5.2-5.2 0-.5-.1-1-.2-1.5-.8-.6-1.8-1-2.8-1-2.5 0-4.5 2-4.5 4.4z" fill="#1e1e1e" stroke-width="none" opacity="1"></path><path id="SvgjsPath16136" d="M117.5 91.2c.6-.7 1.5-.8 2-.4s.4 1.4-.3 2c-.6.7-1.5.8-2 .4-.4-.5-.3-1.4.3-2z" fill="#2b2b2b" stroke-width="none" opacity="1"></path></g></g></g><g id="svga-group-eyesfront-right"><path id="SvgjsPath16786" d="M120 83.1c-5.9 0-10.6 5.2-10.6 11.5s4.7 11.5 10.6 11.5 10.6-5.2 10.6-11.5-4.8-11.5-10.6-11.5zm-.7 18.1c-4.5-.6-6.6-2-7.3-2.7-.7-.6-1.7-2.4-1.7-2.4s1.3-3.1 3.3-4.7c1.9-1.6 5.1-3.9 9.7-1.9s6.5 5.7 6.5 5.7-.7 2.7-2 3.9-4 2.7-8.5 2.1z" fill="#f0c7b1" stroke-width="none" opacity="1" stroke="none"></path><path id="SvgjsPath16789" d="M109.5 97.3c1.1-5.1 4.1-10.3 9.7-11.1 6.2-.9 8.8 4.5 10.9 9.2.1.2.4.1.4-.2-.9-5.4-5.5-10.5-11.3-9.7-5.8.9-8.9 6.4-9.9 11.6 0 .3.2.4.2.2z" fill="#e1ac8f" stroke-width="none" opacity="1" stroke="none"></path><path id="SvgjsPath16790" d="M109.7 98.3c2-4.7 5.1-9.3 10.9-8.7 5.5.6 8 5.2 11 9.1.2.3.8 0 .7-.4-1.8-4.8-6.6-9.9-12.1-10-5.4-.1-10.1 4.7-10.9 9.9 0 .1.3.3.4.1z" fill="#1b2a40" stroke-width="none" opacity="1" stroke="none"></path><path id="SvgjsPath16791" d="M110.5 96.7c1.3 4.1 7.9 5.2 11.6 5 3.6-.2 8-2.7 7.9-6.8 0-.3-.5-.4-.5-.1-.9 4.1-4.1 6.2-8.3 6.1-3.6-.1-8.4-1-10.3-4.4-.2-.1-.5 0-.4.2z" fill="#1b2a40" stroke-width="none" opacity="1" stroke="none"></path></g></g></g><g id="svga-group-facehighlight-single"></g><g id="svga-group-eyebrows-left-move" transform="matrix(1,0,0,1,0,2)"><g id="svga-group-eyebrows-left-rotate" transform="matrix(1,1.7453292144864463e-9,-1.7453292144864463e-9,1,1.4005487969370733e-7,-1.3773367868452624e-7)"><g id="svga-group-eyebrows-left"><path id="SvgjsPath15957" d="M67.6 82.1c1-.1 2.1-.1 3.1-.1 0-.1.1-.1.2-.1 2.1-.3 4-1.2 6-1.9.7-.3 1.4-.5 2.2-.6.8-.7 1.8-1.1 2.8-1.5.4-.3.9-.5 1.3-.6.8-.3 1.6-.6 2.5-.6.1 0 .2 0 .3-.1.6-.2 1.1-.3 1.8-.2.7-.5 1.5.1 2.1.8.1 0 .1 0 .1.1 1.9 1.1 2.7 4.1.9 5.7-.9.8-2.2 1.1-3.4 1.2-.7.1-1.5.1-2.3 0-1.7.7-4 .5-5.7.5-1.3 0-2.9-.1-4.2-.6h-.5c-1 0-2.2 0-2.9-.6-1.4-.1-2.9-.3-4.2-.6-.6-.2-.5-.8-.1-.8z" fill="#775c00" stroke-width="none" opacity="1" stroke="none"></path><path id="SvgjsPath15958" d="M88.4 77.1c-.1-.2.1-.4.3-.2 1.5 1.4 3.2 4.8 1.2 6.5-.1.1-.2 0-.2-.1 0-1.1.5-1.9.2-3.1-.2-1.1-1-2.1-1.5-3.1zm-4 0c2.8.6 4.7 4 4.2 6.7 0 .2-.3.1-.3 0-.1-1.3-.3-2.6-1.1-3.8-.7-1.2-1.8-1.8-2.9-2.6-.2-.1-.1-.4.1-.3zm-2.9 1.8c2.6.5 5 2.6 6.1 5 .1.2-.1.3-.2.2-1.6-2.3-3.5-3.7-6-4.8-.2-.2-.1-.4.1-.4zm-3.2 1.8c2.6 0 5.7 1.4 7.1 3.5.1.2-.1.3-.2.2-1-.9-2.1-1.7-3.3-2.2-1.2-.5-2.4-.7-3.6-1.1-.3-.1-.2-.4 0-.4zm-3.7.5c2.2-.1 4.4 1.1 5.6 2.9.1.1-.1.3-.2.2-1.5-1.6-3.3-2.5-5.4-2.9-.1-.1-.1-.2 0-.2zM70 82.4c2-.1 4.1.2 5.7 1.6.1.1 0 .3-.2.2C73.9 83 72 83 70 82.7c-.2 0-.2-.2 0-.3z" fill="#866b0d" stroke-width="none" opacity="1" stroke="none"></path><path id="SvgjsPath15959" d="M87.7 84.8c1.3-.3 3-.6 4-1.7 2.1-2.3.1-6.5-2.5-7.5-3.2-1.3-6.8 1.4-9.6 2.7-2.2 1-4.5 1.8-6.9 2.4-2.2.6-4.6.7-6.8 1.3-.1 0-.1 0-.2-.1-.5-.1-.6.6-.2.7 5.3 2 11 2.6 16.6 2.6 1.8.1 3.7 0 5.6-.4zm-4.4-6.6c1.4.4 2.2 1 3.1 2.3.7 1 1.1 2 1.5 3.1-.3.1-.6.1-.9.2-1.2-2.1-3.9-4.3-6.6-4.7.8-.4 1.8-.9 2.7-1.4-.1.1 0 .5.2.5zm-4.2 1.5c1.3.5 2.7.7 3.9 1.4 1.3.7 2.3 1.7 3.3 2.8-1.1.2-2.1.2-3.2.3-1.2-1.7-3.8-3.6-6-3.8.7-.2 1.3-.5 2-.7zm-5.8 1.9c.5.2 1 .3 1.4.5.6.3 1.1.7 1.6 1.1.2.1.4 0 .3-.2-.3-.7-1.1-1.4-2-1.8.6-.2 1.2-.3 1.7-.5 0 .1 0 .2.1.2 1 .6 2.2.9 3.2 1.5.9.5 1.7 1.2 2.4 1.8h-.4c-4.7 0-9.3-.5-13.9-1.6 1.5-.1 3.1-.5 4.5-.8.5-.1.8-.2 1.1-.2zm15.3 1.8h-.1c-.3-1.6-1-3-2-4.3-.7-.9-1.9-2-3.1-1.6 2.6-1.2 5.4-1.8 7.1.8.7 1 1.2 2.5.5 3.7-.3.6-.9.9-1.6 1.1.5-2.1-.2-4.9-1.9-6.2-.2-.2-.5.2-.4.4.6 1 1.3 1.9 1.6 3 .2 1 .2 2 .1 3 0 .1-.1.1-.2.1z" fill="#685000" stroke-width="none" opacity="1" stroke="none"></path></g></g></g><g id="svga-group-eyebrows-right-move" transform="matrix(1,0,0,1,0,2)"><g id="svga-group-eyebrows-right-rotate" transform="matrix(1,1.7453292144864463e-9,-1.7453292144864463e-9,1,1.4019792615727056e-7,-2.1150670193037513e-7)"><g id="svga-group-eyebrows-right"><path id="SvgjsPath15960" d="M132.4 82.1c-1-.1-2.1-.1-3.1-.1 0-.1-.1-.1-.2-.1-2.1-.3-4-1.2-6-1.9-.7-.3-1.4-.5-2.2-.6-.8-.7-1.8-1.1-2.8-1.5-.4-.3-.9-.5-1.3-.6-.8-.3-1.6-.6-2.5-.6-.1 0-.2 0-.3-.1-.6-.2-1.1-.3-1.8-.2-.7-.5-1.5.1-2.1.8-.1 0-.1 0-.1.1-1.9 1.1-2.7 4.1-.9 5.7.9.8 2.2 1.1 3.4 1.2.7.1 1.5.1 2.3 0 1.7.7 4 .5 5.7.5 1.3 0 2.9-.1 4.2-.6h.5c1 0 2.2 0 2.9-.6 1.4-.1 2.9-.3 4.2-.6.6-.2.5-.8.1-.8z" fill="#775c00" stroke-width="none" opacity="1" stroke="none"></path><path id="SvgjsPath15961" d="M111.6 77.1c.1-.2-.1-.4-.3-.2-1.5 1.4-3.2 4.8-1.2 6.5.1.1.2 0 .2-.1 0-1.1-.5-1.9-.2-3.1.2-1.1 1-2.1 1.5-3.1zm4 0c-2.8.6-4.7 4-4.2 6.7 0 .2.3.1.3 0 .1-1.3.3-2.6 1.1-3.8.7-1.2 1.8-1.8 2.9-2.6.2-.1.1-.4-.1-.3zm2.9 1.8c-2.6.5-5 2.6-6.1 5-.1.2.1.3.2.2 1.6-2.3 3.5-3.7 6-4.8.2-.2.1-.4-.1-.4zm3.2 1.8c-2.6 0-5.7 1.4-7.1 3.5-.1.2.1.3.2.2 1-.9 2.1-1.7 3.3-2.2 1.2-.5 2.4-.7 3.6-1.1.3-.1.2-.4 0-.4zm3.7.5c-2.2-.1-4.4 1.1-5.6 2.9-.1.1.1.3.2.2 1.5-1.6 3.3-2.5 5.4-2.9.1-.1.1-.2 0-.2zm4.6 1.2c-2-.1-4.1.2-5.7 1.6-.1.1 0 .3.2.2 1.7-1.2 3.6-1.2 5.5-1.5.2 0 .2-.2 0-.3z" fill="#866b0d" stroke-width="none" opacity="1" stroke="none"></path><path id="SvgjsPath15962" d="M118 85.3c5.6-.1 11.3-.7 16.6-2.6.4-.2.3-.8-.2-.7-.1 0-.1 0-.2.1-2.2-.7-4.6-.8-6.8-1.3-2.3-.6-4.7-1.4-6.9-2.4-2.8-1.3-6.4-4-9.6-2.7-2.6 1-4.6 5.2-2.5 7.5 1 1.1 2.6 1.4 4 1.7 1.8.3 3.7.4 5.6.4zm-1.2-7.6c.9.4 1.9.9 2.7 1.4-2.6.4-5.3 2.7-6.6 4.7-.3-.1-.6-.1-.9-.2.4-1.1.8-2.2 1.5-3.1.8-1.2 1.7-1.8 3.1-2.3.3 0 .4-.4.2-.5zm6.1 2.7c-2.2.2-4.8 2.1-6 3.8-1.1 0-2.1-.1-3.2-.3.9-1.1 2-2.1 3.3-2.8 1.2-.7 2.6-.9 3.9-1.4.7.2 1.3.5 2 .7zm4.7 1.4c1.4.3 3 .7 4.5.8-4.6 1.1-9.2 1.6-13.9 1.6h-.4c.8-.7 1.5-1.3 2.4-1.8 1-.6 2.2-.9 3.2-1.5.1-.1.1-.2.1-.2.6.2 1.2.4 1.7.5-.8.4-1.6 1.1-2 1.8-.1.2.1.4.3.2.5-.4 1-.8 1.6-1.1.5-.2 1-.3 1.4-.5.5 0 .8.1 1.1.2zm-16.5 1.6c-.1-1-.1-2 .1-3 .3-1.2 1-2 1.6-3 .1-.2-.1-.5-.4-.4-1.7 1.3-2.4 4.1-1.9 6.2-.6-.2-1.2-.5-1.6-1.1-.7-1.2-.2-2.6.5-3.7 1.7-2.7 4.5-2 7.1-.8-1.2-.4-2.4.7-3.1 1.6-1 1.3-1.7 2.7-2 4.3h-.1c0-.1-.1-.1-.2-.1z" fill="#685000" stroke-width="none" opacity="1" stroke="none"></path></g></g></g><g id="svga-group-beardwrap"><g id="svga-group-beard-single-move" transform="matrix(1,0,0,1,0,0)"><g id="svga-group-beard-single"></g></g></g><g id="svga-group-mustache-single-move" transform="matrix(1,0,0,1,0,0)"><g id="svga-group-mustache-single"></g></g><g id="svga-group-nose-single-move" transform="matrix(1,0,0,1,0,0)"><g id="svga-group-nose-single" transform="matrix(1.1000003000000003,0,0,1.1000003000000003,-9.983356671171592,-10.994044670267513)"><path id="SvgjsPath16180" d="M105.3 106.11c.71.61 3.35 3.77 3.81 4.57.46.8.65 1.98-.04 2.67s-3.08 1.03-3.88.95c0 0-2.32 2.25-3.54 2.55-1.22.3-3.27.27-5.33-1.03S94 114.07 94 114.07s-2.7-.27-3.12-.53c-.42-.27-.95-.69-.65-1.68.3-.99 2.25-4.49 3.2-5.33.95-.84 4.26-2.02 6.09-2.09 1.82-.08 3.34-.43 5.78 1.67z" fill="#f0c7b1" stroke-width="none" opacity="1" transform="translate(0 1)" stroke="none"></path><path id="SvgjsPath16181" d="M107.2 113.08c-2.47.1-3.62 3.15-6.14 3.51-3.53.5-5.85-2.23-8.4-4.15-.09-.07-.23.07-.16.16.33.44.71.88 1.1 1.29-.55-.38-.96-.36-1.62-.41-.8-.06-1.39-.39-1.51-1.31-.05-.34.61-1.49.8-1.87.91-1.79 2.21-3.19 3.4-4.77.09-.11-.09-.29-.2-.2-.18.13-.36.29-.53.44.82-1.66 1.6-3.36 2.21-5.08.05-.14-.16-.22-.23-.1-1.02 1.85-1.87 3.85-2.66 5.83-1.45 1.5-2.7 3.54-3.29 5.35-.81 2.52 1.89 2.17 3.5 2.48.19.04.29-.17.18-.3 1.66 1.75 3.82 3.18 6.22 3.38 3.3.27 4.84-2.44 7.42-3.92.15-.09.09-.34-.09-.33z" fill="#c27b55" stroke-width="none" opacity="1" transform="translate(0 1)" stroke="none"></path><path id="SvgjsPath16182" d="M109.8 111.67c-.22-1.1-1.19-2.15-1.85-3.01-.79-1.03-1.64-2.02-2.67-2.82-.2-.15-.37.15-.25.32.98 1.25 2.1 2.37 3.05 3.66.63.86 1.72 2.1.77 3.3-.56.71-1.83.82-2.65 1.03-.1.03-.07.17.02.18 1.61.13 3.98-.58 3.58-2.66z" fill="#c27b55" stroke-width="none" opacity="1" transform="translate(0 1)" stroke="none"></path><path id="SvgjsPath16183" d="M96.77 105.2c2.35-.67 4.5-.61 6.9-.42.17.01.18-.23.04-.29-2.26-.82-4.86-.44-7.03.48-.13.06-.04.26.09.23z" fill="#c27b55" stroke-width="none" opacity="1" transform="translate(0 1)" stroke="none"></path><path id="SvgjsPath16184" d="M104.05 106.81c-1.21-1.66-4-.06-2.78 1.63 1.54 2.12-.33 3.8-2.52 3.97-.63.05-.92.74-.5 1.22 1.49 1.73 4.09 1.25 5.56-.32 1.64-1.79 1.64-4.58.24-6.5z" fill="#f8d5c3" stroke-width="none" opacity="1" transform="translate(0 1)" stroke="none"></path></g></g><g id="svga-group-hair-front"><path id="SvgjsPath16227" d="M99.9 58.5s-7.8-3.9-12.3-4.1C79.9 54.1 77.4 84 77.4 84s-3.8-13.2-.7-26.6c0 0-4.5 7.2-5.2 24.5 0 0-5.8-11.7-.2-27.5 0 0-6 8.3-7.3 37.7 0 0-1.5-6.9-1.5-9.9 0 0-2.3 16.2-1.3 24.5 0 0-2.5-4.5-3.6-10.6s-.8-9.3-.8-9.3-1 2.5-1.5 6.6c0 0-3.3-8.1-.7-20.7 0 0-3.5 8.6-4.3 14.4 0 0-1.3-5.6 1-16.1s7.2-18.3 7.2-18.3-3.1 3.6-7.3 10.9c0 0 1.1-13.5 15-24.9S86.8 31 86.8 31s-1.7-1.8-10.6-.2c0 0 5.8-3.1 14.6-3 8.8.2 10.9 5.1 10.9 5.1s3.8-4.3 12.4-5.8c0 0-2.5 2.1-3.3 3 0 0 4.3-1 11.9.3 0 0-3.6.3-4.6.8 0 0 7.1-.2 15.7 6.3s13.1 17 14.4 23.7c0 0-4.1-8.4-7.9-11.6 0 0 6.6 9.9 8.8 22.2l-2.3-3s2 8.3 1 17.5l-1.8-3.8s-.2 8.6-3.6 14.4l-.3-3.5s-.8 8.1-2.1 11.1c0 0 .2-17.4-1.7-24.7 0 0-.2 3.5-.5 6.1 0 0-1.7-12.9-4-16.1 0 0 .5 1.8-1.2 7.9 0 0-1.2-11.3-5.1-19.9 0 0 .3 12.4-.8 18.7 0 0-2.5-19.5-6.6-22.7 0 0 3 14.6-.2 24.7 0 0-1.4-23.6-7.3-24.6-6.1-.6-9 2.3-12.7 4.6z" fill="#775c00" stroke-width="none" opacity="1" stroke="none"></path><path id="SvgjsPath16228" d="M77.7 83.4c-.1-5.9.4-11.7 2.1-17.4.7-2.5 1.5-5.6 2.9-7.9 3.2-5.1 7.6-4.4 12-2.7.3.1.4-.3.2-.5-5.6-2.9-10.2-2.5-13.1 3.5-3.6 7.6-5 16.6-4.6 24.9.1.4.5.4.5.1zM81 50.9c-6.3 5.7-5.9 15.3-5 23 0 .3.5.3.5 0-.2-8.3-.4-15.8 4.8-22.8.2-.2-.1-.4-.3-.2zm4.3-5C72.4 43.8 69 58.7 70.1 68.3c0 .2.2.2.2 0-.7-9.8 2.5-23.1 14.9-22 .2 0 .3-.3.1-.4zm15.2 11.6c6.7-3.8 13.7-6.3 16.8 3.5 1.8 5.7 2 11.5 2.2 17.4 0 .3.6.4.6.1 1-6.8.6-18.5-4.7-23.6-4.6-4.6-11.2-1-15.3 2.3-.2.1.2.5.4.3zm18.9-4c4.5 8.2 6.3 15.5 7 24.8 0 .4.5.4.6 0 .9-8.6-2.1-18.2-7.2-25.1-.2-.2-.6.1-.4.3zm6.7 3.1c3.4 6.9 4.7 13.4 6.4 20.7.1.2.4.2.4-.1.3-7.2-2.7-14.9-6.4-20.9-.2-.2-.5 0-.4.3zm-26.2-4.1c-2-2.8-4.9-5.3-8.3-6.4-.2-.1-.4.3-.2.4 3.1 1.6 5.8 3.4 7.9 6.3.4.2.8 0 .6-.3zm.8-5.5c-4.1-8.5-15.1-10.7-23.2-7.1-10.4 4.6-15.2 16-15.1 26.8 0 .3.5.3.5 0 .9-9.5 4.1-19.1 12.6-24.4 8.7-5.4 18.9-3.4 24.8 4.9.2.3.6.1.4-.2zM57.1 78.1c-1.1 7.7-.5 15.6 2.5 22.8.1.3.5.1.5-.2-1.9-7.5-3-14.7-2.5-22.5.1-.3-.4-.4-.5-.1zm4 27.2c-.1-6.1 0-12.1 0-18.2 0-.3-.5-.4-.5-.1-.9 6-.8 12.3 0 18.4 0 .3.5.2.5-.1zm-9.6-43.8C54.3 54.2 58 47.4 64 42.1c6-5.3 13-8.1 20.6-10.2.2-.1.2-.5-.1-.5C69 33.2 54.7 46.3 51.3 61.5c-.1.1.1.2.2 0zm.3 1.5c2.5-4.3 5.3-7.8 8.8-11.4.2-.3-.1-.8-.4-.5-3.9 2.8-7.2 7.2-9 11.7-.2.2.4.5.6.2zm-1.2 22.9c1.1-10.6 4.4-20.1 9.6-29.3.2-.3-.2-.5-.4-.2-5.9 8.8-9.1 19.1-9.8 29.6-.1.3.6.3.6-.1zm51.2-51c1.2-1.5 2.6-2.9 4.3-4 1.7-1.1 3.6-1.5 5.5-2.1.3-.1.3-.6-.1-.6-4.1-.1-8.2 2.9-10.1 6.4-.1.2.2.5.4.3zm6.6-1.8c17.1-3.6 30.8 12.9 36.2 27.1.1.4.7.2.6-.2-3.8-14.4-20.6-32.6-37-27.6-.4.2-.3.8.2.7zm31.9 28.5c1.6 1.7 3.3 3.4 4.7 5.3 1.3 1.7 2.4 3.6 3.8 5.3.2.2.5 0 .4-.2-1.4-4-5.2-8.1-8.5-10.8-.3-.2-.7.2-.4.4zm2.8 3.1c3.6 7.4 4 13.7 3.7 21.8 0 .3.4.3.5.1 2.4-7.1.3-16-3.7-22.1-.3-.4-.7-.2-.5.2zm-5.3 12.4c2.3 8.7 2.7 17.2 2.2 26.2 0 .3.6.4.6.1 1.4-8.8.3-17.9-2.4-26.4 0-.2-.4-.1-.4.1zM102 49.5c8.8-11.4 22.7-5.1 28.8 5.1.2.3.6 0 .4-.3-5.2-11-22.1-17.7-29.7-5.1-.1.4.3.6.5.3zm-.9-9.3c-.8-1.2-2-2.5-3.4-3-.2-.1-.3.2-.2.4.6.5 1.3.8 1.9 1.3.6.5 1 1 1.5 1.5.1.1.3-.1.2-.2zm37 25.1c2.7 6.8 3.6 13.8 4 21.1 0 .3.5.3.5 0 .4-7.4-1.3-14.4-4.1-21.2-.1-.2-.5-.1-.4.1z" fill="#685000" stroke-width="none" opacity="1" stroke="none"></path><path id="SvgjsPath16229" d="M98.1 54.6c-5.3-8.5-17.3-8.2-22.7-.1-.1.1.1.3.2.2 6.2-7.3 15.9-6.8 22 .3.2.3.7-.1.5-.4zM81.2 56c-2.6 4.5-3.8 9.4-3.3 14.6 0 .3.4.3.4 0 .1-5 1.1-9.9 3.2-14.5.1-.1-.2-.2-.3-.1zm17.3-7.7c-4.7-8.9-15.9-9.5-23.5-3.9C64.8 52 63.6 66.2 63.6 77.9c0 .3.4.3.5 0 .7-9.3.9-19.1 6.2-27.2 6.2-9.6 21.4-14.1 27.9-2.1.1.1.5-.1.3-.3zm-5.4-11c-7-2.5-15.3-1.5-20.8 3.7-.2.2.1.5.3.4 6.4-4 13-5.8 20.4-3.7.2.1.3-.3.1-.4zm-4.7-3.9c-1.8-.5-3.8-.5-5.6.3-.2.1-.1.4.1.3 1.8-.5 3.5-.7 5.3-.2.4.1.5-.3.2-.4zm13.9 20.1c4.9-3.9 10.2-5.2 16.3-4.6.4 0 .4-.5.1-.6-5.9-1.6-12.6.5-16.9 4.7-.3.3.2.8.5.5zm2.2-4.6c1.6-1.4 3.3-1.9 5.3-2.3.2-.1.2-.4-.1-.4-2.1 0-4.1 1.1-5.6 2.5-.2.1.2.4.4.2zm0-6.7c5.2-4.3 11.5-4.8 17.7-2.5.3.1.6-.4.2-.6-5.9-3.4-13.5-1.9-18.3 2.7-.2.3.2.6.4.4zm5.1-6c1.3-.9 2.9-1.2 4.5-1 .3 0 .3-.4.1-.5-1.7-.4-3.4.1-4.8 1.1-.3.2-.1.6.2.4zm27.9 24.3c4.4 9.2 5.4 17.8 6 27.8 0 .2.3.3.4.1 1.5-9.5-1.4-19.8-5.9-28.1-.2-.3-.6-.1-.5.2zm5.1-3c.4 1.4.7 3.1 1.4 4.4.1.3.5.1.5-.2-.2-1.5-.9-2.9-1.4-4.3-.2-.3-.6-.2-.5.1zM59.7 91c-.1-2.9-.1-5.8-.2-8.7 0-.2-.2-.2-.2 0 0 2.9.1 5.8.2 8.7-.1.2.2.2.2 0z" fill="#866b0d" stroke-width="none" opacity="1" stroke="none"></path></g><g id="svga-group-glasses-single-move" transform="matrix(1,0,0,1,0,0)"><g id="svga-group-glasses-single"></g></g></g></g></g><rect id="svga-credit-rect" width="200" height="15" x="0" y="185" fill="#ecf0f1" opacity="0.5" style="display: none;"></rect><text id="svga-credit-text" font-family="Avenir Next, Roboto, Helvetica, Arial, sans-serif" font-size="10px" text-anchor="start" font-weight="400" size="10px" anchor="start" weight="400" fill="#333333" x="33.3563232421875" y="182.58719658851624" style="display: none;"><tspan id="SvgjsTspan15951" dy="13" x="33.3563232421875">Created on AvatarMaker.com</tspan></text></g><defs id="SvgjsDefs15898"></defs></svg>