<svg xmlns="http://www.w3.org/2000/svg" version="1.1" width="600px" height="600px" viewBox="0 0 200 200" style="overflow:hidden!important;"><g id="svga-group-wrapper"><g id="svga-group-backs-single"><path id="SvgjsPath15285" d="M0 0h200v200H0V0z" fill="#ecf0f1" stroke-width="none" opacity="1"></path><path id="SvgjsPath15286" d="M0 0v10.1L76.5 100 0 0zm0 34.1V50l76.5 58.3L0 34.1zm0 37.1v13.6l76.5 33.4L0 71.2zM38.3 0H21.1l67.2 108.3L38.3 0zm36.3 0H61l27.2 90L74.6 0zM0 108.3v9.9l76.5 9.9L0 108.3zM0 144v13.6l76.5-22.1L0 144zm0 35.7V200l88.3-64.5L0 179.7zM38.3 200h16.4l26.5-42.4L38.3 200zm85.2-100L200 10.1V0l-76.5 100zM200 50V34.1l-76.5 74.2L200 50zm0 34.8V71.2l-76.5 47L200 84.8zM178.9 0h-17.2l-50 108.3L178.9 0zM139 0h-13.6l-13.6 90L139 0zm61 118.2v-9.9L123.5 128l76.5-9.8zm0 39.4V144l-76.5-8.5 76.5 22.1zm0 42.4v-20.3l-88.3-44.2L200 200zm-54.7 0h16.4l-43-42.4 26.6 42.4zM111.7 0H88.3L100 100 111.7 0zM76.5 200h11.7l6.4-58.5L76.5 200zm35.2 0h11.7l-18.2-58.5 6.5 58.5zm-17 0h10.6l-5.3-42.4-5.3 42.4z" fill="#c6dce2" stroke-width="none" opacity="1"></path></g><g id="svga-group-humanwrap-move" transform="matrix(1,0,0,1,0,0)"><g id="svga-group-humanwrap"><g id="svga-group-hair-back-move" transform="matrix(0.9986295104026794,0.0523359589278698,-0.0523359589278698,0.9986295104026794,7.202403545379639,-5.048579692840576)"><g id="svga-group-hair-back"><path id="SvgjsPath15533" d="M57.4 66.1s.6 88.5 3.6 102.7 3.9 17 3.9 17l81.5.7s3.9-26.6 4.8-44.6-13-82.9-13-82.9l-80.8 7.1z" fill="#baab37" stroke-width="none" opacity="1"></path></g></g><g id="svga-group-humanbody-back"><path id="SvgjsPath15360" d="M77.8 105.9s4.8 37.7 10 55.8c0 0-6.4 8.8-14.5 11.9-28.7 11.2-35 11.2-39.6 15.2-2.4 2.1.2 11.1 1.8 17.2 1.3 5 1.7 13.2 1.7 13.2h132.2s1.6-33-.6-39.8-7.1-2.9-21.9-4.5c-14.8-1.6-28.7-10.3-31-13.2l.3-60-38.4 4.2z" fill="#f3d4cf" stroke-width="none" opacity="1"></path></g><g id="svga-group-chinshadow-single"><path id="SvgjsPath15356" d="m116 144 .2-42.4-38.4 4.2s2.7 21.2 6.3 39.5c7.1 1.1 12.3 1.4 12.3 1.4s9-.6 19.6-2.7z" fill="#d4958a" stroke-width="none" opacity="1"></path></g><g id="svga-group-humanbody-front"><path id="SvgjsPath15361" d="M72.1 183.1s14.6-.2 20.4 2.6c5.8 2.9 12.7 2.4 16.1-1s21.6-7 21.6-7-19.7 1.9-25 4.6c-5.3 2.7-22.3-2.8-33.1.8z" fill="#d4958a" stroke-width="none" opacity="1"></path><path id="SvgjsPath15362" d="M74.2 173.2c6.7-1.3 14.7-6.4 14.7-6.4l6.2 5.5c-4.3-7.9-12.7-41.1-12.7-41.1l-.7.7c1.7 10.5 3.9 21.9 6.1 29.7 0 0-6 8.2-13.6 11.6z" fill="#d4958a" stroke-width="none" opacity="1"></path><path id="SvgjsPath15363" d="M170.7 188.5c-.1-2.1-.2-4.1-.4-6.2-.1-1-.3-2.1-.6-3.2-.2-.5-.4-1-.6-1.6-.2-.5-.6-1-1-1.5s-.9-.9-1.5-1.1c-.6-.3-1.1-.4-1.7-.6-1.1-.2-2.2-.2-3.2-.2-2.1 0-4.1.1-6.1.1s-4-.1-6-.2-4-.4-6-.7c-1-.2-2-.4-2.9-.6l-1.5-.4c-.5-.1-1-.3-1.4-.4-3.8-1.1-7.6-2.6-11.2-4.4l-1.3-.7-1.3-.7c-.4-.2-.9-.5-1.3-.8s-.9-.5-1.3-.8-.8-.5-1.3-.8l-1.2-.9-.6-.5-.3-.2-.3-.2c-.2-.2-.4-.3-.5-.5l-.2-.3v-44.6l-.1-15v-.6l-.6.1c-6.4.8-12.9 1.5-19.3 2.3l-19.1 2.3v.5l.1.4.1.9.2 1.8c.1 1.2.3 2.3.4 3.5l.9 7c.6 4.7 1.3 9.4 2.1 14 .8 4.7 1.5 9.3 2.5 14 .9 4.5 1.8 9 3 13.5-1.1 1.4-2.3 2.7-3.6 4-1.3 1.3-2.8 2.6-4.3 3.8-1.5 1.1-3.1 2.2-4.8 3l-1.3.6c-.4.2-.9.3-1.3.5l-2.7 1c-7.2 2.7-14.5 5.3-21.8 7.7l-5.5 1.8c-1.8.6-3.7 1.3-5.5 2.2-.4.2-.9.5-1.3.7-.4.3-.9.5-1.3.9l-.6.5c-.2.2-.5.5-.6.8-.3.5-.4 1.1-.5 1.6-.2 1.1-.1 2.1 0 3.1s.3 2 .4 2.9c.4 1.9.8 3.8 1.3 5.7l.8 2.8c.3.9.5 1.8.7 2.8.4 1.9.7 3.8.9 5.7s.4 3.8.5 5.7v.8h133.4v-.8c.2-4.1.4-8.2.5-12.3s.2-8.2.2-12.3c0-1.8-.1-3.8-.1-5.9zm-67.4 30.3H70.2l-16.5-.1-16-.1c-.1-1.8-.2-3.5-.4-5.3-.2-1.9-.4-3.9-.8-5.8-.2-1-.4-1.9-.7-2.9l-.7-2.8c-.5-1.9-.9-3.7-1.2-5.6-.2-.9-.3-1.9-.4-2.8-.1-.9-.1-1.9 0-2.7.1-.4.2-.8.4-1.1.1-.2.2-.3.3-.4l.5-.4c.3-.3.7-.5 1.1-.8.4-.2.8-.5 1.2-.7 1.7-.8 3.5-1.4 5.3-2l5.5-1.8c7.3-2.4 14.6-5 21.8-7.8l2.7-1c.5-.2.9-.3 1.4-.5l1.4-.6c1.8-.9 3.4-2 5-3.2s3-2.5 4.4-3.9 2.7-2.9 3.8-4.5l.2-.3-.1-.3c-1.3-4.5-2.3-9.1-3.3-13.7s-1.9-9.3-2.7-13.9c-.8-4.6-1.6-9.3-2.4-14l-2.2-13.9 19.3-1.8c6.2-.6 12.3-1.2 18.5-1.8l-.2 14.4-.2 15-.3 30v.4l.2.2.6.7.6.6.3.3.3.2.6.5c.4.3.9.6 1.3.9.4.3.9.6 1.3.9.4.3.9.5 1.3.8s.9.5 1.3.8l1.4.8 1.4.7c.5.2.9.5 1.4.7l1.4.7c1 .4 1.9.8 2.9 1.2s1.9.8 2.9 1.1l1.5.5c.5.2 1 .3 1.5.4.5.1 1 .3 1.5.4l1.5.4c1 .3 2 .4 3 .6 2 .4 4.1.6 6.2.8 2.1.2 4.1.2 6.2.2 2.1 0 4.1-.1 6.1-.1s4 .1 5 1.3c.5.6.9 1.4 1.2 2.3.3.9.4 1.9.6 2.8.3 2 .4 4 .5 6s.1 4.1.2 6.1c.1 7.9-.1 15.8-.4 23.7-10.8.1-21.5.1-32.3.2h-33.1z" fill="#c5796d" stroke-width="none" opacity="1"></path><path id="SvgjsPath15364" d="M150.7 219.2 147 198l-.4 21.2z" fill="#d4958a" stroke-width="none" opacity="1"></path><path id="SvgjsPath15365" d="M47.3 203.5s2.2 11.5 2.9 15.7h3.5l-6.4-15.7z" fill="#d4958a" stroke-width="none" opacity="1"></path></g><g id="svga-group-clothes-single"><path id="SvgjsPath15514" d="M67.44 197.26s-7.93 11.38-14.61 21.69l94.93.05s-6.01-7.26-17.72-24.24c0 0-17.31 12.83-27.99 20.08.01.01-20.1-8.8-34.61-17.58z" fill="#000000" stroke-width="none" opacity="1"></path><path id="SvgjsPath15515" d="M148.33 218.53c-3.06-3.91-5.97-7.99-8.88-12.05-2.5-3.5-4.95-7.04-7.38-10.6.58-5.92 3.97-24.68 3.97-24.68l-2.54-.91-5.78 24.88-12.21 8.89c-4.5 3.28-9.02 6.54-13.57 9.74-2.8-1.2-5.6-2.45-8.38-3.72-2.93-1.36-5.88-2.69-8.79-4.09-2.92-1.38-5.81-2.84-8.7-4.28-1.44-.74-2.88-1.47-4.31-2.23l-1.33-.71-7.23-22.68-2.09.75 4.78 22.32-.49.65-1.93 2.64c-1.28 1.76-2.58 3.52-3.83 5.31-2.51 3.57-5.01 7.15-7.44 10.77l-.78 1.16 1.42.02c7.91.09 15.82.17 23.73.14 7.91-.04 15.82-.27 23.73-.41 7.91-.17 15.82-.18 23.73-.11 7.91.06 15.82.25 23.73.39l1.53.03-.96-1.22zm-48.03-.02c-7.91-.15-15.82-.38-23.73-.43-7.45-.04-14.9.02-22.34.1 2.07-3.29 4.14-6.58 6.26-9.84l3.52-5.51 1.77-2.75.88-1.38.44-.69.22-.35c.07-.12.17-.23.16-.3 1.38.9 2.62 1.74 4.05 2.57 1.38.85 2.79 1.66 4.18 2.48 2.81 1.62 5.67 3.16 8.53 4.68 2.87 1.51 5.75 3 8.67 4.42s5.84 2.82 8.8 4.17l.45.2.43-.29c4.81-3.17 9.5-6.49 14.18-9.82 2.35-1.66 4.66-3.37 6.98-5.06 2.04-1.49 4.06-2.99 6.08-4.5 2.68 3.81 5.39 7.6 8.15 11.35 1.48 2.02 3 4.02 4.53 6 1.23 1.59 2.47 3.16 3.75 4.72-7.41.13-14.81.3-22.22.34-7.92.09-15.83.07-23.74-.11z" fill="#000000" stroke-width="none" opacity="1"></path></g><g id="svga-group-head" transform="matrix(0.9986295104026794,0.0523359589278698,-0.0523359589278698,0.9986295104026794,7.202403545379639,-5.048579692840576)"><g id="svga-group-ears-left-move" transform="matrix(1,0,0,1,0,0)"><g id="svga-group-ears-left"><path id="SvgjsPath15308" d="M63.09 94.03s-3.12-7.36-5.69-9.71c-2.57-2.34-7.59-5.02-9.48-4.35-1.9.67 1.12 8.81 2.23 10.6 1.12 1.79 1.12 11.49 1.23 14.39.11 2.9 2.9 6.25 5.02 8.7 2.12 2.45 4.24-1.12 5.69-4.35s1-15.28 1-15.28z" fill="#f3d4cf" stroke-width="none" opacity="1"></path><path id="SvgjsPath15309" d="M61.92 100.31c-.33-2.85-5.11-11.21-6.86-12.8-1.76-1.59-5.69-4.44-5.77-3.52s2.26 5.69 2.34 8.54.17 10.96 1.09 12.72c.92 1.76 5.69 1.51 6.53-.17s2.67-4.77 2.67-4.77z" fill="#e4b3ab" stroke-width="none" opacity="1"></path><path id="SvgjsPath15310" d="M47.07 80.79c-.11.94.06 1.79.25 2.64.4 1.69.98 3.31 1.62 4.9.33.79.68 1.58 1.11 2.33.35.72.47 1.6.59 2.43.22 1.69.26 3.4.32 5.11.04 1.71.03 3.42.05 5.13.03.85-.04 1.71.14 2.62.17.89.52 1.72.93 2.5.82 1.56 1.87 2.94 2.96 4.28.27.33.55.67.83.99.13.16.29.33.47.5.16.18.38.32.6.45.46.25 1.07.32 1.58.14.49-.19.88-.49 1.21-.81.66-.65 1.13-1.41 1.57-2.16.43-.76.81-1.54 1.15-2.34.63-1.74.72-3.45.84-5.17.17-3.44.07-6.86-.15-10.29-.62-1.62-1.31-3.18-2.08-4.71-.79-1.52-1.59-3.06-2.7-4.42-.56-.69-1.24-1.27-1.92-1.8-.69-.53-1.41-1.01-2.15-1.47-1.49-.89-3.07-1.66-4.83-2.01-.44-.07-.91-.11-1.4.01-.22.02-.56.2-.71.44-.18.22-.23.47-.28.71zm.56.1c.04-.18.1-.36.19-.47.1-.11.16-.15.37-.18.35-.08.75-.02 1.14.05 1.6.33 3.13 1.13 4.58 1.96.73.42 1.44.88 2.11 1.38.68.51 1.32 1.03 1.85 1.67 1.07 1.27 1.97 2.74 2.81 4.22.83 1.48 1.63 3.01 2.37 4.53-.03 3.41-.11 6.84-.4 10.23-.16 1.68-.34 3.42-.92 4.9-.73 1.51-1.47 3.09-2.59 4.22-.28.27-.59.49-.9.61-.31.1-.61.06-.9-.09-.55-.33-1.09-1.11-1.65-1.73-1.09-1.3-2.14-2.64-2.94-4.1-.4-.73-.72-1.5-.9-2.28-.17-.76-.15-1.64-.19-2.49-.06-1.71-.14-3.42-.25-5.13-.11-1.71-.25-3.42-.48-5.12-.14-.85-.25-1.71-.66-2.52-.43-.72-.75-1.52-1.07-2.31-.62-1.59-1.13-3.22-1.44-4.89-.14-.84-.26-1.7-.13-2.46z" fill="#e4b3ab" stroke-width="none" opacity="1"></path><path id="SvgjsPath15311" d="M53.38 89.46c.58 1.22 1.11 2.47 1.51 3.75.4 1.29.75 2.59 1.06 3.9.29 1.31.56 2.63.72 3.97l-.08.02c-.42-1.28-.8-2.56-1.2-3.84-.39-1.28-.78-2.56-1.2-3.82-.41-1.27-.78-2.55-1.24-3.8-.38-1.05-.84-2.1-1.49-3 .37 1.58.79 3.15 1.13 4.74.19.9.36 1.8.49 2.71.07.46.13.92.17 1.38.05.46.04.98.04 1.39.05 1.78.28 3.6.53 5.39.14.9.28 1.79.47 2.67.09.44.2.88.32 1.3.01.02.01.04.02.06.04-.85.09-1.71.11-2.56.04-1.28.1-2.55.06-3.83l.08-.01c.17 1.27.2 2.56.25 3.84.03 1.28.04 2.56.05 3.84v.8l-.52-.59c-.4-.46-.51-.9-.68-1.34-.15-.45-.28-.89-.39-1.34-.23-.9-.42-1.8-.58-2.71-.31-1.82-.56-3.63-.58-5.51.09-1.79-.24-3.58-.47-5.39-.26-1.8-.5-3.62-.9-5.4l-.12-.54.35.42c.88 1.08 1.49 2.29 2.09 3.5z" fill="#c5796d" stroke-width="none" opacity="1"></path></g></g><g id="svga-group-ears-right-move" transform="matrix(1,0,0,1,0,0)"><g id="svga-group-ears-right"><path id="SvgjsPath15312" d="M136.91 94.03s3.12-7.36 5.69-9.71c2.57-2.34 7.59-5.02 9.48-4.35s-1.12 8.81-2.23 10.6c-1.12 1.79-1.12 11.49-1.23 14.39-.11 2.9-2.9 6.25-5.02 8.7-2.12 2.45-4.24-1.12-5.69-4.35-1.45-3.23-1-15.28-1-15.28z" fill="#f3d4cf" stroke-width="none" opacity="1"></path><path id="SvgjsPath15313" d="M138.08 100.31c.33-2.85 5.11-11.21 6.86-12.8 1.76-1.59 5.69-4.44 5.77-3.52.08.92-2.26 5.69-2.34 8.54s-.17 10.96-1.09 12.72c-.92 1.76-5.69 1.51-6.53-.17s-2.67-4.77-2.67-4.77z" fill="#e4b3ab" stroke-width="none" opacity="1"></path><path id="SvgjsPath15314" d="M152.66 80.07c-.15-.24-.49-.42-.71-.44-.49-.12-.96-.08-1.4-.01-1.76.35-3.34 1.12-4.83 2.01-.74.45-1.46.93-2.15 1.47-.68.53-1.36 1.1-1.92 1.8-1.11 1.36-1.91 2.9-2.7 4.42-.77 1.54-1.46 3.1-2.08 4.71-.23 3.43-.33 6.85-.15 10.29.12 1.72.22 3.44.84 5.17.34.79.72 1.58 1.15 2.34.44.76.91 1.51 1.57 2.16.33.32.72.62 1.21.81.51.18 1.11.11 1.58-.14.22-.14.44-.27.6-.45.18-.17.34-.34.47-.5.28-.32.55-.66.83-.99 1.09-1.34 2.14-2.72 2.96-4.28.4-.78.75-1.61.93-2.5.17-.92.11-1.77.14-2.62.02-1.71.01-3.42.05-5.13.05-1.71.1-3.42.32-5.11.12-.83.23-1.71.59-2.43.43-.76.78-1.54 1.11-2.33.64-1.59 1.21-3.21 1.62-4.9.18-.85.36-1.7.25-2.64-.06-.23-.11-.48-.28-.71zm-.42 3.27c-.31 1.66-.82 3.3-1.44 4.89-.32.79-.63 1.59-1.07 2.31-.41.81-.52 1.67-.66 2.52-.22 1.7-.37 3.41-.48 5.12-.11 1.71-.2 3.42-.25 5.13-.05.85-.02 1.73-.19 2.49-.18.79-.5 1.55-.9 2.28-.8 1.46-1.85 2.8-2.94 4.1-.56.62-1.1 1.4-1.65 1.73-.29.15-.59.19-.9.09-.31-.12-.62-.34-.9-.61-1.12-1.13-1.86-2.71-2.59-4.22-.58-1.47-.76-3.22-.92-4.9-.29-3.39-.37-6.82-.4-10.23.74-1.52 1.54-3.05 2.37-4.53.84-1.48 1.73-2.95 2.81-4.22.53-.63 1.17-1.16 1.85-1.67.67-.5 1.39-.96 2.11-1.38 1.45-.83 2.98-1.63 4.58-1.96.39-.07.8-.12 1.14-.05.21.03.27.07.37.18.09.11.15.29.19.47.13.77.01 1.63-.13 2.46z" fill="#e4b3ab" stroke-width="none" opacity="1"></path><path id="SvgjsPath15315" d="M146.62 89.46c-.58 1.22-1.11 2.47-1.51 3.75-.4 1.29-.75 2.59-1.06 3.9-.29 1.31-.56 2.63-.72 3.97l.08.02c.42-1.28.8-2.56 1.2-3.84.39-1.28.78-2.56 1.2-3.82.41-1.27.78-2.55 1.24-3.8.38-1.05.84-2.1 1.49-3-.37 1.58-.79 3.15-1.13 4.74-.19.9-.36 1.8-.49 2.71-.07.46-.13.92-.17 1.38-.05.46-.04.98-.04 1.39-.05 1.78-.28 3.6-.53 5.39-.14.9-.28 1.79-.47 2.67-.09.44-.2.88-.32 1.3-.01.02-.01.04-.02.06-.04-.85-.09-1.71-.11-2.56-.04-1.28-.1-2.55-.06-3.83l-.08-.01c-.17 1.27-.2 2.56-.25 3.84-.03 1.28-.04 2.56-.05 3.84v.8l.52-.59c.4-.46.51-.9.68-1.34.15-.45.28-.89.39-1.34.23-.9.42-1.8.58-2.71.31-1.82.56-3.63.58-5.51-.09-1.79.24-3.58.47-5.39.26-1.8.5-3.62.9-5.4l.12-.54-.35.42c-.88 1.08-1.49 2.29-2.09 3.5z" fill="#c5796d" stroke-width="none" opacity="1"></path></g></g><g id="svga-group-faceshape-wrap"><g id="svga-group-faceshape-single"><path id="SvgjsPath15342" d="M145.4 78.8s-2.4-21.2-9.5-29c-6.7-7.4-11.3-13.2-28.8-17.3-1.8-.4-12.3-.4-14.1 0-17.5 4.1-22.1 9.9-28.8 17.3-7.1 7.8-9.5 29-9.5 29-.8 35.3 2.3 49 2.3 49 14.9 9.1 43.1 10.9 43.1 10.9s28.2-1.8 43.1-10.9c-.1 0 3.1-13.7 2.2-49z" fill="#f3d4cf" stroke-width="none" opacity="1"></path><path id="SvgjsPath15343" d="M100.1 138.7s28.2-1.8 43.1-10.9c0 0 3.1-13.7 2.3-49 0 0-2.4-21.2-9.5-29-6.7-7.4-11.3-13.2-28.8-17.3-1.8-.4-12.3-.4-14.1 0-17.5 4.1-22.1 9.9-28.8 17.3-7.1 7.8-9.5 29-9.5 29-.8 35.3 2.3 49 2.3 49 14.8 9.1 43 10.9 43 10.9zm-44.4-35.4c-.2-4.1-.4-8.2-.5-12.2l-.1-6.1v-6.1c.2-1.5.4-3 .6-4.4.2-1.5.5-3 .8-4.4.6-2.9 1.4-5.8 2.3-8.7.9-2.8 2.1-5.6 3.6-8.1l.6-.9.3-.5.3-.4c.2-.3.5-.6.7-.8.2-.3.5-.5.8-.8 1-1.1 2.1-2.2 3.1-3.3 2.1-2.1 4.3-4.1 6.8-5.7 2.4-1.6 5.1-2.9 7.9-3.9 2.7-1.1 5.6-1.8 8.5-2.5l1.1-.3.5-.1.3-.1h2.3c1.5 0 3-.1 4.5-.1s3 0 4.5.1c.4 0 .7 0 1.1.1h1.2l.1-.1.5.1 1.1.3 1.1.3 1.1.3 2.1.6 2.1.7c.7.2 1.4.5 2.1.7 2.7 1 5.4 2.3 7.8 3.9 2.4 1.6 4.7 3.5 6.8 5.6 1.1 1.1 2.1 2.1 3.1 3.2l.8.8c.2.3.5.5.7.8l.3.4.3.4.6.9c1.6 2.5 2.7 5.3 3.7 8.1 1.9 5.7 3.2 11.6 3.9 17.6l.1 6.1v6.1c-.1 2-.1 4.1-.2 6.1s-.2 4.1-.3 6.1c-.2 4.1-.6 8.2-1.1 12.2-.2 2-.5 4-.8 6.1-.2 1-.3 2-.5 3l-.3 1.5c-.1.3-.1.6-.2.9-3 1.7-6.2 2.9-9.5 4-1.7.6-3.5 1.1-5.3 1.5-1.8.5-3.6.9-5.4 1.3-3.6.8-7.2 1.4-10.9 1.9-3.6.5-7.3 1-10.9 1.2-1.8-.1-3.6-.3-5.4-.5s-3.7-.4-5.5-.7c-3.7-.5-7.3-1.1-10.9-1.9-1.8-.4-3.6-.8-5.4-1.3s-3.5-1-5.3-1.6c-3.3-1.1-6.5-2.4-9.4-4.1-.2-.7-.3-1.5-.4-2.3-.2-1-.3-2-.4-3-.3-2-.5-4-.7-6.1-.2-3.8-.5-7.8-.7-11.9z" fill="#c5796d" stroke-width="none" opacity="1"></path></g></g><g id="svga-group-mouth-single-move" transform="matrix(1,0,0,1,0,0)"><g id="svga-group-mouth-single"><path id="SvgjsPath15295" d="M86.91 124.8c.07.65 1.73 1.37 3.46 1.87s6.92.58 9.44.65c2.52.07 13.47-2.02 14.48-2.59 1.01-.58-6.77-3.6-9.51-3.1s-5.12 2.16-6.56 1.8-3.53-1.87-4.83-1.3c-1.3.58-3.82 2.31-4.47 2.38-.64.07-2.01.29-2.01.29z" fill="#da7c87" stroke-width="none" opacity="1"></path><path id="SvgjsPath15296" d="M86.04 124.67c1.27 1.34 2.83 1.27 4.34.24.69-.47 1.37-1.28 2.13-1.64 1.5-.72 2.18-.19 3.42.37.97.44 1.78.68 2.89.55 1.16-.14 1.96-.64 3.01-1.08 2.44-.99 4.14-.26 6.51.73 2.75 1.17 5.14 2.17 8.04.5.39-.23.17-.78-.34-.68-4.06.76-6.65-2.56-9.91-3.36-2.72-.67-4.16.44-6.33 1.51-1.05.53-1.25 1.23-2.98.41-.47-.23-.82-.71-1.27-.97-.73-.43-1.44-.61-2.31-.5-2.36.3-4.5 4.11-6.75 3.16-.42-.19-.75.45-.45.76z" fill="#cb5f6c" stroke-width="none" opacity="1"></path></g></g><g id="svga-group-eyes-left-move" transform="matrix(1,0,0,1,0,0)"><g id="svga-group-eyes-left"><g id="svga-group-eyesback-left"><path id="SvgjsPath15430" d="M80.2 77.2c7.5 0 13.5 5.8 13.5 13s-6 13-13.5 13-13.5-5.8-13.5-13 6-13 13.5-13z" fill="#ffffff" stroke-width="none" opacity="1"></path></g><g id="svga-group-eyesiriswrapper-left" transform="matrix(1,0,0,1,0,0)"><g id="svga-group-eyesiriscontrol-left" transform="matrix(1,0,0,1,0,0)"><g id="svga-group-eyesiris-left"><path id="SvgjsPath15380" d="M80.2 84.9c2.9 0 5.3 2.4 5.3 5.3s-2.4 5.3-5.3 5.3-5.3-2.4-5.3-5.3 2.4-5.3 5.3-5.3z" fill="#4e60a3" stroke-width="none" opacity="1"></path><path id="SvgjsPath15381" d="M84.7 87.3c.4.6.7 1.2.8 1.9s.2 1.4.1 2.2-.4 1.4-.8 2.1c-.4.6-1 1.1-1.6 1.5s-1.3.6-2.1.7c-.7.1-1.4.1-2.2-.1-1.4-.3-2.7-1.1-3.5-2.3-.4-.6-.7-1.3-.9-2-.2-.7-.2-1.5 0-2.2.1-.7.4-1.4.8-2.1.4-.6 1-1.2 1.6-1.6s1.3-.7 2.1-.8c.7-.1 1.5-.1 2.2.1 1.6.5 2.7 1.4 3.5 2.6zm0 0-.3-.4c-.1-.1-.2-.3-.3-.4-.1-.1-.3-.2-.4-.3-.1-.1-.3-.2-.4-.3-.6-.4-1.2-.6-1.9-.7-1.3-.2-2.7.1-3.8.8-1.1.7-1.9 1.8-2.2 3.1-.3 1.3-.1 2.7.6 3.8.3.6.8 1.1 1.4 1.5s1.2.7 1.9.8c.7.1 1.4.1 2-.1.7-.2 1.3-.4 1.8-.8s1-.8 1.4-1.4.7-1.1.9-1.8c.2-.6.2-1.3.2-2-.3-.5-.6-1.2-.9-1.8z" fill="#253984" stroke-width="none" opacity="1"></path><path id="SvgjsPath15382" d="M80.2 88.3c1 0 1.9.9 1.9 1.9s-.9 1.9-1.9 1.9-1.9-.9-1.9-1.9.9-1.9 1.9-1.9z" fill="#000000" stroke-width="none" opacity="1"></path><path id="SvgjsPath15383" d="M80.2 92.3c-1.2 0-2.1-.9-2.1-2.1s.9-2.1 2.1-2.1 2.1.9 2.1 2.1-1 2.1-2.1 2.1zm0-3.8c-.9 0-1.7.8-1.7 1.7 0 .9.8 1.7 1.7 1.7.9 0 1.7-.8 1.7-1.7s-.7-1.7-1.7-1.7z" fill="#253984" stroke-width="none" opacity="1"></path><path id="SvgjsPath15384" d="M77.7 86.2c.4-.2 1.2.3 1.7 1.1.5.9.6 1.8.1 2s-1.2-.3-1.7-1.1c-.4-.8-.5-1.7-.1-2zm3.7 5c.4 0 .6.3.6.6s-.3.6-.6.6-.6-.3-.6-.6.3-.6.6-.6z" fill="#ffffff" stroke-width="none" opacity="1"></path></g></g></g><g id="svga-group-eyesfront-left"><path id="SvgjsPath15438" d="M80.2 76.7c-7.8 0-14.1 6.1-14.1 13.6s6.3 13.6 14.1 13.6 14.1-6.1 14.1-13.6S88 76.7 80.2 76.7zm3.2 20.4c-3.9 1.7-7.2.9-9.8-.2S67 91.4 67 91.4s3.8-3.7 5.9-4.5 10-1.7 12.2 0 4.4 3.8 4.4 3.8c-.5.8-2.2 4.8-6.1 6.4z" fill="#f3d4cf" stroke-width="none" opacity="1"></path><path id="SvgjsPath15439" d="M66.8 91.3s4.8-3.6 6-4.3 7.7-1.2 10.7-.4c4.3 1.2 7.1 5.6 7.1 5.6s0-2.4-.7-5.1c-.8-2.7-5.2-6.9-5.2-6.9s-5.5-1.9-8.4-.9-4.7 3.9-6.3 6.2c-1.6 2.2-2.7 3.7-3.2 5.8z" fill="#ebc3bd" stroke-width="none" opacity="1"></path><path id="SvgjsPath15440" d="M90.6 92.4v-.2c0-1.2-.1-2.3-.3-3.5-.1-.6-.2-1.2-.4-1.7-.2-.6-.4-1.1-.7-1.6-.6-1-1.3-1.9-2.1-2.8s-1.6-1.8-2.4-2.6h-.1c-1-.3-2-.6-3.1-.8s-2.1-.4-3.2-.4c-.5 0-1.1 0-1.6.1-.6.1-1.1.3-1.6.6-1 .5-1.8 1.2-2.5 2s-1.4 1.7-1.9 2.5c-.6.9-1.2 1.8-1.8 2.6-1.1 1.8-2.1 2.6-2.6 4.7l.4.3c1.5 1.8 3.2 3.4 5.1 4.8.5.3 1 .7 1.6.9.5.2 1.1.4 1.7.6 1.1.3 2.3.5 3.5.6 2.4 0 4.8-.7 6.7-2.2.9-.7 1.7-1.6 2.4-2.6.7-.9 1.1-1.7 1.6-2.7.1.1 1.1 1.2 1.1 1.3l.2.1zm-1.1-1.5c-.1-.1-.1-.1-.1 0-.3.4-.5.8-.8 1.3-.3.5-.7.9-1 1.4-.7.9-1.5 1.7-2.5 2.4-.9.7-2 1.1-3.1 1.4-1.1.3-2.2.5-3.4.5-1.1 0-2.3-.2-3.4-.5-.6-.2-1.1-.3-1.6-.6-.5-.2-1-.5-1.5-.8-.9-.7-1.8-1.4-2.7-2.2-.8-.8-1.6-1.6-2.3-2.4l-.4-.3c.1-.5.3-1 .5-1.4.1-.1.1-.2.2-.4.5-.9 1.1-1.8 1.7-2.6 1.2-1.7 2.4-3.5 3.8-5 .7-.7 1.5-1.4 2.4-1.9.4-.2.9-.4 1.4-.5.5-.1 1-.1 1.5-.1 2 .1 4.1.5 6.1 1.1.8.8 1.6 1.6 2.3 2.4.8.9 1.5 1.8 2.1 2.7.3.5.6 1 .7 1.5.2.6.3 1.1.4 1.7.2 1.1.3 2.1.4 3.2.2.1-.7-.9-.7-.9z" fill="#000000" stroke-width="none" opacity="1"></path><path id="SvgjsPath15441" d="M90.7 92.5s-1.5-4.2-3.9-5.8c-1.8-1.2-7.3-2.6-11.4-2s-8.5 3.7-9.6 4.1-2.9 1-4.6.1c0 0 2.7 2.6 5.1 3.2 0 0 3.9-3.1 7-4.3s6.7-1.6 9.7-.9c2.9.8 4.1 1.5 7.7 5.6z" fill="#000000" stroke-width="none" opacity="1"></path></g></g></g><g id="svga-group-eyes-right-move" transform="matrix(1,0,0,1,0,0)"><g id="svga-group-eyes-right"><g id="svga-group-eyesback-right"><path id="SvgjsPath15431" d="M119.8 77.2c7.5 0 13.5 5.8 13.5 13s-6 13-13.5 13-13.5-5.8-13.5-13 6-13 13.5-13z" fill="#ffffff" stroke-width="none" opacity="1"></path></g><g id="svga-group-eyesiriswrapper-right" transform="matrix(1,0,0,1,0,0)"><g id="svga-group-eyesiriscontrol-right" transform="matrix(1,0,0,1,0,0)"><g id="svga-group-eyesiris-right"><path id="SvgjsPath15385" d="M119.8 85.5c2.6 0 4.7 2.1 4.7 4.7s-2.1 4.7-4.7 4.7-4.7-2.1-4.7-4.7 2.1-4.7 4.7-4.7z" fill="#4e60a3" stroke-width="none" opacity="1"></path><path id="SvgjsPath15386" d="M123.8 87.7c.3.5.6 1.1.7 1.7s.2 1.2.1 1.9c-.1.6-.3 1.2-.7 1.8s-.8 1-1.4 1.3-1.2.5-1.8.6-1.3.1-1.9-.1c-1.2-.3-2.3-1-3.1-2-.4-.5-.6-1.1-.8-1.7s-.1-1.3 0-1.9.4-1.2.7-1.8.8-1 1.4-1.4c.6-.3 1.2-.6 1.8-.7.6-.1 1.3-.1 1.9.1 1.4.3 2.4 1.1 3.1 2.2zm-.1 0-.3-.4-.3-.3-.3-.3c-.1-.1-.2-.2-.4-.3-.5-.3-1.1-.5-1.7-.6-1.2-.2-2.3.1-3.3.7-.9.6-1.7 1.6-1.9 2.7-.3 1.1-.1 2.3.5 3.4.3.5.7 1 1.2 1.3s1.1.6 1.6.7c.6.1 1.2.1 1.8-.1.6-.1 1.1-.4 1.6-.7s.9-.7 1.2-1.2.6-1 .8-1.6c.2-.6.2-1.2.1-1.8-.1-.4-.3-1-.6-1.5z" fill="#253984" stroke-width="none" opacity="1"></path><path id="SvgjsPath15387" d="M119.8 88.5c.9 0 1.7.8 1.7 1.7s-.8 1.7-1.7 1.7-1.7-.8-1.7-1.7.8-1.7 1.7-1.7z" fill="#000000" stroke-width="none" opacity="1"></path><path id="SvgjsPath15388" d="M119.8 92.1c-1 0-1.8-.8-1.8-1.8s.8-1.8 1.8-1.8 1.8.8 1.8 1.8-.8 1.8-1.8 1.8zm0-3.4c-.8 0-1.5.7-1.5 1.5s.7 1.5 1.5 1.5 1.5-.7 1.5-1.5-.7-1.5-1.5-1.5z" fill="#253984" stroke-width="none" opacity="1"></path><path id="SvgjsPath15389" d="M117.6 86.7c.4-.2 1 .2 1.5 1 .4.8.5 1.5.1 1.8-.4.2-1-.2-1.5-1-.4-.8-.4-1.6-.1-1.8zm3.3 4.4c.3 0 .6.3.6.6s-.3.6-.6.6-.6-.3-.6-.6.3-.6.6-.6z" fill="#ffffff" stroke-width="none" opacity="1"></path></g></g></g><g id="svga-group-eyesfront-right"><path id="SvgjsPath15442" d="M119.8 76.7c-7.8 0-14.1 6.1-14.1 13.6s6.3 13.6 14.1 13.6 14.1-6.1 14.1-13.6-6.3-13.6-14.1-13.6zm6.9 21c-2.6 1.2-7 1.3-10.9-.4s-5.4-5.8-6-6.7c0 0 1.8-1.8 4.1-3.5 2.2-1.8 10.3-1.1 12.4-.2 2.1.9 5.9 4.3 5.9 4.3s-2.9 5.3-5.5 6.5z" fill="#f3d4cf" stroke-width="none" opacity="1"></path><path id="SvgjsPath15445" d="M132.1 91s-2.1-1.7-6.3-3c-1.3-.4-7.2-1.4-10.2-.8-3 .6-7 4.8-7 4.8s0-2 .7-4.3c.8-2.2 5.2-5.7 5.2-5.7s4.8-.8 7.6 0 5.5 2.5 7 4.3c1.7 1.9 2.5 3 3 4.7z" fill="#ebc3bd" stroke-width="none" opacity="1"></path><path id="SvgjsPath15446" d="M131.6 89.4c-.5-.8-1-1.6-1.6-2.4-.3-.4-.6-.8-.9-1.1-.3-.4-.7-.7-1.1-1-.7-.6-1.5-1.2-2.4-1.7-.8-.5-1.7-.9-2.6-1.2-.9-.3-1.9-.5-2.8-.6-1.9-.1-3.8 0-5.7.3h-.2c-.8.6-1.5 1.3-2.2 2s-1.4 1.4-2 2.3c-.3.4-.6.8-.8 1.3-.2.5-.3 1-.4 1.5-.2 1-.3 2.1-.3 3.1v.2l.2-.1c.4-.4.8-.8 1.2-1.1.5.9.9 1.9 1.5 2.7.7 1 1.5 2 2.5 2.7 1 .8 2.1 1.3 3.3 1.7 1.2.4 2.4.6 3.6.7s2.4.1 3.6-.2c.6-.1 1.2-.3 1.8-.5.3-.1.6-.2.9-.4.3-.2.5-.3.8-.5 1-.8 1.8-1.8 2.5-2.8.7-1 1.3-2 1.9-3-.2.1-.2-.9-.8-1.9zm-1.6 4.7c-.7 1-1.5 1.9-2.4 2.7-.9.8-2.1 1-3.2 1.3-1.2.2-2.3.2-3.5.2-1.2-.1-2.3-.3-3.5-.6-1.1-.3-2.2-.8-3.2-1.5-1.8-1.3-3.2-3.4-4.3-5.4-.3.3-.7.6-1.1.9v-.2c0-1 .2-1.5.4-2.5.1-.5.3-1 .5-1.4.2-.4.5-.8.8-1.2.6-.8 1.3-1.5 2.1-2.2.7-.7 1.4-1.3 2.2-1.9 1.8-.2 3.7-.3 5.5-.2.9.1 1.8.2 2.7.5.9.3 1.7.7 2.6 1.1s1.6 1 2.3 1.6c.4.3.7.6 1 1 .3.3.6.7.9 1.1.5.6 2.2 4 2.2 4-.6.8-1.3 1.8-2 2.7z" fill="#000000" stroke-width="none" opacity="1"></path><path id="SvgjsPath15447" d="M108.2 92.6s4.6-4.2 6.9-4.9c2.3-.7 8.4 0 10.4.6 1.9.6 6.8 3.4 7.5 3.8s3.6-1.8 4.2-2.6c0 0-2.2.8-5-.5-1-.4-6.1-3.2-8.9-3.3-2.9-.1-7.8 0-9.2.8-3.5 1.7-5.9 6.1-5.9 6.1z" fill="#000000" stroke-width="none" opacity="1"></path></g></g></g><g id="svga-group-facehighlight-single"></g><g id="svga-group-eyebrows-left-move" transform="matrix(1,0,0,1,0,0)"><g id="svga-group-eyebrows-left-rotate" transform="matrix(1,1.7453292144864463e-9,-1.7453292144864463e-9,1,1.3662410935921798e-7,-1.3617732008697203e-7)"><g id="svga-group-eyebrows-left"><path id="SvgjsPath15498" d="M79.11 74.28c1.5-.47 4.11.63 5.74 1.28 1.63.66 6.55.66 6.11-1.74-.43-2.4-4.97-4.64-10.48-2.39-13.42 5.17-15.42 14.63-15.42 14.63 5.11-7.66 8.25-10.43 14.05-11.78z" fill="#2a232b" stroke-width="none" opacity="1"></path></g></g></g><g id="svga-group-eyebrows-right-move" transform="matrix(1,0,0,1,0,0)"><g id="svga-group-eyebrows-right-rotate" transform="matrix(1,1.7453292144864463e-9,-1.7453292144864463e-9,1,1.396307283130227e-7,-2.1087271306896582e-7)"><g id="svga-group-eyebrows-right"><path id="SvgjsPath15499" d="M133.33 86.5s-2.57-8.65-15.45-12.44c-5.3-1.67-9.34.75-9.56 3.01-.22 2.26 4.35 1.9 5.82 1.16 1.47-.73 3.81-1.95 5.24-1.63 5.49.83 8.62 3.16 13.95 9.9z" fill="#2a232b" stroke-width="none" opacity="1"></path></g></g></g><g id="svga-group-nose-single-move" transform="matrix(1,0,0,1,0,0)"><g id="svga-group-nose-single"><path id="SvgjsPath15480" d="M94.71 101.62c-.22.12-4.9 2.79-5.07 6.17-.17 3.38 1.94 4.56 3.72 3.13 1.77-1.44 2.37-1.1 3.46-.17 1.1.93 4.23 1.44 5.49.42 1.27-1.01 1.86-1.44 3.3 0 1.44 1.44 5.32-.68 4.06-5.24S99.45 99 94.71 101.62z" fill="url(#SvgjsLinearGradient15481)" opacity="1"></path><path id="SvgjsPath15484" d="M94.71 101.62c-.97.58-1.89 1.25-2.7 2.03-.82.77-1.54 1.67-1.96 2.71-.12.25-.17.53-.25.8-.02.14-.03.28-.05.41-.02.14-.03.27-.02.42-.01.56.06 1.12.22 1.64.16.52.43 1.01.84 1.34.4.34.95.43 1.45.31.13-.02.24-.09.37-.12.11-.06.23-.12.34-.19l.32-.24c.11-.09.22-.18.34-.27.46-.34.96-.71 1.65-.76.34-.02.68.09.95.24.27.15.51.34.73.51.39.34.89.52 1.4.67 1.02.28 2.17.37 3.14.07.25-.07.44-.19.63-.32.22-.18.45-.36.69-.53.25-.17.52-.35.88-.43.36-.09.76-.02 1.07.12.31.15.56.34.79.54.12.1.22.2.33.31.09.09.16.14.25.2.37.21.87.21 1.33.05.94-.32 1.68-1.19 1.97-2.19.31-1 .24-2.13-.07-3.16-.32-1.01-1.04-1.9-1.9-2.59-.86-.7-1.85-1.23-2.89-1.64-1.04-.4-2.14-.7-3.25-.85-1.11-.15-2.25-.19-3.37-.05-1.12.12-2.23.43-3.23.97zm0 0c.99-.54 2.1-.86 3.22-1 1.12-.15 2.26-.15 3.39-.02 2.24.25 4.5.93 6.37 2.3.92.68 1.74 1.59 2.16 2.72.2.56.32 1.13.37 1.73.04.59.01 1.2-.16 1.78-.32 1.16-1.15 2.25-2.36 2.69-.59.21-1.32.26-1.95-.09-.08-.05-.15-.1-.22-.15a3.25 3.25 0 0 1-.19-.17c-.1-.09-.19-.19-.29-.27-.2-.18-.41-.32-.61-.42-.2-.1-.39-.12-.58-.08-.2.04-.41.16-.63.31-.22.15-.43.32-.65.49-.27.2-.57.36-.87.44-.6.19-1.21.21-1.8.18a7.96 7.96 0 0 1-1.74-.32c-.56-.18-1.14-.43-1.59-.85-.42-.36-.84-.71-1.29-.69-.46.01-.95.3-1.4.61-.11.08-.22.16-.33.25l-.37.25c-.13.07-.27.14-.41.21-.15.04-.29.11-.44.13-.6.12-1.28-.03-1.72-.45-.46-.4-.73-.96-.87-1.51-.14-.56-.2-1.14-.16-1.71 0-.14.02-.29.04-.43s.04-.29.07-.42c.09-.27.15-.56.28-.81.21-.53.55-1 .88-1.45.36-.44.74-.86 1.16-1.24.8-.78 1.72-1.45 2.69-2.01z" fill="#c5796d" stroke-width="none" opacity="1"></path></g></g><g id="svga-group-hair-front"><path id="SvgjsPath15531" d="M103 30.3s-8.4-2.1-19.6 1.5c0 0-16.3 7.2-22.9 18.9s-11 21.4-11.9 34.4c-.9 13-2.2 30.6-1.8 42.2 0 0 3.8 49.9 5.6 58.2l8.1-1.3s-5.7-15.1-7-26.2c0 0 7.8 22 11.8 26.1l4.3-.6s-6.4-16.4-7.8-29.1c0 0 9.3 19 12 24l8.1.3s-9.7-19.8-13.3-32.1c0 0 5.8 13 8.4 17.2 0 0-9.4-41.6-10.4-48.6s-4.8-33.8-1.8-42.6c0 0 .7 11.7 1.8 16.5l3.3-8.8s-.7-12.1-.3-15.4c0 0 1 10.4 1.6 13 0 0 6.1-2.7 13-2.6 0 0-1-5.6-1.1-9 0 0 1.6 6 2.8 9.1l4.1.7s-3-12-2.8-16.1c0 0 4.7 14.3 8.3 19.7 0 0-2-8.7-2.3-14.5l5 15.3s5.3-18.1 6-25.1c0 0-1.1 20.5-2.1 24.8 0 0 4.4-10.7 5-13.6l-1 13.1 6.6-.4s4.4-14 4.6-19.8c0 0 2.1 17.5.7 23.2 0 0 2.7-12 2.6-20 0 0 1.7 5 2.6 9.3l1.4-8s4.1 7.6 4.1 18.4c0 0 1.9-9.7 1.6-20.1 0 0 4.9 14.5 5 20.7s-.1 7.6-.1 7.6l2.9-9.4s-1.7 26.2-2.9 41.2-6 44.8-6 44.8l4.1-8.3-6.3 23.7 4.8 1.9 7.6-13.3-5.7 14.7s11.1-14.8 13.3-21.2c0 0-2.7 16.8-4.1 21 0 0 7-2.5 8.1-5.3.3-.7 3.4-19.1 3.4-19.1l-1.4 20.4s4-9.8 5-14.5c1-4.7-.3-23.1-.3-23.1s2.7 13.1 4.9 18.4c0 0-4.1-23.2-4.6-26.1-.4-2.9-3.1-27.2-3.7-30.7-.6-3.4-2.3-22-4.3-29.8s-3.9-18-10-27.4-12.1-14.4-18.2-17.2-15.9-2.6-18.8-1z" fill="#c2b343" stroke-width="none" opacity="1"></path><path id="SvgjsPath15532" d="m94.9 75.3-.3-2.2-.3-2.2c-.3-3-.5-5.9-.6-8.9-.1-3 .1-6 .3-8.9.2-3 .7-5.9 1.2-8.9-.9 2.8-1.5 5.8-1.9 8.8-.4 3-.6 6-.6 9 .1 3 .3 6 .8 9l.4 2.2.5 2.2c.4 1.4.8 2.9 1.3 4.3-.1-.7-.3-1.5-.4-2.2l-.4-2.2zm-7-13.1c-.1-2.3-.1-4.6.1-6.9l.1-1.7.2-1.7.2-1.7c.1-.6.2-1.2.3-1.7-.4 1.1-.7 2.2-1 3.4l-.3 1.7-.3 1.7c-.3 2.3-.4 4.7-.3 7 .1 2.3.4 4.7.9 7S89 73.8 90 76c-.6-2.3-1.1-4.5-1.4-6.8-.4-2.4-.7-4.7-.7-7zm-5.7.8c0 4.1.6 8.3 2 12.2-.6-4.1-1-8.1-1-12.2s.4-8.1 1.1-12.2c-1.4 3.9-2.1 8.1-2.1 12.2zm.5-12.5c-1.3 3.8-2 7.7-2.2 11.7-.2 4 0 8 .9 11.8-.1-4-.1-7.9.1-11.8.2-3.9.7-7.8 1.2-11.7zm-4.1 1.8c-.5 2.5-.8 5.1-1.1 7.7-.2 2.6-.2 5.2-.1 7.8.1 2.6.4 5.2.9 7.7-.1-2.6-.2-5.2-.2-7.7 0-2.6.1-5.1.3-7.7.2-2.6.5-5.1.8-7.7.2-1.3.4-2.5.6-3.8l.3-1.9c.1-.6.2-1.3.4-1.9-.4 1.2-.8 2.5-1.2 3.7-.2 1.2-.5 2.5-.7 3.8zm-3.9 4.3L75 55l.4-1.6.4-1.6c.2-.5.3-1.1.5-1.6-.5 1-1 2-1.4 3l-.6 1.6-.5 1.6c-.6 2.2-1 4.4-1.2 6.7-.2 2.2-.1 4.5.1 6.8.3 2.2.7 4.4 1.5 6.6-.3-2.2-.6-4.4-.7-6.6-.1-2.2-.1-4.4.1-6.6.3-2.3.6-4.5 1.1-6.7zm-3.6-1.8-.6 1.9c-.7 2.5-1.2 5.1-1.4 7.7-.3 2.6-.3 5.2-.2 7.9.2 2.6.5 5.2 1.1 7.8-.2-2.6-.4-5.2-.4-7.8 0-2.6.1-5.2.4-7.7.3-2.6.7-5.1 1.2-7.7l.4-1.9.5-1.9.5-1.9c.2-.6.4-1.2.6-1.9-.6 1.2-1.1 2.4-1.5 3.6l-.6 1.9zm-4.4 8.7.4-2.2.5-2.2.5-2.2c.2-.7.4-1.4.6-2.2-.3.7-.6 1.4-.8 2.1l-.8 2.2-.6 2.2-.5 2.1v.1c-2.3 9.1-3.3 18.6-3.1 28 .1 5.2.6 10.4 1.4 15.6.7 4.3 1.7 8.5 2.9 12.7-.6-1.1-1.2-2.1-1.8-3.2l-3.1-5.4 2.8 5.6c.9 1.9 1.9 3.7 2.8 5.6l1.3 2.5-.8-2.7c-1.4-5-2.5-10.1-3.3-15.2-.8-5.1-1.2-10.3-1.4-15.4-.1-6.9.3-13.7 1.2-20.5 0 .4-.1.8-.1 1.2-.1 3-.1 6 .3 9 .3 3 .9 5.9 1.8 8.8-.5-2.9-.9-5.9-1.1-8.9-.2-3-.2-5.9-.1-8.9.2-2.9.6-5.8 1-8.7zm35.5-26c.6 3.7 1 7.3 1.3 11 .3 3.7.4 7.4.3 11 0 3.7-.3 7.4-.6 11l-.3 2.8-.4 2.7-.4 2.7c-.2.9-.3 1.8-.5 2.7.5-1.8.9-3.6 1.4-5.4l.5-2.7.4-2.8c.5-3.7.8-7.4.9-11.1 0-3.7-.1-7.5-.6-11.1-.4-3.5-1-7.2-2-10.8zm5.6 6.7c.5 4 .9 8 1.2 12 .3 4 .3 8 .3 12.1.8-4 .9-8.1.7-12.2-.3-4-1-8.1-2.2-11.9zm8.4 9.1c-1-3.2-2.2-6.2-3.8-9.2 1.2 3.1 2.2 6.2 3 9.4.8 3.2 1.5 6.4 1.9 9.6.5 3.2.7 6.5.8 9.8v2.5l-.1 2.5-.1 2.5c-.1.8-.1 1.6-.2 2.5.2-.8.3-1.6.5-2.4l.3-2.4.2-2.5.1-2.5c.1-3.3-.1-6.6-.5-9.9-.4-3.5-1.1-6.7-2.1-9.9zm6.7 11.9c-.2-2.2-.6-4.5-1.1-6.7-.5-2.2-1.1-4.3-1.9-6.5-.8-2.1-1.7-4.2-2.8-6.1.7 2.1 1.4 4.2 2 6.4.6 2.1 1.2 4.3 1.7 6.4.5 2.2.9 4.3 1.3 6.5.2 1.1.3 2.2.5 3.3.2 1.1.3 2.2.4 3.3.1-1.1.1-2.2.1-3.4 0-1-.1-2.1-.2-3.2zm5.2 7.7.1 2.4v4.8c0 .8-.1 1.6-.1 2.4.1-.8.2-1.6.4-2.4l.2-2.4.1-2.5.1-2.5c0-3.3-.3-6.6-.8-9.8-.5-3.2-1.2-6.5-2.2-9.6-1-3.1-2.2-6.2-3.7-9.1 1.1 3.1 2.1 6.2 2.9 9.3.8 3.2 1.5 6.3 2 9.5.6 3.5.9 6.7 1 9.9zm.1-20.6c.1.6.2 1.2.3 1.9l.3 1.9c.2 1.2.4 2.5.5 3.7.2 2.5.4 5 .4 7.5s-.1 5-.3 7.5c-.2 2.5-.5 5-.9 7.4.8-2.4 1.3-4.9 1.7-7.4.4-2.5.5-5 .5-7.6 0-2.5-.2-5.1-.6-7.5-.2-1.2-.5-2.5-.8-3.7-.3-1.3-.7-2.5-1.1-3.7zm6 14.3c-.5-2.7-1.1-5.4-2-8.1-.8-2.6-1.8-5.2-2.9-7.7.8 2.6 1.5 5.3 2.2 7.9.6 2.7 1.2 5.3 1.7 8s.9 5.4 1.2 8.1c.2 1.4.3 2.7.4 4.1l.2 2.1c0 .7.1 1.4.1 2.1.1-1.4.1-2.8.2-4.1 0-1.4-.1-2.8-.1-4.1-.1-2.9-.5-5.6-1-8.3zm1 23.1c1-2.2 1.8-4.5 2.2-6.8 0 2.9 0 5.7-.1 8.6-.1 5.6-.5 11.1-1.1 16.7l-.5 4.2-.6 4.2-.6 4.1-.2 1.1-.9 3.3c.1-.2.3-.5.4-.8l-.1.5.1-.6c1-1.9 1.8-3.8 2.6-5.7.8-2.3 1.6-4.6 2.1-7-1.2 2.1-2.2 4.3-3 6.6-.2.6-.4 1.1-.6 1.7l.7-3.2.7-4.1.6-4.2c.8-5.6 1.2-11.2 1.4-16.8.1-4.6 0-9.2-.2-13.8.1-1.9.1-3.8-.2-5.7-.1.4-.1.8-.1 1.2-.4-5.1-1.1-10.1-2.1-15.1.7 5.5 1.2 11.1 1.5 16.7 0 .9.1 1.8.1 2.7-.1 1.2-.3 2.3-.5 3.4-.4 2.9-1 5.8-1.6 8.8zM78.7 33.8c-7.1 3.5-13 9-17.6 15.3-4.6 6.4-7.9 13.7-10 21.2-2.2 7.6-3.3 15.4-3.8 23.2-.5 7.8-.5 15.7-.2 23.5.3 7.8 1 15.6 2.3 23.3 1.3 7.7 3.1 15.4 5.8 22.7 2.7 7.4 6.1 14.4 10.3 21-4.1-6.6-7.4-13.8-9.8-21.2-2.5-7.4-4.3-15-5.5-22.7-2.3-15.4-2.7-31.1-1.9-46.6.5-7.8 1.5-15.5 3.7-23 2.1-7.5 5.3-14.6 9.8-21 4.5-6.3 10.3-11.8 17.2-15.3 6.8-3.6 14.8-5.4 22.6-4.5-7.9-1-15.9.6-22.9 4.1zM65.6 161.9l-2.9-7.4-2.5-7.6c-3-10.2-4.9-20.7-5.5-31.2-.7-10.6-.2-21.2 1.5-31.7C58 73.5 60.9 63.2 65 53.4l-3.1 7.4-2.6 7.6-2.1 7.6-1.6 7.8c-1.9 10.5-2.4 21.2-1.8 31.9.2 3.2.5 6.4 1 9.6l-.1 3.4v3.7l.1 3.7.2 3.7c.4 4.9 1.1 9.9 2.1 14.7 1.1 4.9 2.3 9.6 4 14.3 1.6 4.7 3.5 9.3 5.8 13.7-1.9-4.6-3.6-9.2-5.1-13.9-1.5-4.7-2.8-9.5-3.7-14.3-1-4.8-1.8-9.7-2.3-14.6l-.4-3.7-.3-3.7-.2-3.7-.1-3.2c1 7.3 2.6 14.6 4.8 21.6l2.6 7.6 3 7.4 3.5 7.2 4 6.9-3.8-7-3.3-7.2zm12 7.7-1.9-4.5-1.8-4.6c-2.3-6.1-4.4-12.4-6.1-18.7-1.8-6.3-3.2-12.8-4.3-19.2-1.1-6.5-1.9-13-2.5-19.6.1 6.6.7 13.2 1.7 19.7s2.4 13 4.1 19.4c1.8 6.4 3.9 12.6 6.4 18.7l1.9 4.6 2.1 4.5 2.2 4.4 2.4 4.3-2.1-4.5-2.1-4.5zM62.8 163c.8 3.6 1.8 7 2.9 10.4 1.2 3.4 2.4 6.8 3.9 10.1-.8-3.6-1.8-7-2.9-10.4-1.2-3.4-2.4-6.8-3.9-10.1zm-13.1 1.3c-.4-3.5-.8-7.1-1.2-10.6l-1-10.6v5.4c.1 1.8.2 3.6.2 5.4.2 3.6.5 7.1.9 10.7.4 3.6.9 7.1 1.5 10.6s1.3 7 2.2 10.5L51 174.9c-.5-3.5-.9-7-1.3-10.6zM149.6 90c-.3-3.7-.8-7.3-1.4-10.9-1.2-7.2-3.2-14.4-6.4-21S134 45.4 128.1 41c-5.8-4.4-13-7.2-20.4-7.2 7.3.1 14.4 3.1 20.1 7.6 2.9 2.2 5.5 4.8 7.7 7.7 2.2 2.9 4.1 6 5.6 9.3 3.1 6.6 5 13.7 6.2 20.9.6 3.6 1.1 7.2 1.4 10.8.4 3.6.6 7.3.7 10.9.6 14.6-.6 29.2-3.3 43.6-1.4 7.2-3.1 14.3-5.3 21.2-2.1 7-4.7 13.9-7.6 20.6 3.1-6.6 5.8-13.4 8.1-20.4 2.3-7 4.2-14.1 5.6-21.2 2.9-14.4 4.1-29.1 3.6-43.7-.3-3.8-.5-7.5-.9-11.1zm-.9 51.8-.2 3c-.1 2-.3 3.9-.5 5.9-.4 3.9-.8 7.9-1.3 11.8-.5 3.9-1.1 7.8-1.8 11.7-.7 3.9-1.5 7.8-2.3 11.6 1.2-3.8 2.2-7.6 3-11.5.9-3.9 1.5-7.8 2.1-11.7.5-3.9.9-7.9 1.1-11.9.1-2 .1-4 .2-5.9 0-2 0-4-.1-5.9-.1.9-.2 1.9-.2 2.9zm-9.4-12.4c1.2-9 2.1-18.1 2.5-27.2s.4-18.2 0-27.3c.1 9.1-.2 18.2-.7 27.3s-1.5 18.1-2.8 27.1c-1.2 9-2.9 17.9-4.8 26.8l-1.5 6.6-1.6 6.6-1.7 6.6-1.9 6.6 2.1-6.5 2-6.5 1.8-6.6 1.6-6.6c2.1-8.9 3.7-17.9 5-26.9zm-1.5 29.5c-1.1 4.1-2.4 8.2-3.8 12.2 1.8-3.9 3.3-7.9 4.5-12 1.3-4.1 2.2-8.3 3-12.5.7-4.2 1.2-8.5 1.4-12.8l.1-3.2v-3.2l-.1-3.2c-.1-1.1-.1-2.1-.2-3.2 0 1.1-.1 2.1-.1 3.2l-.1 3.2-.2 3.2-.2 3.2c-.4 4.2-.9 8.5-1.7 12.6-.5 4.2-1.5 8.4-2.6 12.5zm-7.4-2.5-.6 5.1c-.1 1.7-.3 3.4-.4 5.1l3.5-20.1 3.6-20c-1 3.3-1.8 6.6-2.5 9.9-.8 3.3-1.4 6.6-2 10-.6 3.3-1.2 6.6-1.6 10zm29.4-9.8c-.8-5.2-1.5-10.5-2.2-15.7-.7-5.2-1.4-10.5-2-15.8l-.9-8c-.4-4.8-.9-9.6-1.5-14.4-1-7.3-2.4-14.6-4.1-21.9-.9-3.6-1.9-7.2-3.1-10.7-1.2-3.5-2.7-7-4.5-10.2-1.8-3.3-3.9-6.4-6.4-9.1-2.5-2.8-5.4-5.2-8.5-7.2-3.2-2-6.7-3.4-10.3-4.2-3.6-.8-7.4-.9-11-.1 3.7-.6 7.4-.5 11 .4 3.6.9 7 2.4 10.1 4.4 3.1 2 5.9 4.4 8.3 7.2 2.4 2.8 4.5 5.8 6.2 9.1 3.4 6.5 5.7 13.6 7.4 20.8 1.6 7.2 3.1 14.4 4 21.8 1 7.3 1.7 14.7 2.1 22.1.4 7.4.5 14.8.5 22.2 0 7.4-.3 14.8-.7 22.2-.4 7.4-.9 14.8-1.5 22.1.8-7.4 1.5-14.7 2-22.1.5-7.4.8-14.8 1-22.2.1-5.1.1-10.2-.1-15.3.3 3.1.7 6.1 1.1 9.2.7 5.2 1.5 10.5 2.4 15.7.5 2.6.9 5.2 1.5 7.8.5 2.6 1.1 5.2 1.7 7.8l-2.5-15.9z" fill="#b3a32c" stroke-width="none" opacity="1"></path></g><g id="svga-group-glasses-single-move" transform="matrix(1,0,0,1,0,0)"><g id="svga-group-glasses-single"></g></g></g></g></g><rect id="svga-credit-rect" width="200" height="15" x="0" y="185" fill="#ecf0f1" opacity="0.5" style="display: none;"></rect><text id="svga-credit-text" font-family="Avenir Next, Roboto, Helvetica, Arial, sans-serif" font-size="10px" text-anchor="start" font-weight="400" size="10px" anchor="start" weight="400" fill="#333333" x="33.3563232421875" y="182.58719658851624" style="display: none;"><tspan id="SvgjsTspan15284" dy="13" x="33.3563232421875">Created on AvatarMaker.com</tspan></text></g><defs id="SvgjsDefs15236"><linearGradient id="SvgjsLinearGradient15481" x1="99.7789" y1="100.5259" x2="99.7789" y2="111.7225" gradientUnits="userSpaceOnUse" class="svga-on-canvas-nose-gradient-single-0-null"><stop id="SvgjsStop15482" stop-opacity="0" stop-color="#f3d4cf" offset="0" ></stop><stop id="SvgjsStop15483" stop-opacity="1" stop-color="#ebc3bd" offset="1" ></stop></linearGradient></defs></svg>